<svg width="367" height="240" viewBox="0 0 367 240" fill="none" xmlns="http://www.w3.org/2000/svg">
<g clip-path="url(#clip0_1517_9019)">
<path d="M272.4 16.2399C275.245 16.2399 277.55 13.9342 277.55 11.0899C277.55 8.24568 275.245 5.93994 272.4 5.93994C269.556 5.93994 267.25 8.24568 267.25 11.0899C267.25 13.9342 269.556 16.2399 272.4 16.2399Z" fill="white"/>
<path d="M272.4 16.5299C269.4 16.5299 266.96 14.0899 266.96 11.0899C266.96 8.0899 269.4 5.6499 272.4 5.6499C275.4 5.6499 277.84 8.0899 277.84 11.0899C277.84 14.0899 275.4 16.5299 272.4 16.5299ZM272.4 6.2199C269.72 6.2199 267.53 8.3999 267.53 11.0899C267.53 13.7799 269.71 15.9499 272.4 15.9499C275.09 15.9499 277.27 13.7699 277.27 11.0899C277.27 8.4099 275.09 6.2199 272.4 6.2199Z" fill="black"/>
<path d="M293.09 16.2399C295.935 16.2399 298.24 13.9342 298.24 11.0899C298.24 8.24568 295.935 5.93994 293.09 5.93994C290.246 5.93994 287.94 8.24568 287.94 11.0899C287.94 13.9342 290.246 16.2399 293.09 16.2399Z" fill="white"/>
<path d="M293.09 16.5299C290.09 16.5299 287.65 14.0899 287.65 11.0899C287.65 8.0899 290.09 5.6499 293.09 5.6499C296.09 5.6499 298.53 8.0899 298.53 11.0899C298.53 14.0899 296.09 16.5299 293.09 16.5299ZM293.09 6.2199C290.41 6.2199 288.23 8.3999 288.23 11.0899C288.23 13.7799 290.41 15.9499 293.09 15.9499C295.77 15.9499 297.96 13.7699 297.96 11.0899C297.96 8.4099 295.78 6.2199 293.09 6.2199Z" fill="black"/>
<path d="M313.78 16.2399C316.625 16.2399 318.93 13.9342 318.93 11.0899C318.93 8.24568 316.625 5.93994 313.78 5.93994C310.936 5.93994 308.63 8.24568 308.63 11.0899C308.63 13.9342 310.936 16.2399 313.78 16.2399Z" fill="white"/>
<path d="M313.78 16.5299C310.78 16.5299 308.34 14.0899 308.34 11.0899C308.34 8.0899 310.78 5.6499 313.78 5.6499C316.78 5.6499 319.22 8.0899 319.22 11.0899C319.22 14.0899 316.78 16.5299 313.78 16.5299ZM313.78 6.2199C311.1 6.2199 308.91 8.3999 308.91 11.0899C308.91 13.7799 311.09 15.9499 313.78 15.9499C316.47 15.9499 318.64 13.7699 318.64 11.0899C318.64 8.4099 316.46 6.2199 313.78 6.2199Z" fill="black"/>
<path d="M334.47 16.2399C337.315 16.2399 339.62 13.9342 339.62 11.0899C339.62 8.24568 337.315 5.93994 334.47 5.93994C331.626 5.93994 329.32 8.24568 329.32 11.0899C329.32 13.9342 331.626 16.2399 334.47 16.2399Z" fill="white"/>
<path d="M334.47 16.5299C331.47 16.5299 329.03 14.0899 329.03 11.0899C329.03 8.0899 331.47 5.6499 334.47 5.6499C337.47 5.6499 339.91 8.0899 339.91 11.0899C339.91 14.0899 337.47 16.5299 334.47 16.5299ZM334.47 6.2199C331.79 6.2199 329.6 8.3999 329.6 11.0899C329.6 13.7799 331.78 15.9499 334.47 15.9499C337.16 15.9499 339.33 13.7699 339.33 11.0899C339.33 8.4099 337.15 6.2199 334.47 6.2199Z" fill="black"/>
<path d="M355.161 16.2399C358.005 16.2399 360.311 13.9342 360.311 11.0899C360.311 8.24568 358.005 5.93994 355.161 5.93994C352.316 5.93994 350.011 8.24568 350.011 11.0899C350.011 13.9342 352.316 16.2399 355.161 16.2399Z" fill="white"/>
<path d="M355.161 16.5299C352.161 16.5299 349.721 14.0899 349.721 11.0899C349.721 8.0899 352.161 5.6499 355.161 5.6499C358.161 5.6499 360.601 8.0899 360.601 11.0899C360.601 14.0899 358.161 16.5299 355.161 16.5299ZM355.161 6.2199C352.481 6.2199 350.291 8.3999 350.291 11.0899C350.291 13.7799 352.471 15.9499 355.161 15.9499C357.851 15.9499 360.031 13.7699 360.031 11.0899C360.031 8.4099 357.851 6.2199 355.161 6.2199Z" fill="black"/>
<path d="M272.4 37.05C275.245 37.05 277.55 34.7443 277.55 31.9C277.55 29.0557 275.245 26.75 272.4 26.75C269.556 26.75 267.25 29.0557 267.25 31.9C267.25 34.7443 269.556 37.05 272.4 37.05Z" fill="white"/>
<path d="M272.4 37.34C269.4 37.34 266.96 34.9 266.96 31.9C266.96 28.9 269.4 26.46 272.4 26.46C275.4 26.46 277.84 28.9 277.84 31.9C277.84 34.9 275.4 37.34 272.4 37.34ZM272.4 27.04C269.72 27.04 267.53 29.22 267.53 31.9C267.53 34.58 269.71 36.76 272.4 36.76C275.09 36.76 277.27 34.58 277.27 31.9C277.27 29.22 275.09 27.04 272.4 27.04Z" fill="black"/>
<path d="M293.09 37.05C295.935 37.05 298.24 34.7443 298.24 31.9C298.24 29.0557 295.935 26.75 293.09 26.75C290.246 26.75 287.94 29.0557 287.94 31.9C287.94 34.7443 290.246 37.05 293.09 37.05Z" fill="white"/>
<path d="M293.09 37.34C290.09 37.34 287.65 34.9 287.65 31.9C287.65 28.9 290.09 26.46 293.09 26.46C296.09 26.46 298.53 28.9 298.53 31.9C298.53 34.9 296.09 37.34 293.09 37.34ZM293.09 27.04C290.41 27.04 288.23 29.22 288.23 31.9C288.23 34.58 290.41 36.76 293.09 36.76C295.77 36.76 297.96 34.58 297.96 31.9C297.96 29.22 295.78 27.04 293.09 27.04Z" fill="black"/>
<path d="M313.78 37.05C316.625 37.05 318.93 34.7443 318.93 31.9C318.93 29.0557 316.625 26.75 313.78 26.75C310.936 26.75 308.63 29.0557 308.63 31.9C308.63 34.7443 310.936 37.05 313.78 37.05Z" fill="white"/>
<path d="M313.78 37.34C310.78 37.34 308.34 34.9 308.34 31.9C308.34 28.9 310.78 26.46 313.78 26.46C316.78 26.46 319.22 28.9 319.22 31.9C319.22 34.9 316.78 37.34 313.78 37.34ZM313.78 27.04C311.1 27.04 308.91 29.22 308.91 31.9C308.91 34.58 311.09 36.76 313.78 36.76C316.47 36.76 318.64 34.58 318.64 31.9C318.64 29.22 316.46 27.04 313.78 27.04Z" fill="black"/>
<path d="M334.47 37.05C337.315 37.05 339.62 34.7443 339.62 31.9C339.62 29.0557 337.315 26.75 334.47 26.75C331.626 26.75 329.32 29.0557 329.32 31.9C329.32 34.7443 331.626 37.05 334.47 37.05Z" fill="white"/>
<path d="M334.47 37.34C331.47 37.34 329.03 34.9 329.03 31.9C329.03 28.9 331.47 26.46 334.47 26.46C337.47 26.46 339.91 28.9 339.91 31.9C339.91 34.9 337.47 37.34 334.47 37.34ZM334.47 27.04C331.79 27.04 329.6 29.22 329.6 31.9C329.6 34.58 331.78 36.76 334.47 36.76C337.16 36.76 339.33 34.58 339.33 31.9C339.33 29.22 337.15 27.04 334.47 27.04Z" fill="black"/>
<path d="M355.161 37.05C358.005 37.05 360.311 34.7443 360.311 31.9C360.311 29.0557 358.005 26.75 355.161 26.75C352.316 26.75 350.011 29.0557 350.011 31.9C350.011 34.7443 352.316 37.05 355.161 37.05Z" fill="white"/>
<path d="M355.161 37.34C352.161 37.34 349.721 34.9 349.721 31.9C349.721 28.9 352.161 26.46 355.161 26.46C358.161 26.46 360.601 28.9 360.601 31.9C360.601 34.9 358.161 37.34 355.161 37.34ZM355.161 27.04C352.481 27.04 350.291 29.22 350.291 31.9C350.291 34.58 352.471 36.76 355.161 36.76C357.851 36.76 360.031 34.58 360.031 31.9C360.031 29.22 357.851 27.04 355.161 27.04Z" fill="black"/>
<path d="M272.4 57.8596C275.245 57.8596 277.55 55.5538 277.55 52.7096C277.55 49.8653 275.245 47.5596 272.4 47.5596C269.556 47.5596 267.25 49.8653 267.25 52.7096C267.25 55.5538 269.556 57.8596 272.4 57.8596Z" fill="white"/>
<path d="M272.4 58.1598C269.4 58.1598 266.96 55.7198 266.96 52.7198C266.96 49.7198 269.4 47.2798 272.4 47.2798C275.4 47.2798 277.84 49.7198 277.84 52.7198C277.84 55.7198 275.4 58.1598 272.4 58.1598ZM272.4 47.8498C269.72 47.8498 267.53 50.0298 267.53 52.7198C267.53 55.4098 269.71 57.5798 272.4 57.5798C275.09 57.5798 277.27 55.3998 277.27 52.7198C277.27 50.0398 275.09 47.8498 272.4 47.8498Z" fill="black"/>
<path d="M293.09 57.8596C295.935 57.8596 298.24 55.5538 298.24 52.7096C298.24 49.8653 295.935 47.5596 293.09 47.5596C290.246 47.5596 287.94 49.8653 287.94 52.7096C287.94 55.5538 290.246 57.8596 293.09 57.8596Z" fill="white"/>
<path d="M293.09 58.1598C290.09 58.1598 287.65 55.7198 287.65 52.7198C287.65 49.7198 290.09 47.2798 293.09 47.2798C296.09 47.2798 298.53 49.7198 298.53 52.7198C298.53 55.7198 296.09 58.1598 293.09 58.1598ZM293.09 47.8498C290.41 47.8498 288.23 50.0298 288.23 52.7198C288.23 55.4098 290.41 57.5798 293.09 57.5798C295.77 57.5798 297.96 55.3998 297.96 52.7198C297.96 50.0398 295.78 47.8498 293.09 47.8498Z" fill="black"/>
<path d="M313.78 57.8596C316.625 57.8596 318.93 55.5538 318.93 52.7096C318.93 49.8653 316.625 47.5596 313.78 47.5596C310.936 47.5596 308.63 49.8653 308.63 52.7096C308.63 55.5538 310.936 57.8596 313.78 57.8596Z" fill="white"/>
<path d="M313.78 58.1598C310.78 58.1598 308.34 55.7198 308.34 52.7198C308.34 49.7198 310.78 47.2798 313.78 47.2798C316.78 47.2798 319.22 49.7198 319.22 52.7198C319.22 55.7198 316.78 58.1598 313.78 58.1598ZM313.78 47.8498C311.1 47.8498 308.91 50.0298 308.91 52.7198C308.91 55.4098 311.09 57.5798 313.78 57.5798C316.47 57.5798 318.64 55.3998 318.64 52.7198C318.64 50.0398 316.46 47.8498 313.78 47.8498Z" fill="black"/>
<path d="M334.47 57.8596C337.315 57.8596 339.62 55.5538 339.62 52.7096C339.62 49.8653 337.315 47.5596 334.47 47.5596C331.626 47.5596 329.32 49.8653 329.32 52.7096C329.32 55.5538 331.626 57.8596 334.47 57.8596Z" fill="white"/>
<path d="M334.47 58.1598C331.47 58.1598 329.03 55.7198 329.03 52.7198C329.03 49.7198 331.47 47.2798 334.47 47.2798C337.47 47.2798 339.91 49.7198 339.91 52.7198C339.91 55.7198 337.47 58.1598 334.47 58.1598ZM334.47 47.8498C331.79 47.8498 329.6 50.0298 329.6 52.7198C329.6 55.4098 331.78 57.5798 334.47 57.5798C337.16 57.5798 339.33 55.3998 339.33 52.7198C339.33 50.0398 337.15 47.8498 334.47 47.8498Z" fill="black"/>
<path d="M355.161 57.8596C358.005 57.8596 360.311 55.5538 360.311 52.7096C360.311 49.8653 358.005 47.5596 355.161 47.5596C352.316 47.5596 350.011 49.8653 350.011 52.7096C350.011 55.5538 352.316 57.8596 355.161 57.8596Z" fill="white"/>
<path d="M355.161 58.1598C352.161 58.1598 349.721 55.7198 349.721 52.7198C349.721 49.7198 352.161 47.2798 355.161 47.2798C358.161 47.2798 360.601 49.7198 360.601 52.7198C360.601 55.7198 358.161 58.1598 355.161 58.1598ZM355.161 47.8498C352.481 47.8498 350.291 50.0298 350.291 52.7198C350.291 55.4098 352.471 57.5798 355.161 57.5798C357.851 57.5798 360.031 55.3998 360.031 52.7198C360.031 50.0398 357.851 47.8498 355.161 47.8498Z" fill="black"/>
<path d="M272.4 78.6799C275.245 78.6799 277.55 76.3742 277.55 73.5299C277.55 70.6856 275.245 68.3799 272.4 68.3799C269.556 68.3799 267.25 70.6856 267.25 73.5299C267.25 76.3742 269.556 78.6799 272.4 78.6799Z" fill="white"/>
<path d="M272.4 78.9698C269.4 78.9698 266.96 76.5298 266.96 73.5298C266.96 70.5298 269.4 68.0898 272.4 68.0898C275.4 68.0898 277.84 70.5298 277.84 73.5298C277.84 76.5298 275.4 78.9698 272.4 78.9698ZM272.4 68.6599C269.72 68.6599 267.53 70.8398 267.53 73.5198C267.53 76.1998 269.71 78.3798 272.4 78.3798C275.09 78.3798 277.27 76.1998 277.27 73.5198C277.27 70.8398 275.09 68.6599 272.4 68.6599Z" fill="black"/>
<path d="M293.09 78.6799C295.935 78.6799 298.24 76.3742 298.24 73.5299C298.24 70.6856 295.935 68.3799 293.09 68.3799C290.246 68.3799 287.94 70.6856 287.94 73.5299C287.94 76.3742 290.246 78.6799 293.09 78.6799Z" fill="white"/>
<path d="M293.09 78.9698C290.09 78.9698 287.65 76.5298 287.65 73.5298C287.65 70.5298 290.09 68.0898 293.09 68.0898C296.09 68.0898 298.53 70.5298 298.53 73.5298C298.53 76.5298 296.09 78.9698 293.09 78.9698ZM293.09 68.6599C290.41 68.6599 288.23 70.8398 288.23 73.5198C288.23 76.1998 290.41 78.3798 293.09 78.3798C295.77 78.3798 297.96 76.1998 297.96 73.5198C297.96 70.8398 295.78 68.6599 293.09 68.6599Z" fill="black"/>
<path d="M313.78 78.6799C316.625 78.6799 318.93 76.3742 318.93 73.5299C318.93 70.6856 316.625 68.3799 313.78 68.3799C310.936 68.3799 308.63 70.6856 308.63 73.5299C308.63 76.3742 310.936 78.6799 313.78 78.6799Z" fill="white"/>
<path d="M313.78 78.9698C310.78 78.9698 308.34 76.5298 308.34 73.5298C308.34 70.5298 310.78 68.0898 313.78 68.0898C316.78 68.0898 319.22 70.5298 319.22 73.5298C319.22 76.5298 316.78 78.9698 313.78 78.9698ZM313.78 68.6599C311.1 68.6599 308.91 70.8398 308.91 73.5198C308.91 76.1998 311.09 78.3798 313.78 78.3798C316.47 78.3798 318.64 76.1998 318.64 73.5198C318.64 70.8398 316.46 68.6599 313.78 68.6599Z" fill="black"/>
<path d="M334.47 78.6799C337.315 78.6799 339.62 76.3742 339.62 73.5299C339.62 70.6856 337.315 68.3799 334.47 68.3799C331.626 68.3799 329.32 70.6856 329.32 73.5299C329.32 76.3742 331.626 78.6799 334.47 78.6799Z" fill="white"/>
<path d="M334.47 78.9698C331.47 78.9698 329.03 76.5298 329.03 73.5298C329.03 70.5298 331.47 68.0898 334.47 68.0898C337.47 68.0898 339.91 70.5298 339.91 73.5298C339.91 76.5298 337.47 78.9698 334.47 78.9698ZM334.47 68.6599C331.79 68.6599 329.6 70.8398 329.6 73.5198C329.6 76.1998 331.78 78.3798 334.47 78.3798C337.16 78.3798 339.33 76.1998 339.33 73.5198C339.33 70.8398 337.15 68.6599 334.47 68.6599Z" fill="black"/>
<path d="M355.161 78.6799C358.005 78.6799 360.311 76.3742 360.311 73.5299C360.311 70.6856 358.005 68.3799 355.161 68.3799C352.316 68.3799 350.011 70.6856 350.011 73.5299C350.011 76.3742 352.316 78.6799 355.161 78.6799Z" fill="white"/>
<path d="M355.161 78.9698C352.161 78.9698 349.721 76.5298 349.721 73.5298C349.721 70.5298 352.161 68.0898 355.161 68.0898C358.161 68.0898 360.601 70.5298 360.601 73.5298C360.601 76.5298 358.161 78.9698 355.161 78.9698ZM355.161 68.6599C352.481 68.6599 350.291 70.8398 350.291 73.5198C350.291 76.1998 352.471 78.3798 355.161 78.3798C357.851 78.3798 360.031 76.1998 360.031 73.5198C360.031 70.8398 357.851 68.6599 355.161 68.6599Z" fill="black"/>
<path d="M272.4 99.4899C275.245 99.4899 277.55 97.1842 277.55 94.3399C277.55 91.4957 275.245 89.1899 272.4 89.1899C269.556 89.1899 267.25 91.4957 267.25 94.3399C267.25 97.1842 269.556 99.4899 272.4 99.4899Z" fill="white"/>
<path d="M272.4 99.7799C269.4 99.7799 266.96 97.3399 266.96 94.3399C266.96 91.3399 269.4 88.8999 272.4 88.8999C275.4 88.8999 277.84 91.3399 277.84 94.3399C277.84 97.3399 275.4 99.7799 272.4 99.7799ZM272.4 89.4799C269.72 89.4799 267.53 91.6599 267.53 94.3399C267.53 97.0199 269.71 99.1999 272.4 99.1999C275.09 99.1999 277.27 97.0199 277.27 94.3399C277.27 91.6599 275.09 89.4799 272.4 89.4799Z" fill="black"/>
<path d="M293.09 99.4899C295.935 99.4899 298.24 97.1842 298.24 94.3399C298.24 91.4957 295.935 89.1899 293.09 89.1899C290.246 89.1899 287.94 91.4957 287.94 94.3399C287.94 97.1842 290.246 99.4899 293.09 99.4899Z" fill="white"/>
<path d="M293.09 99.7799C290.09 99.7799 287.65 97.3399 287.65 94.3399C287.65 91.3399 290.09 88.8999 293.09 88.8999C296.09 88.8999 298.53 91.3399 298.53 94.3399C298.53 97.3399 296.09 99.7799 293.09 99.7799ZM293.09 89.4799C290.41 89.4799 288.23 91.6599 288.23 94.3399C288.23 97.0199 290.41 99.1999 293.09 99.1999C295.77 99.1999 297.96 97.0199 297.96 94.3399C297.96 91.6599 295.78 89.4799 293.09 89.4799Z" fill="black"/>
<path d="M313.78 99.4899C316.625 99.4899 318.93 97.1842 318.93 94.3399C318.93 91.4957 316.625 89.1899 313.78 89.1899C310.936 89.1899 308.63 91.4957 308.63 94.3399C308.63 97.1842 310.936 99.4899 313.78 99.4899Z" fill="white"/>
<path d="M313.78 99.7799C310.78 99.7799 308.34 97.3399 308.34 94.3399C308.34 91.3399 310.78 88.8999 313.78 88.8999C316.78 88.8999 319.22 91.3399 319.22 94.3399C319.22 97.3399 316.78 99.7799 313.78 99.7799ZM313.78 89.4799C311.1 89.4799 308.91 91.6599 308.91 94.3399C308.91 97.0199 311.09 99.1999 313.78 99.1999C316.47 99.1999 318.64 97.0199 318.64 94.3399C318.64 91.6599 316.46 89.4799 313.78 89.4799Z" fill="black"/>
<path d="M334.47 99.4899C337.315 99.4899 339.62 97.1842 339.62 94.3399C339.62 91.4957 337.315 89.1899 334.47 89.1899C331.626 89.1899 329.32 91.4957 329.32 94.3399C329.32 97.1842 331.626 99.4899 334.47 99.4899Z" fill="white"/>
<path d="M334.47 99.7799C331.47 99.7799 329.03 97.3399 329.03 94.3399C329.03 91.3399 331.47 88.8999 334.47 88.8999C337.47 88.8999 339.91 91.3399 339.91 94.3399C339.91 97.3399 337.47 99.7799 334.47 99.7799ZM334.47 89.4799C331.79 89.4799 329.6 91.6599 329.6 94.3399C329.6 97.0199 331.78 99.1999 334.47 99.1999C337.16 99.1999 339.33 97.0199 339.33 94.3399C339.33 91.6599 337.15 89.4799 334.47 89.4799Z" fill="black"/>
<path d="M355.161 99.4899C358.005 99.4899 360.311 97.1842 360.311 94.3399C360.311 91.4957 358.005 89.1899 355.161 89.1899C352.316 89.1899 350.011 91.4957 350.011 94.3399C350.011 97.1842 352.316 99.4899 355.161 99.4899Z" fill="white"/>
<path d="M355.161 99.7799C352.161 99.7799 349.721 97.3399 349.721 94.3399C349.721 91.3399 352.161 88.8999 355.161 88.8999C358.161 88.8999 360.601 91.3399 360.601 94.3399C360.601 97.3399 358.161 99.7799 355.161 99.7799ZM355.161 89.4799C352.481 89.4799 350.291 91.6599 350.291 94.3399C350.291 97.0199 352.471 99.1999 355.161 99.1999C357.851 99.1999 360.031 97.0199 360.031 94.3399C360.031 91.6599 357.851 89.4799 355.161 89.4799Z" fill="black"/>
<path d="M246.52 0.290039H32.9004V122.72H246.52V0.290039Z" fill="white"/>
<path d="M246.51 123H32.9004C32.7404 123 32.6104 122.87 32.6104 122.71V0.29C32.6104 0.13 32.7404 0 32.9004 0H246.52C246.68 0 246.81 0.13 246.81 0.29V122.72C246.81 122.88 246.68 123.01 246.52 123.01L246.51 123ZM33.1903 122.43H246.23V0.58H33.1903V122.43Z" fill="black"/>
<path d="M217.63 50.9C217.06 50.9 216.5 50.94 215.94 51C216.27 49.11 216.45 47.18 216.45 45.2C216.45 26.85 201.58 11.98 183.23 11.98C166.3 11.98 152.32 24.65 150.27 41.03C148.88 40.7 147.43 40.53 145.94 40.53C135.48 40.53 126.99 49.01 126.99 59.48C126.99 69.95 135.47 78.43 145.94 78.43H217.63C225.23 78.43 231.39 72.27 231.39 64.67C231.39 57.07 225.23 50.91 217.63 50.91V50.9Z" fill="#FFC136"/>
<path d="M203.39 92.91V72.04H190.13V92.91H182.21L196.76 108.68L211.31 92.91H203.39Z" fill="#FFC136"/>
<path d="M175.02 59.8198V80.6898H161.76V59.8198H153.85L168.39 44.0498L182.94 59.8198H175.02Z" fill="white"/>
<path d="M278.191 10.4499C281.035 10.4499 283.341 8.14417 283.341 5.2999C283.341 2.45564 281.035 0.149902 278.191 0.149902C275.346 0.149902 273.041 2.45564 273.041 5.2999C273.041 8.14417 275.346 10.4499 278.191 10.4499Z" fill="#492AB1"/>
<path d="M298.88 10.4499C301.725 10.4499 304.03 8.14417 304.03 5.2999C304.03 2.45564 301.725 0.149902 298.88 0.149902C296.036 0.149902 293.73 2.45564 293.73 5.2999C293.73 8.14417 296.036 10.4499 298.88 10.4499Z" fill="#492AB1"/>
<path d="M319.57 10.4499C322.415 10.4499 324.72 8.14417 324.72 5.2999C324.72 2.45564 322.415 0.149902 319.57 0.149902C316.726 0.149902 314.42 2.45564 314.42 5.2999C314.42 8.14417 316.726 10.4499 319.57 10.4499Z" fill="#492AB1"/>
<path d="M340.26 10.4499C343.105 10.4499 345.41 8.14417 345.41 5.2999C345.41 2.45564 343.105 0.149902 340.26 0.149902C337.416 0.149902 335.11 2.45564 335.11 5.2999C335.11 8.14417 337.416 10.4499 340.26 10.4499Z" fill="#492AB1"/>
<path d="M360.95 10.4499C363.795 10.4499 366.1 8.14417 366.1 5.2999C366.1 2.45564 363.795 0.149902 360.95 0.149902C358.106 0.149902 355.8 2.45564 355.8 5.2999C355.8 8.14417 358.106 10.4499 360.95 10.4499Z" fill="#492AB1"/>
<path d="M278.191 31.26C281.035 31.26 283.341 28.9542 283.341 26.11C283.341 23.2657 281.035 20.96 278.191 20.96C275.346 20.96 273.041 23.2657 273.041 26.11C273.041 28.9542 275.346 31.26 278.191 31.26Z" fill="#492AB1"/>
<path d="M298.88 31.26C301.725 31.26 304.03 28.9542 304.03 26.11C304.03 23.2657 301.725 20.96 298.88 20.96C296.036 20.96 293.73 23.2657 293.73 26.11C293.73 28.9542 296.036 31.26 298.88 31.26Z" fill="#492AB1"/>
<path d="M319.57 31.26C322.415 31.26 324.72 28.9542 324.72 26.11C324.72 23.2657 322.415 20.96 319.57 20.96C316.726 20.96 314.42 23.2657 314.42 26.11C314.42 28.9542 316.726 31.26 319.57 31.26Z" fill="#492AB1"/>
<path d="M340.26 31.26C343.105 31.26 345.41 28.9542 345.41 26.11C345.41 23.2657 343.105 20.96 340.26 20.96C337.416 20.96 335.11 23.2657 335.11 26.11C335.11 28.9542 337.416 31.26 340.26 31.26Z" fill="#492AB1"/>
<path d="M360.95 31.26C363.795 31.26 366.1 28.9542 366.1 26.11C366.1 23.2657 363.795 20.96 360.95 20.96C358.106 20.96 355.8 23.2657 355.8 26.11C355.8 28.9542 358.106 31.26 360.95 31.26Z" fill="#492AB1"/>
<path d="M278.191 52.0798C281.035 52.0798 283.341 49.7741 283.341 46.9298C283.341 44.0855 281.035 41.7798 278.191 41.7798C275.346 41.7798 273.041 44.0855 273.041 46.9298C273.041 49.7741 275.346 52.0798 278.191 52.0798Z" fill="#492AB1"/>
<path d="M298.88 52.0798C301.725 52.0798 304.03 49.7741 304.03 46.9298C304.03 44.0855 301.725 41.7798 298.88 41.7798C296.036 41.7798 293.73 44.0855 293.73 46.9298C293.73 49.7741 296.036 52.0798 298.88 52.0798Z" fill="#492AB1"/>
<path d="M319.57 52.0798C322.415 52.0798 324.72 49.7741 324.72 46.9298C324.72 44.0855 322.415 41.7798 319.57 41.7798C316.726 41.7798 314.42 44.0855 314.42 46.9298C314.42 49.7741 316.726 52.0798 319.57 52.0798Z" fill="#492AB1"/>
<path d="M340.26 52.0798C343.105 52.0798 345.41 49.7741 345.41 46.9298C345.41 44.0855 343.105 41.7798 340.26 41.7798C337.416 41.7798 335.11 44.0855 335.11 46.9298C335.11 49.7741 337.416 52.0798 340.26 52.0798Z" fill="#492AB1"/>
<path d="M360.95 52.0798C363.795 52.0798 366.1 49.7741 366.1 46.9298C366.1 44.0855 363.795 41.7798 360.95 41.7798C358.106 41.7798 355.8 44.0855 355.8 46.9298C355.8 49.7741 358.106 52.0798 360.95 52.0798Z" fill="#492AB1"/>
<path d="M278.191 72.8898C281.035 72.8898 283.341 70.5841 283.341 67.7398C283.341 64.8956 281.035 62.5898 278.191 62.5898C275.346 62.5898 273.041 64.8956 273.041 67.7398C273.041 70.5841 275.346 72.8898 278.191 72.8898Z" fill="#492AB1"/>
<path d="M298.88 72.8898C301.725 72.8898 304.03 70.5841 304.03 67.7398C304.03 64.8956 301.725 62.5898 298.88 62.5898C296.036 62.5898 293.73 64.8956 293.73 67.7398C293.73 70.5841 296.036 72.8898 298.88 72.8898Z" fill="#492AB1"/>
<path d="M319.57 72.8898C322.415 72.8898 324.72 70.5841 324.72 67.7398C324.72 64.8956 322.415 62.5898 319.57 62.5898C316.726 62.5898 314.42 64.8956 314.42 67.7398C314.42 70.5841 316.726 72.8898 319.57 72.8898Z" fill="#492AB1"/>
<path d="M340.26 72.8898C343.105 72.8898 345.41 70.5841 345.41 67.7398C345.41 64.8956 343.105 62.5898 340.26 62.5898C337.416 62.5898 335.11 64.8956 335.11 67.7398C335.11 70.5841 337.416 72.8898 340.26 72.8898Z" fill="#492AB1"/>
<path d="M360.95 72.8898C363.795 72.8898 366.1 70.5841 366.1 67.7398C366.1 64.8956 363.795 62.5898 360.95 62.5898C358.106 62.5898 355.8 64.8956 355.8 67.7398C355.8 70.5841 358.106 72.8898 360.95 72.8898Z" fill="#492AB1"/>
<path d="M278.191 93.6999C281.035 93.6999 283.341 91.3942 283.341 88.5499C283.341 85.7056 281.035 83.3999 278.191 83.3999C275.346 83.3999 273.041 85.7056 273.041 88.5499C273.041 91.3942 275.346 93.6999 278.191 93.6999Z" fill="#492AB1"/>
<path d="M298.88 93.6999C301.725 93.6999 304.03 91.3942 304.03 88.5499C304.03 85.7056 301.725 83.3999 298.88 83.3999C296.036 83.3999 293.73 85.7056 293.73 88.5499C293.73 91.3942 296.036 93.6999 298.88 93.6999Z" fill="#492AB1"/>
<path d="M319.57 93.6999C322.415 93.6999 324.72 91.3942 324.72 88.5499C324.72 85.7056 322.415 83.3999 319.57 83.3999C316.726 83.3999 314.42 85.7056 314.42 88.5499C314.42 91.3942 316.726 93.6999 319.57 93.6999Z" fill="#492AB1"/>
<path d="M340.26 93.6999C343.105 93.6999 345.41 91.3942 345.41 88.5499C345.41 85.7056 343.105 83.3999 340.26 83.3999C337.416 83.3999 335.11 85.7056 335.11 88.5499C335.11 91.3942 337.416 93.6999 340.26 93.6999Z" fill="#492AB1"/>
<path d="M360.95 93.6999C363.795 93.6999 366.1 91.3942 366.1 88.5499C366.1 85.7056 363.795 83.3999 360.95 83.3999C358.106 83.3999 355.8 85.7056 355.8 88.5499C355.8 91.3942 358.106 93.6999 360.95 93.6999Z" fill="#492AB1"/>
<path d="M184.7 211.68V224.17C184.72 227.95 180.34 231.75 171.54 234.68C153.95 240.55 125.25 240.8 106.86 235.31C106.56 235.22 106.26 235.13 105.96 235.04C96.6404 232.11 91.9704 228.21 91.9604 224.3V211.81C91.9604 215.72 96.6404 219.62 105.95 222.55C106.25 222.64 106.54 222.73 106.85 222.82C125.24 228.31 153.94 228.06 171.53 222.19C180.32 219.25 184.7 215.46 184.7 211.68Z" fill="white"/>
<path d="M138.14 239.55C126.47 239.55 115.39 238.15 106.79 235.59C106.49 235.5 106.19 235.41 105.89 235.31C96.7404 232.43 91.6904 228.52 91.6904 224.3V211.81C91.6904 211.65 91.8204 211.52 91.9804 211.52C92.1404 211.52 92.2704 211.65 92.2704 211.81C92.2704 215.7 97.3004 219.52 106.07 222.27C106.37 222.36 106.66 222.45 106.96 222.54C125.19 227.98 154.12 227.7 171.46 221.91C179.82 219.12 184.43 215.48 184.43 211.67C184.43 211.51 184.56 211.38 184.72 211.38C184.88 211.38 185.01 211.51 185.01 211.67V224.16C185.01 228.24 180.27 232.07 171.65 234.95C163.13 237.79 151.72 239.42 139.52 239.54C139.06 239.54 138.6 239.54 138.14 239.54V239.55ZM92.2604 214.25V224.3C92.2704 228.19 97.3004 232.01 106.07 234.76C106.37 234.85 106.66 234.94 106.96 235.03C125.19 240.47 154.12 240.19 171.46 234.4C179.83 231.61 184.43 227.97 184.43 224.16V214.11C182.92 217.26 178.51 220.16 171.63 222.46C163.11 225.3 151.7 226.93 139.5 227.05C127.33 227.16 115.71 225.76 106.78 223.09C106.48 223 106.18 222.91 105.88 222.81C98.5204 220.49 93.8204 217.51 92.2604 214.24V214.25Z" fill="black"/>
<path d="M169.8 200.67C170.1 200.76 170.4 200.85 170.7 200.95C189.04 206.72 189.41 216.24 171.54 222.2C153.95 228.07 125.25 228.32 106.86 222.83C106.56 222.74 106.26 222.65 105.96 222.56C87.6202 216.79 87.2502 207.27 105.13 201.31C122.72 195.44 151.41 195.19 169.8 200.68V200.67Z" fill="white"/>
<path d="M138.13 227.07C126.46 227.07 115.38 225.67 106.78 223.11C106.48 223.02 106.18 222.93 105.88 222.83C96.7604 219.96 91.7104 216.06 91.6804 211.85C91.6404 207.76 96.3904 203.91 105.04 201.02C113.56 198.18 124.97 196.55 137.16 196.43C149.33 196.31 160.95 197.72 169.88 200.39C170.18 200.48 170.48 200.57 170.78 200.67C179.9 203.54 184.95 207.44 184.98 211.65C185.02 215.74 180.27 219.59 171.62 222.48C163.1 225.32 151.69 226.95 139.49 227.07C139.03 227.07 138.57 227.07 138.11 227.07H138.13ZM138.55 197.04C126.39 197.04 114.24 198.56 105.22 201.57C96.8204 204.37 92.2204 208.02 92.2504 211.84C92.2804 215.72 97.3104 219.52 106.05 222.27C106.35 222.36 106.64 222.45 106.94 222.54C125.17 227.98 154.1 227.7 171.44 221.91C179.84 219.11 184.44 215.46 184.41 211.64C184.38 207.76 179.35 203.96 170.61 201.21C170.31 201.12 170.02 201.03 169.72 200.94C160.98 198.33 149.76 197.04 138.55 197.04Z" fill="black"/>
<path d="M184.591 195.32V207.81C184.611 211.59 180.231 215.39 171.431 218.32C153.841 224.19 125.141 224.44 106.751 218.95C106.451 218.86 106.151 218.77 105.851 218.68C96.5306 215.75 91.8606 211.85 91.8506 207.94V195.45C91.8506 199.36 96.5306 203.26 105.841 206.19C106.141 206.28 106.431 206.37 106.741 206.46C125.131 211.95 153.831 211.7 171.421 205.83C180.211 202.89 184.591 199.1 184.591 195.32Z" fill="white"/>
<path d="M138.031 223.191C126.361 223.191 115.281 221.79 106.681 219.23C106.381 219.14 106.081 219.051 105.781 218.951C96.6306 216.07 91.5806 212.161 91.5806 207.941V195.451C91.5806 195.291 91.7106 195.161 91.8706 195.161C92.0306 195.161 92.1606 195.291 92.1606 195.451C92.1606 199.341 97.1906 203.161 105.961 205.911C106.261 206.001 106.551 206.09 106.851 206.18C125.081 211.62 154.011 211.341 171.351 205.551C179.711 202.761 184.321 199.121 184.321 195.311C184.321 195.151 184.451 195.021 184.611 195.021C184.771 195.021 184.901 195.151 184.901 195.311V207.801C184.901 211.881 180.161 215.71 171.541 218.59C163.021 221.431 151.611 223.06 139.411 223.18C138.951 223.18 138.491 223.18 138.041 223.18L138.031 223.191ZM92.1506 197.891V207.941C92.1606 211.831 97.1906 215.65 105.961 218.4C106.261 218.49 106.551 218.581 106.851 218.671C125.081 224.111 154.011 223.83 171.351 218.04C179.721 215.25 184.321 211.611 184.321 207.801V197.751C182.811 200.901 178.401 203.801 171.521 206.101C163.001 208.941 151.591 210.571 139.391 210.691C127.221 210.801 115.601 209.4 106.671 206.73C106.371 206.64 106.071 206.551 105.771 206.451C98.4106 204.131 93.7106 201.151 92.1506 197.881V197.891Z" fill="black"/>
<path d="M169.69 184.311C169.99 184.401 170.29 184.491 170.59 184.591C188.93 190.361 189.3 199.881 171.43 205.841C153.84 211.711 125.14 211.961 106.75 206.471C106.45 206.381 106.15 206.291 105.85 206.201C87.5103 200.431 87.1403 190.911 105.02 184.951C122.61 179.081 151.3 178.831 169.69 184.321V184.311Z" fill="white"/>
<path d="M138.021 210.7C126.351 210.7 115.271 209.3 106.671 206.74C106.371 206.65 106.071 206.56 105.771 206.46C96.6506 203.59 91.6006 199.69 91.5706 195.48C91.5306 191.39 96.2806 187.54 104.931 184.65C113.451 181.81 124.861 180.18 137.051 180.06C149.221 179.94 160.841 181.35 169.771 184.02C170.071 184.11 170.371 184.2 170.671 184.3C179.791 187.17 184.841 191.07 184.871 195.28C184.911 199.37 180.161 203.22 171.511 206.11C162.991 208.95 151.581 210.58 139.381 210.7C138.921 210.7 138.461 210.7 138.011 210.7H138.021ZM138.441 180.68C126.281 180.68 114.131 182.2 105.111 185.21C96.7106 188.01 92.1106 191.66 92.1406 195.48C92.1706 199.36 97.2006 203.16 105.941 205.91C106.241 206 106.531 206.09 106.831 206.18C125.061 211.62 153.991 211.34 171.331 205.55C179.731 202.75 184.331 199.1 184.301 195.28C184.271 191.4 179.241 187.6 170.501 184.85C170.201 184.76 169.911 184.67 169.611 184.58C160.871 181.97 149.651 180.68 138.441 180.68Z" fill="black"/>
<path d="M184.591 178.64V191.13C184.611 194.91 180.231 198.71 171.431 201.64C153.841 207.51 125.141 207.76 106.751 202.27C106.451 202.18 106.151 202.09 105.851 202C96.5306 199.07 91.8606 195.17 91.8506 191.26V178.77C91.8506 182.68 96.5306 186.58 105.841 189.51C106.141 189.6 106.431 189.69 106.741 189.78C125.131 195.27 153.831 195.02 171.421 189.15C180.211 186.21 184.591 182.42 184.591 178.64Z" fill="white"/>
<path d="M138.031 206.51C126.361 206.51 115.281 205.11 106.681 202.55C106.381 202.46 106.081 202.37 105.781 202.27C96.6306 199.39 91.5806 195.48 91.5806 191.26V178.77C91.5806 178.61 91.7106 178.48 91.8706 178.48C92.0306 178.48 92.1606 178.61 92.1606 178.77C92.1606 182.66 97.1906 186.48 105.961 189.23C106.261 189.32 106.551 189.41 106.851 189.5C125.081 194.94 154.011 194.66 171.351 188.87C179.711 186.08 184.321 182.44 184.321 178.63C184.321 178.47 184.451 178.34 184.611 178.34C184.771 178.34 184.901 178.47 184.901 178.63V191.12C184.901 195.2 180.161 199.03 171.541 201.91C163.021 204.75 151.611 206.38 139.411 206.5C138.951 206.5 138.491 206.5 138.041 206.5L138.031 206.51ZM92.1506 181.21V191.26C92.1606 195.15 97.1906 198.97 105.961 201.72C106.261 201.81 106.551 201.9 106.851 201.99C125.081 207.43 154.011 207.15 171.351 201.36C179.721 198.57 184.321 194.93 184.321 191.12V181.07C182.811 184.22 178.401 187.12 171.521 189.42C163.001 192.26 151.591 193.89 139.391 194.01C127.221 194.13 115.601 192.72 106.671 190.05C106.371 189.96 106.071 189.87 105.771 189.77C98.4106 187.45 93.7106 184.47 92.1506 181.2V181.21Z" fill="black"/>
<path d="M169.69 167.62C169.99 167.71 170.29 167.8 170.59 167.9C188.93 173.67 189.3 183.19 171.43 189.15C153.84 195.02 125.14 195.27 106.75 189.78C106.45 189.69 106.15 189.6 105.85 189.51C87.5103 183.74 87.1403 174.22 105.02 168.26C122.61 162.39 151.3 162.14 169.69 167.63V167.62Z" fill="white"/>
<path d="M138.021 194.02C126.351 194.02 115.271 192.62 106.671 190.06C106.371 189.97 106.071 189.88 105.771 189.78C96.6506 186.91 91.6006 183.01 91.5706 178.8C91.5306 174.71 96.2806 170.86 104.931 167.97C113.451 165.13 124.861 163.5 137.051 163.38C149.221 163.26 160.841 164.67 169.771 167.34C170.071 167.43 170.371 167.52 170.671 167.62C179.791 170.49 184.841 174.39 184.871 178.6C184.911 182.69 180.161 186.54 171.511 189.43C162.991 192.27 151.581 193.9 139.381 194.02C138.921 194.02 138.461 194.02 138.001 194.02H138.021ZM138.441 164C126.281 164 114.131 165.52 105.111 168.53C96.7106 171.33 92.1106 174.98 92.1406 178.8C92.1706 182.68 97.2006 186.48 105.941 189.23C106.241 189.32 106.531 189.41 106.831 189.5C125.061 194.94 153.991 194.66 171.331 188.87C179.731 186.07 184.331 182.42 184.301 178.6C184.271 174.72 179.241 170.92 170.501 168.17C170.201 168.08 169.911 167.99 169.611 167.9C160.871 165.29 149.651 164 138.441 164Z" fill="black"/>
<path d="M283.71 211.68V224.17C283.73 227.95 279.35 231.75 270.55 234.68C252.96 240.55 224.26 240.8 205.87 235.31C205.57 235.22 205.27 235.13 204.97 235.04C195.65 232.11 190.98 228.21 190.97 224.3V211.81C190.97 215.72 195.65 219.62 204.96 222.55C205.26 222.64 205.55 222.73 205.86 222.82C224.25 228.31 252.95 228.06 270.54 222.19C279.33 219.25 283.71 215.46 283.71 211.68Z" fill="white"/>
<path d="M237.14 239.55C225.47 239.55 214.39 238.15 205.79 235.59C205.49 235.5 205.19 235.41 204.89 235.31C195.74 232.43 190.69 228.52 190.69 224.3V211.81C190.69 211.65 190.82 211.52 190.98 211.52C191.14 211.52 191.27 211.65 191.27 211.81C191.27 215.7 196.3 219.52 205.07 222.27C205.37 222.36 205.66 222.45 205.96 222.54C224.19 227.98 253.12 227.7 270.46 221.91C278.82 219.12 283.43 215.48 283.43 211.67C283.43 211.51 283.56 211.38 283.72 211.38C283.88 211.38 284.01 211.51 284.01 211.67V224.16C284.01 228.24 279.27 232.07 270.65 234.95C262.13 237.79 250.72 239.42 238.52 239.54C238.06 239.54 237.6 239.54 237.14 239.54V239.55ZM191.26 214.25V224.3C191.27 228.19 196.3 232.01 205.07 234.76C205.37 234.85 205.66 234.94 205.96 235.03C224.19 240.47 253.12 240.19 270.46 234.4C278.83 231.61 283.43 227.97 283.43 224.16V214.11C281.92 217.26 277.51 220.16 270.63 222.46C262.11 225.3 250.7 226.93 238.5 227.05C226.33 227.16 214.71 225.76 205.78 223.09C205.48 223 205.18 222.91 204.88 222.81C197.52 220.49 192.82 217.51 191.26 214.24V214.25Z" fill="black"/>
<path d="M268.81 200.67C269.11 200.76 269.41 200.85 269.71 200.95C288.05 206.72 288.42 216.24 270.55 222.2C252.96 228.07 224.26 228.32 205.87 222.83C205.57 222.74 205.27 222.65 204.97 222.56C186.63 216.79 186.26 207.27 204.14 201.31C221.73 195.44 250.42 195.19 268.81 200.68V200.67Z" fill="white"/>
<path d="M237.13 227.07C225.46 227.07 214.38 225.67 205.78 223.11C205.48 223.02 205.18 222.93 204.88 222.83C195.76 219.96 190.71 216.06 190.68 211.85C190.64 207.76 195.39 203.91 204.04 201.02C212.56 198.18 223.97 196.55 236.16 196.43C248.33 196.31 259.95 197.72 268.88 200.39C269.18 200.48 269.48 200.57 269.78 200.67C278.9 203.54 283.95 207.44 283.98 211.65C284.02 215.74 279.27 219.59 270.62 222.48C262.1 225.32 250.69 226.95 238.49 227.07C238.03 227.07 237.57 227.07 237.11 227.07H237.13ZM237.56 197.04C225.4 197.04 213.25 198.56 204.23 201.57C195.83 204.37 191.23 208.02 191.26 211.84C191.29 215.72 196.32 219.52 205.06 222.27C205.36 222.36 205.65 222.45 205.95 222.54C224.18 227.98 253.11 227.7 270.45 221.91C278.85 219.11 283.45 215.46 283.42 211.64C283.39 207.76 278.36 203.96 269.62 201.21C269.32 201.12 269.03 201.03 268.73 200.94C259.99 198.33 248.77 197.04 237.56 197.04Z" fill="black"/>
<path d="M283.6 195.32V207.81C283.62 211.59 279.24 215.39 270.44 218.32C252.85 224.19 224.15 224.44 205.76 218.95C205.46 218.86 205.16 218.77 204.86 218.68C195.54 215.75 190.87 211.85 190.86 207.94V195.45C190.86 199.36 195.54 203.26 204.85 206.19C205.15 206.28 205.44 206.37 205.75 206.46C224.14 211.95 252.84 211.7 270.43 205.83C279.22 202.89 283.6 199.1 283.6 195.32Z" fill="white"/>
<path d="M237.031 223.19C225.361 223.19 214.281 221.79 205.681 219.23C205.381 219.14 205.081 219.05 204.781 218.95C195.631 216.07 190.581 212.16 190.581 207.94V195.45C190.581 195.29 190.711 195.16 190.871 195.16C191.031 195.16 191.161 195.29 191.161 195.45C191.161 199.34 196.191 203.16 204.961 205.91C205.261 206 205.551 206.09 205.851 206.18C224.081 211.62 253.011 211.34 270.351 205.55C278.711 202.76 283.321 199.12 283.321 195.31C283.321 195.15 283.451 195.02 283.611 195.02C283.771 195.02 283.901 195.15 283.901 195.31V207.8C283.901 211.88 279.161 215.71 270.541 218.59C262.021 221.43 250.611 223.06 238.411 223.18C237.951 223.18 237.491 223.18 237.041 223.18L237.031 223.19ZM191.151 197.89V207.94C191.161 211.83 196.191 215.65 204.961 218.4C205.261 218.49 205.551 218.58 205.851 218.67C224.081 224.11 253.011 223.83 270.351 218.04C278.721 215.25 283.321 211.61 283.321 207.8V197.75C281.811 200.9 277.401 203.8 270.521 206.1C262.001 208.94 250.591 210.57 238.391 210.69C226.221 210.8 214.601 209.4 205.671 206.73C205.371 206.64 205.071 206.55 204.771 206.45C197.411 204.13 192.711 201.15 191.151 197.88V197.89Z" fill="black"/>
<path d="M268.701 184.31C269.001 184.4 269.301 184.49 269.601 184.59C287.941 190.36 288.311 199.88 270.441 205.84C252.851 211.71 224.151 211.96 205.761 206.47C205.461 206.38 205.161 206.29 204.861 206.2C186.521 200.43 186.151 190.91 204.031 184.95C221.621 179.08 250.311 178.83 268.701 184.32V184.31Z" fill="white"/>
<path d="M237.021 210.7C225.351 210.7 214.271 209.3 205.671 206.74C205.371 206.65 205.071 206.56 204.771 206.46C195.651 203.59 190.601 199.69 190.571 195.48C190.531 191.39 195.281 187.54 203.931 184.65C212.451 181.81 223.861 180.18 236.051 180.06C248.221 179.95 259.841 181.35 268.771 184.02C269.071 184.11 269.371 184.2 269.671 184.3C278.791 187.17 283.841 191.07 283.871 195.28C283.911 199.37 279.161 203.22 270.511 206.11C261.991 208.95 250.581 210.58 238.381 210.7C237.921 210.7 237.461 210.7 237.011 210.7H237.021ZM237.451 180.68C225.291 180.68 213.141 182.2 204.121 185.21C195.721 188.01 191.121 191.66 191.151 195.48C191.181 199.36 196.211 203.16 204.951 205.91C205.251 206 205.541 206.09 205.841 206.18C224.071 211.62 253.001 211.34 270.341 205.55C278.741 202.75 283.341 199.1 283.311 195.28C283.281 191.4 278.251 187.6 269.511 184.85C269.211 184.76 268.921 184.67 268.621 184.58C259.881 181.97 248.661 180.68 237.451 180.68Z" fill="black"/>
<path d="M283.6 178.64V191.13C283.62 194.91 279.24 198.71 270.44 201.64C252.85 207.51 224.15 207.76 205.76 202.27C205.46 202.18 205.16 202.09 204.86 202C195.54 199.07 190.87 195.17 190.86 191.26V178.77C190.86 182.68 195.54 186.58 204.85 189.51C205.15 189.6 205.44 189.69 205.75 189.78C224.14 195.27 252.84 195.02 270.43 189.15C279.22 186.21 283.6 182.42 283.6 178.64Z" fill="white"/>
<path d="M237.031 206.51C225.361 206.51 214.281 205.11 205.681 202.55C205.381 202.46 205.081 202.37 204.781 202.27C195.631 199.39 190.581 195.48 190.581 191.26V178.77C190.581 178.61 190.711 178.48 190.871 178.48C191.031 178.48 191.161 178.61 191.161 178.77C191.161 182.66 196.191 186.48 204.961 189.23C205.261 189.32 205.551 189.41 205.851 189.5C224.081 194.94 253.011 194.66 270.351 188.87C278.711 186.08 283.321 182.44 283.321 178.63C283.321 178.47 283.451 178.34 283.611 178.34C283.771 178.34 283.901 178.47 283.901 178.63V191.12C283.901 195.2 279.161 199.03 270.541 201.91C262.021 204.75 250.611 206.38 238.411 206.5C237.951 206.5 237.491 206.5 237.041 206.5L237.031 206.51ZM191.151 181.21V191.26C191.161 195.15 196.191 198.97 204.961 201.72C205.261 201.81 205.551 201.9 205.851 201.99C224.081 207.43 253.011 207.15 270.351 201.36C278.721 198.57 283.321 194.93 283.321 191.12V181.07C281.811 184.22 277.401 187.12 270.521 189.42C262.001 192.26 250.591 193.89 238.391 194.01C226.221 194.13 214.601 192.72 205.671 190.05C205.371 189.96 205.071 189.87 204.771 189.77C197.411 187.45 192.711 184.47 191.151 181.2V181.21Z" fill="black"/>
<path d="M268.701 167.62C269.001 167.71 269.301 167.8 269.601 167.9C287.941 173.67 288.311 183.19 270.441 189.15C252.851 195.02 224.151 195.27 205.761 189.78C205.461 189.69 205.161 189.6 204.861 189.51C186.521 183.74 186.151 174.22 204.031 168.26C221.621 162.39 250.311 162.14 268.701 167.63V167.62Z" fill="white"/>
<path d="M237.021 194.02C225.351 194.02 214.271 192.62 205.671 190.06C205.371 189.97 205.071 189.88 204.771 189.78C195.651 186.91 190.601 183.01 190.571 178.8C190.531 174.71 195.281 170.86 203.931 167.97C212.451 165.13 223.861 163.5 236.051 163.38C248.221 163.27 259.841 164.67 268.771 167.34C269.071 167.43 269.371 167.52 269.671 167.62C278.791 170.49 283.841 174.39 283.871 178.6C283.911 182.69 279.161 186.54 270.511 189.43C261.991 192.27 250.581 193.9 238.381 194.02C237.921 194.02 237.461 194.02 237.001 194.02H237.021ZM237.451 164C225.291 164 213.141 165.52 204.121 168.53C195.721 171.33 191.121 174.98 191.151 178.8C191.181 182.68 196.211 186.48 204.951 189.23C205.251 189.32 205.541 189.41 205.841 189.5C224.071 194.94 253.001 194.66 270.341 188.87C278.741 186.07 283.341 182.42 283.311 178.6C283.281 174.72 278.251 170.92 269.511 168.17C269.211 168.08 268.921 167.99 268.621 167.9C259.881 165.29 248.661 164 237.451 164Z" fill="black"/>
<path d="M334.451 205.01H290.601C290.441 205.01 290.311 204.88 290.311 204.72C290.311 204.56 290.441 204.43 290.601 204.43H334.171V174.14C334.171 174.06 334.201 173.99 334.251 173.94L352.401 155.79V103.11C352.401 102.95 352.531 102.82 352.691 102.82C352.851 102.82 352.981 102.95 352.981 103.11V155.91C352.981 155.99 352.951 156.06 352.901 156.11L334.751 174.26V204.72C334.751 204.88 334.621 205.01 334.461 205.01H334.451Z" fill="black"/>
<path d="M349.741 214.24H290.601C290.441 214.24 290.311 214.11 290.311 213.95C290.311 213.79 290.441 213.66 290.601 213.66H349.451V184.45C349.451 184.29 349.581 184.16 349.741 184.16C349.901 184.16 350.031 184.29 350.031 184.45V213.95C350.031 214.11 349.901 214.24 349.741 214.24Z" fill="black"/>
<path d="M324.45 195.72H290.59C290.43 195.72 290.3 195.59 290.3 195.43C290.3 195.27 290.43 195.14 290.59 195.14H324.16V102.32C324.16 102.16 324.29 102.03 324.45 102.03C324.61 102.03 324.74 102.16 324.74 102.32V195.43C324.74 195.59 324.61 195.72 324.45 195.72Z" fill="black"/>
<path d="M314.301 186.27H290.601C290.441 186.27 290.311 186.14 290.311 185.98C290.311 185.82 290.441 185.69 290.601 185.69H314.011V102.32C314.011 102.16 314.141 102.03 314.301 102.03C314.461 102.03 314.591 102.16 314.591 102.32V185.98C314.591 186.14 314.461 186.27 314.301 186.27Z" fill="black"/>
<path d="M251.12 158.81C250.96 158.81 250.83 158.68 250.83 158.52V142.49C250.83 142.33 250.96 142.2 251.12 142.2H303.2V102.32C303.2 102.16 303.33 102.03 303.49 102.03C303.65 102.03 303.78 102.16 303.78 102.32V142.49C303.78 142.65 303.65 142.78 303.49 142.78H251.41V158.52C251.41 158.68 251.28 158.81 251.12 158.81Z" fill="black"/>
<path d="M239.22 158.81C239.06 158.81 238.93 158.68 238.93 158.52V131.76C238.93 131.6 239.06 131.47 239.22 131.47H282.51V102.31C282.51 102.15 282.64 102.02 282.8 102.02C282.96 102.02 283.09 102.15 283.09 102.31V131.75C283.09 131.91 282.96 132.04 282.8 132.04H239.51V158.51C239.51 158.67 239.38 158.8 239.22 158.8V158.81Z" fill="black"/>
<path d="M349.74 184.57C351.535 184.57 352.99 183.115 352.99 181.32C352.99 179.525 351.535 178.07 349.74 178.07C347.945 178.07 346.49 179.525 346.49 181.32C346.49 183.115 347.945 184.57 349.74 184.57Z" fill="#492AB1"/>
<path d="M324.45 166.73C326.245 166.73 327.7 165.275 327.7 163.48C327.7 161.685 326.245 160.23 324.45 160.23C322.655 160.23 321.2 161.685 321.2 163.48C321.2 165.275 322.655 166.73 324.45 166.73Z" fill="#492AB1"/>
<path d="M353.923 124.759C355.581 124.072 356.369 122.171 355.682 120.513C354.995 118.854 353.094 118.067 351.436 118.754C349.777 119.441 348.99 121.342 349.677 123C350.364 124.658 352.265 125.446 353.923 124.759Z" fill="white"/>
<path d="M352.68 125.3C350.73 125.3 349.14 123.71 349.14 121.76C349.14 119.81 350.73 118.22 352.68 118.22C354.63 118.22 356.22 119.81 356.22 121.76C356.22 123.71 354.63 125.3 352.68 125.3ZM352.68 118.79C351.05 118.79 349.72 120.12 349.72 121.75C349.72 123.38 351.05 124.71 352.68 124.71C354.31 124.71 355.64 123.38 355.64 121.75C355.64 120.12 354.31 118.79 352.68 118.79Z" fill="black"/>
<path d="M303.49 145.75C305.285 145.75 306.74 144.295 306.74 142.5C306.74 140.705 305.285 139.25 303.49 139.25C301.695 139.25 300.24 140.705 300.24 142.5C300.24 144.295 301.695 145.75 303.49 145.75Z" fill="white"/>
<path d="M303.49 146.04C301.54 146.04 299.95 144.45 299.95 142.5C299.95 140.55 301.54 138.96 303.49 138.96C305.44 138.96 307.03 140.55 307.03 142.5C307.03 144.45 305.44 146.04 303.49 146.04ZM303.49 139.53C301.86 139.53 300.53 140.86 300.53 142.49C300.53 144.12 301.86 145.45 303.49 145.45C305.12 145.45 306.45 144.12 306.45 142.49C306.45 140.86 305.12 139.53 303.49 139.53Z" fill="black"/>
<path d="M282.8 120.68C284.595 120.68 286.05 119.225 286.05 117.43C286.05 115.635 284.595 114.18 282.8 114.18C281.005 114.18 279.55 115.635 279.55 117.43C279.55 119.225 281.005 120.68 282.8 120.68Z" fill="#492AB1"/>
<path d="M257.591 132.396C257.879 130.624 256.676 128.955 254.904 128.667C253.132 128.38 251.463 129.583 251.175 131.354C250.887 133.126 252.091 134.796 253.862 135.083C255.634 135.371 257.303 134.168 257.591 132.396Z" fill="white"/>
<path d="M254.37 135.41C252.42 135.41 250.83 133.82 250.83 131.87C250.83 129.92 252.42 128.33 254.37 128.33C256.32 128.33 257.91 129.92 257.91 131.87C257.91 133.82 256.32 135.41 254.37 135.41ZM254.37 128.9C252.74 128.9 251.41 130.23 251.41 131.86C251.41 133.49 252.74 134.82 254.37 134.82C256 134.82 257.33 133.49 257.33 131.86C257.33 130.23 256 128.9 254.37 128.9Z" fill="black"/>
<path d="M54.5303 82.9102C64.3223 82.9102 72.2603 75.9841 72.2603 67.4402C72.2603 58.8964 64.3223 51.9702 54.5303 51.9702C44.7383 51.9702 36.8003 58.8964 36.8003 67.4402C36.8003 75.9841 44.7383 82.9102 54.5303 82.9102Z" fill="white"/>
<path d="M54.5301 83.11C44.6401 83.11 36.6001 76.08 36.6001 67.44C36.6001 58.8 44.6401 51.77 54.5301 51.77C64.4201 51.77 72.4601 58.8 72.4601 67.44C72.4601 76.08 64.4201 83.11 54.5301 83.11ZM54.5301 52.18C44.8701 52.18 37.0101 59.03 37.0101 67.44C37.0101 75.85 44.8701 82.7 54.5301 82.7C64.1901 82.7 72.0501 75.85 72.0501 67.44C72.0501 59.03 64.1901 52.18 54.5301 52.18Z" fill="black"/>
<path d="M69.8303 59.8301C67.5103 59.3401 64.0503 58.9801 59.3203 59.4101C53.3903 59.9601 48.6703 64.6701 48.1203 70.5901C47.8903 73.0101 47.8103 75.8801 48.0003 79.1901C48.4103 86.2801 53.7503 92.1401 60.7903 93.1201C62.5703 93.3701 64.6103 93.5501 66.9503 93.6201C70.7603 93.7401 74.0503 90.9601 74.5403 87.1801C75.2903 81.5101 75.8503 72.8101 74.1603 64.1901C73.7303 62.0001 72.0103 60.2901 69.8303 59.8301Z" fill="white"/>
<path d="M67.1801 93.8303C67.1001 93.8303 67.0201 93.8303 66.9301 93.8303C64.7201 93.7603 62.6401 93.5903 60.7501 93.3303C53.6601 92.3403 48.2101 86.4003 47.7901 79.2103C47.6101 76.2003 47.6501 73.3003 47.9101 70.5703C48.4701 64.5403 53.2601 59.7603 59.3001 59.2003C63.2601 58.8403 66.8101 58.9803 69.8701 59.6203C72.1501 60.1003 73.9201 61.8803 74.3601 64.1403C76.0501 72.7503 75.5001 81.4303 74.7401 87.2003C74.2401 91.0203 71.0101 93.8303 67.1801 93.8303ZM63.4201 59.4203C62.1101 59.4203 60.7501 59.4903 59.3301 59.6203C53.4901 60.1603 48.8601 64.7803 48.3201 70.6103C48.0701 73.3103 48.0301 76.2003 48.2001 79.1803C48.6101 86.1803 53.9101 91.9503 60.8101 92.9203C62.6801 93.1803 64.7501 93.3503 66.9501 93.4203C70.6701 93.5403 73.8501 90.8403 74.3301 87.1603C75.0801 81.4203 75.6301 72.7803 73.9501 64.2303C73.5401 62.1303 71.9001 60.4803 69.7801 60.0303C67.8601 59.6303 65.7301 59.4203 63.4201 59.4203Z" fill="black"/>
<path d="M46.6199 86.46H51.8599C54.3783 86.46 56.4199 84.4184 56.4199 81.9V72.41C56.4199 69.8915 54.3783 67.85 51.8599 67.85H46.6199C44.1015 67.85 42.0599 69.8915 42.0599 72.41V81.9C42.0599 84.4184 44.1015 86.46 46.6199 86.46Z" fill="#FFC136"/>
<path d="M9.78035 152.31L36.8004 120.92L29.8104 111.6C27.5303 108.56 23.0804 108.28 20.4204 110.99C13.9204 117.63 3.39035 130.41 0.860352 145.68L9.77035 152.3L9.78035 152.31Z" fill="white"/>
<path d="M9.78035 152.51C9.78035 152.51 9.69035 152.5 9.66035 152.47L0.750352 145.85C0.690352 145.8 0.660352 145.73 0.670352 145.65C3.24035 130.17 14.0604 117.2 20.2904 110.84C21.6004 109.5 23.4304 108.8 25.3004 108.93C27.1604 109.05 28.8704 109.98 29.9904 111.47L36.9804 120.79C37.0404 120.87 37.0303 120.98 36.9804 121.05L9.96035 152.44C9.96035 152.44 9.86035 152.51 9.80035 152.51H9.78035ZM1.09035 145.6L9.75035 152.03L36.5404 120.92L29.6504 111.73C28.6004 110.33 27.0004 109.47 25.2604 109.35C23.5104 109.23 21.8004 109.89 20.5804 111.14C14.4104 117.44 3.68035 130.29 1.09035 145.6Z" fill="black"/>
<path d="M116.72 137.61C116.72 137.61 98.3404 113.33 86.7504 107.7C86.7504 107.7 82.2004 104.38 76.4004 115.95V123.72C76.4004 123.72 96.5604 150.77 109.92 152.89L116.73 137.6L116.72 137.61Z" fill="white"/>
<path d="M109.91 153.11C109.91 153.11 109.89 153.11 109.88 153.11C104.3 152.22 96.9302 147.03 87.9902 137.67C81.3502 130.71 76.2702 123.93 76.2202 123.86C76.1902 123.82 76.1802 123.78 76.1802 123.74V115.97C76.1802 115.97 76.1802 115.91 76.2002 115.88C79.4002 109.5 82.2402 107.64 84.0702 107.2C85.6902 106.81 86.7002 107.44 86.8502 107.54C98.3602 113.14 116.7 137.26 116.88 137.5C116.93 137.56 116.93 137.64 116.9 137.71L110.09 153C110.06 153.08 109.98 153.12 109.9 153.12L109.91 153.11ZM76.5902 123.66C77.6102 125.02 96.9402 150.45 109.78 152.67L116.47 137.64C115.18 135.96 97.6902 113.26 86.6502 107.89C86.6402 107.89 86.6302 107.88 86.6202 107.87C86.5802 107.84 85.6802 107.21 84.1502 107.59C82.4202 108.02 79.7002 109.83 76.6002 116.01V123.66H76.5902Z" fill="black"/>
<path d="M121.94 148.158C123.3 143.671 120.764 138.931 116.276 137.572C111.788 136.213 107.049 138.749 105.689 143.236C104.33 147.724 106.866 152.464 111.354 153.823C115.842 155.182 120.581 152.646 121.94 148.158Z" fill="#FFC136"/>
<path d="M131.16 109.98L124.38 144.43C123.82 147.29 120.91 149.05 118.11 148.22L110.39 145.93C107.6 145.1 106.12 142.06 107.2 139.35L120.17 106.73C121.31 103.85 124.55 102.42 127.45 103.5L127.57 103.54C130.18 104.52 131.7 107.24 131.16 109.97V109.98Z" fill="white"/>
<path d="M119.52 148.63C119.03 148.63 118.53 148.56 118.05 148.42L110.33 146.13C108.94 145.72 107.79 144.74 107.16 143.44C106.53 142.14 106.47 140.62 107.01 139.28L119.98 106.66C121.16 103.7 124.54 102.2 127.53 103.32L127.65 103.36C130.36 104.38 131.93 107.18 131.37 110.02L124.59 144.47C124.31 145.89 123.44 147.14 122.2 147.89C121.39 148.38 120.46 148.63 119.53 148.63H119.52ZM125.49 103.36C123.3 103.36 121.22 104.68 120.37 106.81L107.4 139.43C106.91 140.67 106.96 142.06 107.54 143.26C108.12 144.46 109.18 145.36 110.46 145.74L118.18 148.03C119.46 148.41 120.85 148.23 121.99 147.54C123.13 146.85 123.93 145.7 124.19 144.4L130.97 109.95C131.49 107.3 130.04 104.7 127.51 103.76L127.39 103.72C126.77 103.49 126.13 103.38 125.49 103.38V103.36Z" fill="black"/>
<path d="M126.39 113.05C125.8 113.05 125.21 112.97 124.64 112.82C122.57 112.25 120.83 110.64 120.09 108.62C120.05 108.51 120.11 108.39 120.21 108.36C120.32 108.32 120.44 108.38 120.47 108.48C121.16 110.37 122.79 111.88 124.74 112.42C126.68 112.95 128.86 112.49 130.42 111.22C130.51 111.15 130.64 111.16 130.71 111.25C130.78 111.34 130.77 111.47 130.68 111.54C129.48 112.52 127.93 113.05 126.38 113.05H126.39Z" fill="black"/>
<path d="M142.79 82.8102C142.79 82.8102 142.74 87.8002 141.17 93.9302C139.83 99.1502 134.81 102.59 129.47 101.83C128.7 101.72 127.9 101.58 127.07 101.39C122.2 100.28 119.18 95.4002 120.33 90.5402C121.69 84.7402 123.37 77.4902 123.51 76.2002L129.98 78.8802L142.8 82.8202L142.79 82.8102Z" fill="white"/>
<path d="M130.95 102.14C130.45 102.14 129.95 102.1 129.44 102.03C128.63 101.92 127.82 101.76 127.02 101.58C124.62 101.03 122.58 99.58 121.28 97.49C119.97 95.39 119.56 92.9001 120.13 90.4801C121.5 84.6501 123.16 77.44 123.3 76.17C123.3 76.11 123.34 76.05 123.4 76.01C123.46 75.98 123.52 75.97 123.58 76L130.05 78.68L142.85 82.61C142.94 82.64 143 82.72 143 82.81C143 82.86 142.93 87.89 141.37 93.98C140.12 98.84 135.8 102.14 130.96 102.14H130.95ZM123.67 76.49C123.38 78.31 121.82 85.07 120.53 90.58C119.99 92.89 120.38 95.26 121.63 97.27C122.88 99.27 124.82 100.66 127.12 101.18C127.91 101.36 128.71 101.51 129.5 101.62C134.72 102.36 139.64 99.03 140.97 93.87C142.36 88.43 142.56 83.84 142.58 82.96L129.91 79.07L123.67 76.49Z" fill="black"/>
<path d="M138.36 91.0401L139.81 91.4601C140.5 91.6601 141.23 91.2701 141.44 90.5701L143.51 83.5301L139.55 82.3701L137.48 89.4101C137.28 90.1001 137.67 90.8301 138.37 91.0401H138.36Z" fill="white"/>
<path d="M140.18 91.7303C140.04 91.7303 139.9 91.7103 139.75 91.6703L138.3 91.2403C137.91 91.1303 137.59 90.8703 137.4 90.5103C137.21 90.1503 137.16 89.7403 137.28 89.3603L139.35 82.3203C139.37 82.2703 139.4 82.2203 139.45 82.2003C139.5 82.1703 139.55 82.1703 139.61 82.1803L143.57 83.3403C143.68 83.3703 143.74 83.4903 143.71 83.6003L141.64 90.6403C141.45 91.3003 140.84 91.7303 140.18 91.7303ZM139.68 82.6303L137.67 89.4703C137.59 89.7503 137.62 90.0503 137.76 90.3103C137.9 90.5703 138.14 90.7603 138.42 90.8403L139.87 91.2703C140.45 91.4403 141.07 91.1103 141.24 90.5203L143.25 83.6803L139.68 82.6303Z" fill="black"/>
<path d="M139.17 81.6501C138.76 83.0401 139.56 84.5001 140.95 84.9101C142.34 85.3201 143.8 84.5201 144.21 83.1301C144.62 81.7401 143.82 80.2801 142.43 79.8701C141.04 79.4601 139.58 80.2601 139.17 81.6501Z" fill="white"/>
<path d="M141.69 85.2201C141.43 85.2201 141.16 85.1801 140.89 85.1101C140.16 84.9001 139.56 84.4101 139.2 83.7501C138.84 83.0901 138.76 82.3201 138.97 81.6001C139.41 80.1001 140.99 79.2401 142.48 79.6801C143.98 80.1201 144.84 81.7001 144.4 83.1901C144.04 84.4201 142.91 85.2201 141.68 85.2201H141.69ZM141.69 79.9701C141.29 79.9701 140.89 80.0701 140.53 80.2701C139.96 80.5801 139.55 81.0901 139.37 81.7101C139.19 82.3301 139.26 82.9801 139.57 83.5501C139.88 84.1201 140.39 84.5301 141.01 84.7101C141.63 84.8901 142.28 84.8201 142.85 84.5101C143.42 84.2001 143.83 83.6901 144.01 83.0701C144.19 82.4501 144.12 81.8001 143.81 81.2301C143.5 80.6601 142.99 80.2501 142.37 80.0701C142.14 80.0001 141.91 79.9701 141.69 79.9701Z" fill="black"/>
<path d="M134.356 89.8751L132.907 89.4498C132.216 89.247 131.816 88.5147 132.019 87.8239L134.084 80.7907L138.046 81.954L135.982 88.9872C135.779 89.678 135.047 90.078 134.356 89.8751Z" fill="white"/>
<path d="M134.73 90.1302C134.59 90.1302 134.45 90.1102 134.3 90.0702L132.85 89.6502C132.46 89.5402 132.14 89.2802 131.95 88.9202C131.76 88.5602 131.71 88.1502 131.83 87.7702L133.9 80.7302C133.93 80.6202 134.05 80.5602 134.16 80.5902L138.12 81.7502C138.17 81.7702 138.22 81.8002 138.24 81.8502C138.27 81.9002 138.27 81.9502 138.26 82.0102L136.19 89.0502C136 89.7102 135.39 90.1402 134.73 90.1402V90.1302ZM134.23 81.0302L132.22 87.8702C132.14 88.1502 132.17 88.4502 132.31 88.7102C132.45 88.9702 132.69 89.1602 132.97 89.2402L134.42 89.6602C135 89.8302 135.62 89.5002 135.79 88.9102L137.8 82.0702L134.23 81.0202V81.0302Z" fill="black"/>
<path d="M133.72 80.05C133.31 81.44 134.11 82.9 135.5 83.31C136.89 83.72 138.35 82.92 138.76 81.53C139.17 80.14 138.37 78.68 136.98 78.27C135.59 77.86 134.13 78.66 133.72 80.05Z" fill="white"/>
<path d="M136.24 83.6202C135.97 83.6202 135.7 83.5802 135.44 83.5002C134.71 83.2902 134.11 82.8002 133.75 82.1402C133.39 81.4802 133.31 80.7102 133.52 79.9902C133.96 78.4902 135.54 77.6302 137.03 78.0702C137.76 78.2802 138.36 78.7702 138.72 79.4302C139.08 80.0902 139.16 80.8602 138.95 81.5802C138.74 82.3102 138.25 82.9102 137.59 83.2702C137.17 83.5002 136.7 83.6202 136.24 83.6202ZM133.92 80.1102C133.74 80.7302 133.81 81.3802 134.12 81.9502C134.43 82.5202 134.94 82.9302 135.56 83.1102C136.18 83.2902 136.83 83.2202 137.4 82.9102C137.97 82.6002 138.38 82.0902 138.56 81.4702C138.74 80.8502 138.67 80.2002 138.36 79.6302C138.05 79.0602 137.54 78.6502 136.92 78.4702C135.64 78.0902 134.29 78.8302 133.92 80.1102Z" fill="black"/>
<path d="M129.33 64.9501L128.92 64.8101C127.95 64.4901 126.91 65.0201 126.59 65.9901L123.34 77.0501L127.26 78.3401L130.51 67.2801C130.83 66.3101 130.3 65.2701 129.33 64.9501Z" fill="white"/>
<path d="M127.26 78.5501C127.26 78.5501 127.22 78.5501 127.2 78.5401L123.28 77.2501C123.17 77.2201 123.12 77.1001 123.15 77.0001L126.4 65.9401C126.76 64.8601 127.92 64.2701 128.99 64.6301L129.4 64.7701C130.48 65.1201 131.06 66.2901 130.71 67.3601L127.46 78.4101C127.44 78.4601 127.41 78.5101 127.36 78.5301C127.33 78.5501 127.3 78.5501 127.26 78.5501ZM123.59 76.9101L127.12 78.0701L130.31 67.2101C130.59 66.3401 130.13 65.4201 129.27 65.1301L128.86 64.9901C128 64.7101 127.07 65.1801 126.79 66.0301L123.6 76.8901L123.59 76.9101Z" fill="black"/>
<path d="M128.904 88.2653L127.455 87.84C126.764 87.6372 126.365 86.9049 126.567 86.214L128.632 79.1808L132.595 80.3441L130.53 87.3773C130.327 88.0682 129.595 88.4681 128.904 88.2653Z" fill="white"/>
<path d="M129.28 88.5201C129.14 88.5201 129 88.5001 128.85 88.4601L127.4 88.0401C126.6 87.8001 126.14 86.9601 126.37 86.1601L128.44 79.1201C128.46 79.0701 128.49 79.0201 128.54 79.0001C128.59 78.9701 128.64 78.9701 128.7 78.9801L132.66 80.1401C132.77 80.1701 132.83 80.2901 132.8 80.4001L130.73 87.4401C130.54 88.1001 129.93 88.5301 129.27 88.5301L129.28 88.5201ZM128.78 79.4301L126.77 86.2701C126.69 86.5501 126.72 86.8501 126.86 87.1101C127 87.3701 127.24 87.5601 127.52 87.6401L128.97 88.0601C129.55 88.2301 130.17 87.9001 130.34 87.3101L132.35 80.4701L128.78 79.4201V79.4301Z" fill="black"/>
<path d="M128.27 78.4499C127.86 79.8399 128.66 81.2999 130.05 81.7099C131.44 82.1199 132.9 81.3199 133.31 79.9299C133.72 78.5399 132.92 77.0799 131.53 76.6699C130.14 76.2599 128.68 77.0599 128.27 78.4499Z" fill="white"/>
<path d="M130.79 82.02C130.52 82.02 130.25 81.98 129.99 81.9C128.49 81.46 127.63 79.88 128.07 78.39C128.28 77.66 128.77 77.06 129.43 76.7C130.09 76.34 130.86 76.26 131.58 76.47C133.08 76.91 133.94 78.49 133.5 79.98C133.29 80.71 132.8 81.31 132.14 81.67C131.72 81.9 131.25 82.02 130.79 82.02ZM130.78 76.77C130.38 76.77 129.98 76.87 129.62 77.07C129.05 77.38 128.64 77.89 128.46 78.51C128.28 79.13 128.35 79.78 128.66 80.35C128.97 80.92 129.48 81.33 130.1 81.51C130.72 81.69 131.37 81.62 131.94 81.31C132.51 81 132.92 80.49 133.1 79.87C133.48 78.59 132.74 77.24 131.46 76.87C131.23 76.8 131 76.77 130.78 76.77Z" fill="black"/>
<path d="M122.78 76.9504C122.37 78.3404 123.17 79.8004 124.56 80.2104C125.95 80.6204 127.41 79.8204 127.82 78.4304C128.23 77.0404 127.43 75.5804 126.04 75.1704C124.65 74.7604 123.19 75.5604 122.78 76.9504Z" fill="white"/>
<path d="M125.3 80.5303C125.03 80.5303 124.76 80.4903 124.5 80.4103C123.77 80.2003 123.17 79.7103 122.81 79.0503C122.45 78.3903 122.37 77.6203 122.58 76.9003C122.79 76.1703 123.28 75.5803 123.94 75.2103C124.6 74.8503 125.37 74.7703 126.09 74.9803C127.59 75.4203 128.45 77.0002 128.01 78.4902C127.8 79.2202 127.31 79.8203 126.65 80.1803C126.23 80.4103 125.76 80.5303 125.3 80.5303ZM125.3 75.2702C124.9 75.2702 124.5 75.3703 124.14 75.5703C123.57 75.8803 123.16 76.3903 122.98 77.0103C122.8 77.6303 122.87 78.2803 123.18 78.8503C123.49 79.4202 124 79.8303 124.62 80.0103C125.24 80.1903 125.89 80.1202 126.46 79.8102C127.03 79.5002 127.44 78.9903 127.62 78.3703C128 77.0903 127.26 75.7403 125.98 75.3703C125.75 75.3003 125.52 75.2702 125.3 75.2702Z" fill="black"/>
<path d="M123.09 85.0599C122.98 85.0599 122.88 84.9699 122.88 84.8499C122.88 84.7399 122.97 84.6399 123.09 84.6399L126.8 84.6099C126.91 84.6099 127.01 84.6999 127.01 84.8199C127.01 84.9299 126.92 85.0299 126.8 85.0299L123.09 85.0599Z" fill="black"/>
<path d="M131.22 84.8901C131.7 84.9901 132.18 85.0801 132.67 85.1801L131.22 84.8901Z" fill="white"/>
<path d="M132.67 85.3902C132.67 85.3902 132.64 85.3902 132.63 85.3902L131.18 85.1002C131.07 85.0802 131 84.9702 131.02 84.8602C131.04 84.7502 131.15 84.6702 131.26 84.7002L132.71 84.9902C132.82 85.0102 132.89 85.1202 132.87 85.2302C132.85 85.3302 132.76 85.4002 132.67 85.4002V85.3902Z" fill="black"/>
<path d="M123.68 92.4201C123.6 92.4201 123.53 92.3801 123.49 92.3001C123.44 92.2001 123.49 92.0701 123.59 92.0201C125.13 91.2701 126.51 90.2701 127.7 89.0301C127.76 88.9701 127.85 88.9501 127.92 88.9801C128.73 89.2901 129.56 89.6101 130.42 89.7301C131.08 89.8201 132.04 89.8201 132.86 89.3201C132.96 89.2601 133.08 89.2901 133.14 89.3901C133.2 89.4901 133.17 89.6101 133.07 89.6701C132.15 90.2401 131.09 90.2401 130.36 90.1401C129.5 90.0201 128.68 89.7201 127.89 89.4201C126.69 90.6501 125.3 91.6501 123.76 92.3901C123.73 92.4001 123.7 92.4101 123.67 92.4101L123.68 92.4201Z" fill="black"/>
<path d="M47.6501 103.13H59.8501C60.8055 103.13 61.5801 102.356 61.5801 101.4V97.5704C61.5801 96.6149 60.8055 95.8404 59.8501 95.8404H47.6501C46.6946 95.8404 45.9201 96.6149 45.9201 97.5704V101.4C45.9201 102.356 46.6946 103.13 47.6501 103.13Z" fill="white"/>
<path d="M59.8502 103.34H47.6602C46.5902 103.34 45.7202 102.47 45.7202 101.4V97.5801C45.7202 96.5101 46.5902 95.6401 47.6602 95.6401H59.8502C60.9202 95.6401 61.7902 96.5101 61.7902 97.5801V101.4C61.7902 102.47 60.9202 103.34 59.8502 103.34ZM47.6502 96.0501C46.8102 96.0501 46.1202 96.7301 46.1202 97.5801V101.4C46.1202 102.24 46.8002 102.93 47.6502 102.93H59.8402C60.6802 102.93 61.3702 102.25 61.3702 101.4V97.5801C61.3702 96.7401 60.6902 96.0501 59.8402 96.0501H47.6502Z" fill="black"/>
<path d="M35.0399 105.061H75.4999C80.1599 105.061 83.8099 109.081 83.3499 113.721L79.3699 153.811C78.9599 157.991 75.4399 161.171 71.2399 161.171H39.2899C35.0899 161.171 31.5799 157.991 31.1599 153.811L27.1799 113.721C26.7199 109.081 30.3599 105.061 35.0299 105.061H35.0399Z" fill="white"/>
<path d="M71.25 161.39H39.3C34.98 161.39 31.39 158.15 30.97 153.84L26.99 113.75C26.76 111.48 27.51 109.21 29.05 107.52C30.58 105.83 32.77 104.86 35.05 104.86H75.51C77.79 104.86 79.98 105.83 81.51 107.52C83.04 109.21 83.79 111.48 83.57 113.75L79.59 153.84C79.16 158.14 75.58 161.39 71.26 161.39H71.25ZM35.04 105.27C32.88 105.27 30.8 106.19 29.35 107.79C27.9 109.39 27.19 111.55 27.4 113.7L31.38 153.79C31.79 157.88 35.19 160.97 39.3 160.97H71.25C75.36 160.97 78.77 157.89 79.17 153.79L83.15 113.7C83.36 111.55 82.65 109.39 81.2 107.79C79.75 106.19 77.67 105.27 75.51 105.27H35.05H35.04Z" fill="black"/>
<path d="M12.5465 148.365C12.9717 144.911 10.517 141.767 7.06369 141.342C3.61038 140.917 0.466193 143.372 0.0409557 146.825C-0.384281 150.278 2.07046 153.422 5.52377 153.848C8.97708 154.273 12.1213 151.818 12.5465 148.365Z" fill="#FFC136"/>
<path d="M51.0299 146.58C51.0299 146.58 25.9199 142.92 10.9199 144.43C8.36992 144.69 6.25992 146.51 5.65992 149C5.40992 150.01 5.19992 151.16 5.06992 152.4C4.69992 156.06 7.08992 159.44 10.6599 160.29C19.1299 162.31 36.2499 165.06 49.3799 158.5L51.0199 146.58H51.0299Z" fill="white"/>
<path d="M29.42 162.84C22.1 162.84 15.2701 161.6 10.62 160.49C6.96005 159.62 4.49005 156.13 4.87005 152.38C4.98005 151.25 5.18005 150.1 5.46005 148.95C6.09005 146.38 8.27005 144.48 10.9 144.22C25.75 142.73 50.8101 146.34 51.0601 146.37C51.1701 146.39 51.25 146.49 51.23 146.6L49.59 158.52C49.59 158.59 49.5401 158.65 49.48 158.68C43.2401 161.8 36.12 162.83 29.42 162.83V162.84ZM19.25 144.27C16.3 144.27 13.47 144.38 10.94 144.63C8.48005 144.88 6.44005 146.65 5.86005 149.05C5.58005 150.18 5.39005 151.31 5.28005 152.42C4.92005 155.97 7.26005 159.26 10.7201 160.09C19.5501 162.2 36.2701 164.77 49.21 158.36L50.8101 146.75C48.82 146.47 32.75 144.27 19.26 144.27H19.25Z" fill="black"/>
<path d="M35.0503 176.89H80.2703L94.6103 128.78H49.3903L35.0503 176.89Z" fill="#492AB1"/>
<path d="M55.8902 151.35L56.0002 150.85C56.2202 149.87 55.6002 148.91 54.6302 148.69L44.3502 146.4L43.4502 150.43L53.7302 152.72C54.7102 152.94 55.6702 152.32 55.8902 151.35Z" fill="white"/>
<path d="M42.7402 150.85C44.1502 151.17 45.5602 150.28 45.8702 148.86C46.1902 147.45 45.3002 146.04 43.8802 145.73C42.4702 145.41 41.0602 146.3 40.7502 147.72C40.4302 149.13 41.3202 150.54 42.7402 150.85Z" fill="white"/>
<path d="M43.3203 151.12C43.1103 151.12 42.9003 151.1 42.7003 151.05C41.1803 150.71 40.2103 149.19 40.5603 147.67C40.9003 146.15 42.4203 145.18 43.9403 145.52C44.6803 145.69 45.3103 146.13 45.7103 146.77C46.1103 147.41 46.2503 148.17 46.0803 148.9C45.9203 149.64 45.4703 150.27 44.8303 150.67C44.3703 150.96 43.8503 151.11 43.3203 151.11V151.12ZM42.7903 150.65C43.4203 150.79 44.0703 150.68 44.6103 150.33C45.1603 149.98 45.5303 149.45 45.6703 148.82C45.8103 148.19 45.7003 147.54 45.3503 147C45.0003 146.45 44.4703 146.08 43.8403 145.94C42.5403 145.65 41.2403 146.47 40.9503 147.77C40.6603 149.07 41.4803 150.37 42.7803 150.66L42.7903 150.65Z" fill="black"/>
<path d="M52.8704 156.5L52.9804 156C53.2004 155.02 52.5805 154.06 51.6105 153.84L43.1105 151.94L42.2104 155.97L50.7104 157.87C51.6904 158.09 52.6504 157.47 52.8704 156.5Z" fill="white"/>
<path d="M41.5005 156.39C42.9105 156.71 44.3205 155.82 44.6305 154.4C44.9505 152.99 44.0605 151.58 42.6405 151.27C41.2305 150.95 39.8205 151.84 39.5105 153.26C39.1905 154.67 40.0805 156.08 41.5005 156.39Z" fill="white"/>
<path d="M42.0803 156.66C41.8803 156.66 41.6703 156.64 41.4603 156.59C40.7203 156.43 40.0903 155.98 39.6903 155.34C39.2803 154.7 39.1503 153.94 39.3203 153.21C39.4803 152.47 39.9303 151.84 40.5703 151.44C41.2103 151.03 41.9703 150.9 42.7003 151.07C44.2203 151.41 45.1903 152.93 44.8403 154.45C44.5503 155.77 43.3703 156.66 42.0803 156.66ZM41.5503 156.19C42.8503 156.48 44.1503 155.66 44.4403 154.36C44.7303 153.06 43.9103 151.76 42.6103 151.47C41.9803 151.33 41.3303 151.44 40.7903 151.79C40.2403 152.14 39.8703 152.67 39.7303 153.3C39.5903 153.93 39.7003 154.58 40.0503 155.12C40.4003 155.67 40.9303 156.04 41.5603 156.18L41.5503 156.19Z" fill="black"/>
<path d="M55.3202 145.4L55.4302 144.9C55.6502 143.92 55.0302 142.96 54.0602 142.74L45.5602 140.84L44.6602 144.87L53.1602 146.77C54.1402 146.99 55.1002 146.37 55.3202 145.4Z" fill="white"/>
<path d="M43.9502 145.29C45.3602 145.61 46.7702 144.72 47.0802 143.3C47.4002 141.89 46.5102 140.48 45.0902 140.17C43.6802 139.85 42.2702 140.74 41.9602 142.16C41.6402 143.57 42.5302 144.98 43.9502 145.29Z" fill="white"/>
<path d="M44.5302 145.56C44.3302 145.56 44.1202 145.54 43.9102 145.49C43.1702 145.33 42.5402 144.88 42.1402 144.24C41.7402 143.6 41.6002 142.84 41.7702 142.11C41.9302 141.37 42.3802 140.74 43.0202 140.34C43.6602 139.93 44.4202 139.8 45.1502 139.97C45.8902 140.13 46.5202 140.58 46.9202 141.22C47.3302 141.86 47.4602 142.62 47.2902 143.35C47.0002 144.67 45.8202 145.56 44.5302 145.56ZM44.5202 140.31C44.0702 140.31 43.6202 140.44 43.2302 140.69C42.6802 141.04 42.3102 141.57 42.1702 142.2C42.0302 142.83 42.1402 143.48 42.4902 144.02C42.8402 144.57 43.3702 144.94 44.0002 145.08C45.3002 145.37 46.6002 144.55 46.8902 143.25C47.0302 142.62 46.9202 141.97 46.5702 141.43C46.2202 140.88 45.6902 140.51 45.0602 140.37C44.8802 140.33 44.7002 140.31 44.5302 140.31H44.5202Z" fill="black"/>
<path d="M50.0187 160.652L49.689 162.126C49.5319 162.828 48.8273 163.275 48.1247 163.118L40.9715 161.518L41.8731 157.487L49.0263 159.088C49.7289 159.245 50.1759 159.949 50.0187 160.652Z" fill="white"/>
<path d="M40.2602 161.94C41.6702 162.26 43.0802 161.37 43.3902 159.95C43.7102 158.54 42.8202 157.13 41.4002 156.82C39.9902 156.5 38.5802 157.39 38.2702 158.81C37.9502 160.22 38.8402 161.63 40.2602 161.94Z" fill="white"/>
<path d="M40.8404 162.21C40.6304 162.21 40.4204 162.19 40.2204 162.14C38.7004 161.8 37.7304 160.28 38.0704 158.76C38.4104 157.24 39.9304 156.27 41.4504 156.61C42.1904 156.77 42.8204 157.22 43.2204 157.86C43.6304 158.5 43.7604 159.26 43.5904 159.99C43.4304 160.73 42.9804 161.36 42.3404 161.76C41.8804 162.05 41.3604 162.2 40.8304 162.2L40.8404 162.21ZM40.3104 161.74C40.9404 161.88 41.5904 161.77 42.1304 161.42C42.6804 161.07 43.0504 160.54 43.1904 159.91C43.3304 159.28 43.2204 158.63 42.8704 158.09C42.5204 157.54 41.9904 157.17 41.3604 157.03C40.0604 156.74 38.7604 157.56 38.4704 158.86C38.1804 160.16 39.0004 161.46 40.3004 161.75L40.3104 161.74Z" fill="black"/>
</g>
<defs>
<clipPath id="clip0_1517_9019">
<rect width="366.1" height="239.55" fill="white"/>
</clipPath>
</defs>
</svg>
