<svg width="382" height="255" viewBox="0 0 382 255" fill="none" xmlns="http://www.w3.org/2000/svg">
<g clip-path="url(#clip0_1517_8613)">
<path d="M348.106 111.555H222.942V211.048H348.106V111.555Z" fill="#FFC136"/>
<path d="M336.088 127.895H277.501C277.252 127.895 277.038 127.692 277.038 127.432C277.038 127.173 277.241 126.97 277.501 126.97H336.088C336.336 126.97 336.551 127.173 336.551 127.432C336.551 127.692 336.348 127.895 336.088 127.895Z" fill="white"/>
<path d="M336.088 140.217H277.501C277.252 140.217 277.038 140.014 277.038 139.755C277.038 139.495 277.241 139.292 277.501 139.292H336.088C336.336 139.292 336.551 139.495 336.551 139.755C336.551 140.014 336.348 140.217 336.088 140.217Z" fill="white"/>
<path d="M336.088 152.54H277.501C277.252 152.54 277.038 152.336 277.038 152.077C277.038 151.817 277.241 151.614 277.501 151.614H336.088C336.336 151.614 336.551 151.817 336.551 152.077C336.551 152.336 336.348 152.54 336.088 152.54Z" fill="white"/>
<path d="M252.969 139.754V121.643C243.028 121.643 234.971 129.756 234.971 139.754C234.971 149.752 243.028 157.865 252.969 157.865C262.911 157.865 270.968 149.752 270.968 139.754C270.968 136.73 270.234 133.875 268.925 131.37L252.969 139.754Z" fill="white"/>
<path d="M268.936 131.371L252.98 121.632C243.039 121.632 234.982 129.746 234.982 139.743C234.982 149.741 243.039 157.855 252.98 157.855C262.922 157.855 270.978 149.741 270.978 139.743C270.978 136.719 270.245 133.864 268.936 131.359V131.371Z" fill="white"/>
<path d="M268.936 131.371C265.935 125.582 259.909 121.632 252.98 121.632V139.743L268.936 131.359V131.371Z" fill="#492AB1"/>
<path d="M259.652 145.213C262.678 141.521 262.138 136.075 258.446 133.048C254.754 130.022 249.308 130.562 246.282 134.254C243.255 137.946 243.795 143.392 247.487 146.418C251.179 149.445 256.625 148.905 259.652 145.213Z" fill="#FFC136"/>
<path d="M260.958 126.812C260.789 126.812 260.654 126.676 260.654 126.507V106.748C260.654 106.669 260.688 106.59 260.744 106.534L266.871 100.407V87.4751C266.871 87.3058 267.007 87.1704 267.176 87.1704C267.345 87.1704 267.481 87.3058 267.481 87.4751V100.531C267.481 100.61 267.447 100.689 267.39 100.745L261.263 106.873V126.507C261.263 126.676 261.128 126.812 260.958 126.812Z" fill="#492AB1"/>
<path d="M200.96 148.037C200.791 148.037 200.656 147.901 200.656 147.732V124.216C200.656 124.137 200.69 124.058 200.746 124.002L222.491 102.257V87.4634C222.491 87.2941 222.626 87.1587 222.795 87.1587C222.965 87.1587 223.1 87.2941 223.1 87.4634V102.381C223.1 102.46 223.066 102.539 223.01 102.595L201.265 124.34V147.732C201.265 147.901 201.13 148.037 200.96 148.037Z" fill="#492AB1"/>
<path d="M201.908 116.373C201.829 116.373 201.75 116.34 201.694 116.283C201.57 116.159 201.57 115.967 201.694 115.854L218.541 99.007V87.4746C218.541 87.3053 218.676 87.1699 218.846 87.1699C219.015 87.1699 219.15 87.3053 219.15 87.4746V99.1312C219.15 99.2101 219.116 99.2891 219.06 99.3456L202.122 116.283C202.066 116.34 201.987 116.373 201.908 116.373Z" fill="#492AB1"/>
<path d="M358.115 172.908H277.501V179.374H358.115V172.908Z" fill="#492AB1"/>
<path d="M358.115 184.688H277.501V191.154H358.115V184.688Z" fill="#492AB1"/>
<path d="M358.115 196.48H277.501V202.946H358.115V196.48Z" fill="#492AB1"/>
<path d="M381.586 176.451H361.5C361.331 176.451 361.196 176.315 361.196 176.146C361.196 175.977 361.331 175.841 361.5 175.841H381.281V79.1246L368.643 66.4863H343.705C343.536 66.4863 343.4 66.3509 343.4 66.1816C343.4 66.0124 343.536 65.877 343.705 65.877H368.767C368.846 65.877 368.925 65.9108 368.982 65.9672L381.8 78.7861C381.857 78.8425 381.891 78.9215 381.891 79.0005V176.146C381.891 176.315 381.755 176.451 381.586 176.451Z" fill="#492AB1"/>
<path d="M114.579 231.134H48.4993C48.4203 231.134 48.3413 231.1 48.2849 231.044L27.3076 210.067C27.2511 210.01 27.2173 209.931 27.2173 209.852V160.495C27.2173 160.326 27.3527 160.19 27.522 160.19C27.6912 160.19 27.8266 160.326 27.8266 160.495V209.728L48.6234 230.525H114.579C114.749 230.525 114.884 230.66 114.884 230.829C114.884 230.999 114.749 231.134 114.579 231.134Z" fill="#492AB1"/>
<path d="M85.1396 239.394H45.4306C45.3516 239.394 45.2726 239.36 45.2162 239.303L21.3276 215.415C21.2712 215.358 21.2373 215.279 21.2373 215.2V160.506C21.2373 160.337 21.3727 160.201 21.542 160.201C21.7112 160.201 21.8467 160.337 21.8467 160.506V215.076L45.5547 238.784H85.1396C85.3089 238.784 85.4443 238.92 85.4443 239.089C85.4443 239.258 85.3089 239.394 85.1396 239.394Z" fill="#492AB1"/>
<path d="M82.5894 239.089C82.5894 237.678 83.7291 236.539 85.1396 236.539C86.5501 236.539 87.6898 237.678 87.6898 239.089C87.6898 240.499 86.5501 241.639 85.1396 241.639C83.7291 241.639 82.5894 240.499 82.5894 239.089Z" fill="white"/>
<path d="M85.1396 241.933C83.5711 241.933 82.2847 240.658 82.2847 239.078C82.2847 237.498 83.5598 236.223 85.1396 236.223C86.7194 236.223 87.9945 237.498 87.9945 239.078C87.9945 240.658 86.7194 241.933 85.1396 241.933ZM85.1396 236.844C83.9096 236.844 82.894 237.848 82.894 239.089C82.894 240.331 83.8983 241.335 85.1396 241.335C86.3808 241.335 87.3851 240.331 87.3851 239.089C87.3851 237.848 86.3808 236.844 85.1396 236.844Z" fill="#492AB1"/>
<path d="M114.58 224.194H52.5168C52.4378 224.194 52.3588 224.16 52.3024 224.104L33.4916 205.293C33.4352 205.236 33.4014 205.157 33.4014 205.078V160.506C33.4014 160.337 33.5368 160.201 33.706 160.201C33.8753 160.201 34.0107 160.337 34.0107 160.506V204.954L52.6409 223.584H114.569C114.738 223.584 114.873 223.72 114.873 223.889C114.873 224.058 114.738 224.194 114.569 224.194H114.58Z" fill="#492AB1"/>
<path d="M31.167 205.327C31.167 203.916 32.3067 202.776 33.7172 202.776C35.1277 202.776 36.2674 203.916 36.2674 205.327C36.2674 206.737 35.1277 207.877 33.7172 207.877C32.3067 207.877 31.167 206.737 31.167 205.327Z" fill="white"/>
<path d="M33.7172 208.181C32.1487 208.181 30.8623 206.906 30.8623 205.327C30.8623 203.747 32.1374 202.472 33.7172 202.472C35.297 202.472 36.5721 203.747 36.5721 205.327C36.5721 206.906 35.297 208.181 33.7172 208.181ZM33.7172 203.092C32.4872 203.092 31.4716 204.097 31.4716 205.338C31.4716 206.579 32.4759 207.583 33.7172 207.583C34.9585 207.583 35.9628 206.579 35.9628 205.338C35.9628 204.097 34.9585 203.092 33.7172 203.092Z" fill="#492AB1"/>
<path d="M55.4508 216.408C55.3718 216.408 55.2928 216.374 55.2364 216.318L42.2934 203.375C42.237 203.319 42.2031 203.24 42.2031 203.161V160.495C42.2031 160.326 42.3385 160.19 42.5078 160.19C42.6771 160.19 42.8125 160.326 42.8125 160.495V203.036L55.6652 215.889C55.7893 216.013 55.7893 216.205 55.6652 216.318C55.6087 216.374 55.5297 216.408 55.4508 216.408Z" fill="#492AB1"/>
<path d="M55.4506 218.654C56.8591 218.654 58.0008 217.512 58.0008 216.103C58.0008 214.695 56.8591 213.553 55.4506 213.553C54.0422 213.553 52.9004 214.695 52.9004 216.103C52.9004 217.512 54.0422 218.654 55.4506 218.654Z" fill="white"/>
<path d="M55.4506 218.958C53.8821 218.958 52.5957 217.683 52.5957 216.103C52.5957 214.524 53.8708 213.249 55.4506 213.249C57.0304 213.249 58.3055 214.524 58.3055 216.103C58.3055 217.683 57.0304 218.958 55.4506 218.958ZM55.4506 213.869C54.2206 213.869 53.2051 214.873 53.2051 216.115C53.2051 217.356 54.2093 218.36 55.4506 218.36C56.6919 218.36 57.6962 217.356 57.6962 216.115C57.6962 214.873 56.6919 213.869 55.4506 213.869Z" fill="#492AB1"/>
<path d="M9.70455 242.068C9.80611 242.091 9.89638 242.113 9.99794 242.136C9.96408 243.151 10.0882 244.156 10.3477 245.126C10.2575 245.16 10.1672 245.205 10.0769 245.25C8.8808 245.916 8.452 247.417 9.11777 248.613C9.78354 249.809 11.2843 250.238 12.4805 249.572C12.5707 249.527 12.6497 249.471 12.7287 249.414C13.4058 250.136 14.1957 250.768 15.0871 251.276C15.0533 251.366 15.0081 251.457 14.9855 251.558C14.6132 252.867 15.3692 254.233 16.6782 254.605C17.9871 254.977 19.3525 254.221 19.7249 252.912C19.7475 252.811 19.77 252.72 19.7926 252.619C20.8082 252.653 21.8125 252.54 22.7829 252.269C22.8168 252.359 22.8619 252.45 22.907 252.54C23.5728 253.736 25.0736 254.165 26.2697 253.499C27.4659 252.833 27.8947 251.332 27.2289 250.136C27.1837 250.046 27.1273 249.967 27.0709 249.888C27.7931 249.211 28.425 248.421 28.9328 247.53C29.0231 247.564 29.1133 247.609 29.2149 247.631C30.5239 248.004 31.8893 247.248 32.2616 245.939C32.634 244.63 31.878 243.264 30.569 242.892C30.4674 242.869 30.3772 242.847 30.2756 242.824C30.3095 241.809 30.1966 240.804 29.9258 239.834C30.0161 239.8 30.1064 239.755 30.1966 239.71C31.3927 239.044 31.8215 237.543 31.1558 236.347C30.49 235.151 28.9892 234.722 27.7931 235.388C27.7028 235.433 27.6238 235.489 27.5448 235.546C26.8678 234.824 26.0779 234.192 25.1864 233.684C25.2203 233.594 25.2654 233.503 25.288 233.402C25.6604 232.093 24.9043 230.728 23.5954 230.355C22.2864 229.983 20.921 230.739 20.5486 232.048C20.5261 232.149 20.5035 232.24 20.4809 232.341C19.4654 232.307 18.4611 232.431 17.4906 232.691C17.4568 232.601 17.4116 232.51 17.3665 232.42C16.7007 231.224 15.1999 230.795 14.0038 231.461C12.8077 232.127 12.3789 233.628 13.0447 234.824C13.0898 234.914 13.1462 234.993 13.2026 235.072C12.4805 235.749 11.8485 236.539 11.3408 237.43C11.2505 237.397 11.1602 237.351 11.0586 237.329C9.74968 236.956 8.3843 237.712 8.01192 239.021C7.63954 240.33 8.39558 241.696 9.70455 242.068ZM21.7335 236.855C24.8366 237.735 26.6308 240.974 25.7507 244.077C24.8705 247.18 21.6319 248.974 18.5288 248.094C15.4256 247.214 13.6314 243.975 14.5116 240.872C15.3918 237.769 18.6303 235.975 21.7335 236.855Z" fill="#492AB1"/>
<path d="M1.11735 226.338C1.17377 226.361 1.24147 226.372 1.2979 226.372C1.27533 227.004 1.35432 227.636 1.5123 228.234C1.45587 228.257 1.39945 228.279 1.34303 228.313C0.598276 228.731 0.33874 229.667 0.744971 230.401C1.16249 231.145 2.09907 231.405 2.83254 230.999C2.88897 230.965 2.9341 230.931 2.99052 230.897C3.40804 231.349 3.90454 231.744 4.45747 232.059C4.4349 232.116 4.41233 232.172 4.38976 232.24C4.15279 233.052 4.62673 233.91 5.45048 234.136C6.26294 234.373 7.12054 233.899 7.34622 233.075C7.36879 233.019 7.38007 232.951 7.38007 232.895C8.01199 232.917 8.6439 232.838 9.24196 232.68C9.26453 232.737 9.2871 232.793 9.32095 232.849C9.73847 233.594 10.6751 233.854 11.4085 233.447C12.1533 233.03 12.4128 232.093 12.0066 231.36C11.9727 231.303 11.9389 231.258 11.905 231.202C12.3564 230.784 12.7513 230.288 13.0673 229.735C13.1237 229.758 13.1801 229.78 13.2478 229.803C14.0603 230.04 14.9179 229.566 15.1436 228.742C15.3806 227.929 14.9066 227.072 14.0829 226.846C14.0265 226.824 13.9588 226.812 13.9023 226.812C13.9249 226.18 13.8459 225.549 13.6879 224.95C13.7444 224.928 13.8008 224.905 13.8572 224.871C14.6019 224.454 14.8615 223.517 14.4553 222.784C14.0377 222.039 13.1012 221.78 12.3677 222.186C12.3113 222.22 12.2661 222.254 12.2097 222.287C11.7922 221.836 11.2957 221.441 10.7428 221.125C10.7653 221.069 10.7879 221.012 10.8105 220.945C11.0474 220.132 10.5735 219.275 9.74975 219.049C8.93729 218.812 8.07969 219.286 7.85401 220.11C7.83144 220.166 7.82015 220.234 7.82015 220.29C7.18824 220.268 6.55633 220.347 5.95826 220.504C5.9357 220.448 5.91313 220.392 5.87927 220.335C5.46176 219.59 4.52517 219.331 3.7917 219.737C3.04694 220.155 2.78741 221.091 3.19364 221.825C3.22749 221.881 3.26134 221.926 3.2952 221.983C2.84383 222.4 2.44888 222.897 2.13293 223.45C2.0765 223.427 2.02008 223.405 1.95238 223.382C1.13992 223.145 0.282319 223.619 0.0566353 224.443C-0.180333 225.255 0.293603 226.113 1.11735 226.338ZM8.61005 223.1C10.5396 223.653 11.6568 225.661 11.1151 227.591C10.5622 229.521 8.55363 230.638 6.62403 230.096C4.69444 229.543 3.5773 227.535 4.11894 225.605C4.67187 223.675 6.68045 222.558 8.61005 223.1Z" fill="#492AB1"/>
<path d="M271.995 172.908H107.945V254.695H271.995V172.908Z" fill="white"/>
<path d="M271.995 255H107.945C107.776 255 107.641 254.865 107.641 254.695V172.908C107.641 172.738 107.776 172.603 107.945 172.603H271.995C272.164 172.603 272.299 172.738 272.299 172.908V254.695C272.299 254.865 272.164 255 271.995 255ZM108.25 254.391H271.69V173.212H108.25V254.391Z" fill="black"/>
<path d="M211.466 150.757H190.455V248.207H211.466V150.757Z" fill="#492AB1"/>
<path d="M141.55 210.856H128.438V234.824H141.55V210.856Z" fill="#FFC136"/>
<path d="M163.543 203.578H150.431V234.824H163.543V203.578Z" fill="#FFC136"/>
<path d="M185.524 192.779H172.412V234.824H185.524V192.779Z" fill="#FFC136"/>
<path d="M207.517 210.856H194.405V234.824H207.517V210.856Z" fill="#FFC136"/>
<path d="M229.498 201.975H216.386V234.812H229.498V201.975Z" fill="#FFC136"/>
<path d="M251.492 209.084H238.379V234.812H251.492V209.084Z" fill="#FFC136"/>
<path d="M141.56 242.711H128.448C128.279 242.711 128.144 242.576 128.144 242.407V185.185C128.144 185.015 128.279 184.88 128.448 184.88H141.56C141.73 184.88 141.865 185.015 141.865 185.185V242.407C141.865 242.576 141.73 242.711 141.56 242.711ZM128.753 242.102H141.256V185.501H128.753V242.102Z" fill="black"/>
<path d="M163.542 242.711H150.43C150.261 242.711 150.125 242.576 150.125 242.407V185.185C150.125 185.015 150.261 184.88 150.43 184.88H163.542C163.712 184.88 163.847 185.015 163.847 185.185V242.407C163.847 242.576 163.712 242.711 163.542 242.711ZM150.735 242.102H163.238V185.501H150.735V242.102Z" fill="black"/>
<path d="M185.536 242.711H172.423C172.254 242.711 172.119 242.576 172.119 242.407V185.185C172.119 185.015 172.254 184.88 172.423 184.88H185.536C185.705 184.88 185.84 185.015 185.84 185.185V242.407C185.84 242.576 185.705 242.711 185.536 242.711ZM172.728 242.102H185.231V185.501H172.728V242.102Z" fill="black"/>
<path d="M207.517 242.711H194.405C194.236 242.711 194.1 242.576 194.1 242.407V185.185C194.1 185.015 194.236 184.88 194.405 184.88H207.517C207.686 184.88 207.822 185.015 207.822 185.185V242.407C207.822 242.576 207.686 242.711 207.517 242.711ZM194.709 242.102H207.212V185.501H194.709V242.102Z" fill="white"/>
<path d="M229.51 242.711H216.397C216.228 242.711 216.093 242.576 216.093 242.407V185.185C216.093 185.015 216.228 184.88 216.397 184.88H229.51C229.679 184.88 229.814 185.015 229.814 185.185V242.407C229.814 242.576 229.679 242.711 229.51 242.711ZM216.702 242.102H229.205V185.501H216.702V242.102Z" fill="black"/>
<path d="M251.491 242.711H238.379C238.21 242.711 238.074 242.576 238.074 242.407V185.185C238.074 185.015 238.21 184.88 238.379 184.88H251.491C251.66 184.88 251.796 185.015 251.796 185.185V242.407C251.796 242.576 251.66 242.711 251.491 242.711ZM238.684 242.102H251.186V185.501H238.684V242.102Z" fill="black"/>
<path d="M80.9422 46.2088C95.4754 46.2088 107.257 35.9328 107.257 23.2567C107.257 10.5807 95.4754 0.304688 80.9422 0.304688C66.4089 0.304688 54.6274 10.5807 54.6274 23.2567C54.6274 35.9328 66.4089 46.2088 80.9422 46.2088Z" fill="white"/>
<path d="M80.9421 46.5247C66.2614 46.5247 54.3228 36.0868 54.3228 23.268C54.3228 10.4492 66.2614 0 80.9421 0C95.6229 0 107.562 10.4379 107.562 23.2567C107.562 36.0755 95.6229 46.5134 80.9421 46.5134V46.5247ZM80.9421 0.609346C66.6 0.609346 54.9434 10.7651 54.9434 23.2567C54.9434 35.7483 66.6112 45.9041 80.9421 45.9041C95.2731 45.9041 106.941 35.7483 106.941 23.2567C106.941 10.7651 95.2731 0.609346 80.9421 0.609346Z" fill="black"/>
<path d="M103.645 11.9614C100.204 11.2392 95.0581 10.6975 88.0506 11.3407C79.2602 12.1532 72.2527 19.1381 71.429 27.9398C71.0905 31.5281 70.9663 35.7936 71.2484 40.7135C71.8691 51.2416 79.7793 59.9304 90.2284 61.3861C92.8689 61.7585 95.9044 62.018 99.3686 62.1308C105.033 62.3114 109.897 58.1814 110.642 52.5731C111.747 44.1551 112.594 31.2347 110.077 18.4498C109.434 15.1999 106.895 12.661 103.645 11.9726V11.9614Z" fill="white"/>
<path d="M99.7189 62.4356C99.5948 62.4356 99.482 62.4356 99.3579 62.4356C96.0742 62.3341 92.9823 62.0858 90.1838 61.6909C79.6557 60.2239 71.5649 51.411 70.9443 40.7361C70.6847 36.2789 70.7412 31.9683 71.1248 27.9173C71.9599 18.9689 79.0689 11.8712 88.0285 11.0474C93.9076 10.5058 99.1773 10.7202 103.714 11.6681C107.099 12.379 109.717 15.0195 110.383 18.3822C112.888 31.1559 112.075 44.0424 110.947 52.6071C110.202 58.2718 105.417 62.4469 99.7302 62.4469L99.7189 62.4356ZM94.1446 11.3521C92.2037 11.3521 90.1838 11.4537 88.0737 11.6455C79.4074 12.4467 72.5353 19.3075 71.7229 27.9624C71.3505 31.9796 71.2828 36.2563 71.5423 40.691C72.1517 51.0837 80.0168 59.6484 90.2515 61.0815C93.0274 61.4652 96.0967 61.7134 99.3579 61.815C104.887 61.9955 109.593 57.9897 110.315 52.5168C111.432 43.9973 112.244 31.1784 109.762 18.4837C109.153 15.358 106.715 12.9206 103.567 12.2549C100.712 11.6568 97.5524 11.3521 94.122 11.3521H94.1446Z" fill="black"/>
<path d="M69.2066 51.4785H76.9814C80.7207 51.4785 83.752 48.4473 83.752 44.708V30.6366C83.752 26.8974 80.7207 23.8661 76.9814 23.8661L69.2066 23.8661C65.4674 23.8661 62.4361 26.8974 62.4361 30.6366V44.708C62.4361 48.4473 65.4674 51.4785 69.2066 51.4785Z" fill="#FFC136"/>
<path d="M14.523 149.222L54.627 102.641L44.2568 88.8066C40.8715 84.2929 34.2703 83.8754 30.3208 87.9039C20.6729 97.7549 5.04425 116.724 1.28662 139.405L14.5117 149.233L14.523 149.222Z" fill="white"/>
<path d="M14.5227 149.527C14.455 149.527 14.3986 149.504 14.3422 149.47L1.10581 139.642C1.01554 139.574 0.9704 139.461 0.981685 139.348C4.79574 116.374 20.8644 97.123 30.1062 87.6895C32.0583 85.7035 34.7665 84.6653 37.5312 84.8459C40.2958 85.0264 42.8347 86.4031 44.4935 88.6261L54.8637 102.46C54.9539 102.573 54.9427 102.731 54.8524 102.844L14.7484 149.425C14.692 149.493 14.6017 149.527 14.5114 149.527H14.5227ZM1.62488 139.269L14.4776 148.816L54.243 102.63L44.0196 88.9984C42.4623 86.9221 40.0927 85.6357 37.5086 85.4665C34.9132 85.2972 32.3856 86.2677 30.5575 88.1295C21.3948 97.4841 5.47279 116.543 1.63617 139.281L1.62488 139.269Z" fill="black"/>
<path d="M173.235 127.421C173.235 127.421 145.95 91.3907 128.742 83.0291C128.742 83.0291 121.982 78.0979 113.373 95.2838V106.816C113.373 106.816 143.298 146.965 163.125 150.114L173.224 127.421H173.235Z" fill="white"/>
<path d="M163.136 150.419C163.136 150.419 163.102 150.419 163.091 150.419C154.797 149.098 143.874 141.391 130.603 127.5C120.741 117.175 113.215 107.099 113.136 106.997C113.09 106.941 113.079 106.884 113.079 106.816V95.284C113.079 95.284 113.079 95.1937 113.113 95.1486C117.852 85.6811 122.084 82.9165 124.792 82.262C127.184 81.6753 128.696 82.6231 128.911 82.7698C145.984 91.0863 173.213 126.88 173.483 127.241C173.551 127.331 173.562 127.444 173.517 127.545L163.418 150.238C163.373 150.351 163.26 150.419 163.136 150.419ZM113.688 106.704C115.212 108.723 143.896 146.469 162.955 149.764L172.885 127.455C170.978 124.961 145.013 91.2668 128.617 83.3002C128.606 83.3002 128.584 83.2776 128.572 83.2776C128.516 83.2325 127.173 82.2959 124.905 82.8601C122.332 83.492 118.304 86.1776 113.688 95.363V106.715V106.704Z" fill="black"/>
<path d="M180.977 143.061C182.993 136.404 179.231 129.374 172.574 127.358C165.918 125.342 158.888 129.104 156.872 135.76C154.856 142.416 158.617 149.447 165.274 151.463C171.93 153.479 178.96 149.717 180.977 143.061Z" fill="#FFC136"/>
<path d="M194.687 86.3913L184.621 137.531C183.786 141.785 179.475 144.392 175.323 143.162L163.869 139.754C159.728 138.524 157.539 134.011 159.13 129.993L178.381 81.573C180.085 77.2963 184.881 75.1749 189.191 76.7885L189.36 76.8562C193.231 78.3006 195.488 82.3403 194.687 86.4026V86.3913Z" fill="white"/>
<path d="M177.411 143.772C176.677 143.772 175.944 143.67 175.233 143.456L163.779 140.048C161.726 139.439 160.01 137.983 159.074 136.053C158.137 134.124 158.058 131.878 158.848 129.881L178.099 81.4605C179.848 77.071 184.87 74.8367 189.293 76.4955L189.462 76.5632C193.491 78.0753 195.815 82.2278 194.98 86.4481L184.915 137.588C184.497 139.698 183.211 141.549 181.36 142.666C180.153 143.399 178.776 143.772 177.399 143.772H177.411ZM186.258 76.5632C183.008 76.5632 179.916 78.5153 178.663 81.6862L159.412 130.107C158.679 131.935 158.758 134.011 159.616 135.783C160.473 137.554 162.053 138.897 163.949 139.461L175.402 142.869C177.298 143.433 179.363 143.162 181.055 142.147C182.748 141.12 183.944 139.416 184.317 137.475L194.382 86.3353C195.149 82.4084 192.994 78.5379 189.248 77.1387L189.079 77.071C188.153 76.7212 187.205 76.5632 186.269 76.5632H186.258Z" fill="black"/>
<path d="M187.6 90.962C186.72 90.962 185.851 90.8492 185.005 90.6122C181.936 89.7659 179.352 87.3849 178.257 84.3833C178.201 84.2254 178.28 84.0448 178.437 83.9884C178.595 83.932 178.776 84.011 178.832 84.1689C179.859 86.9787 182.285 89.2243 185.163 90.0141C188.052 90.804 191.279 90.127 193.592 88.2312C193.728 88.1297 193.919 88.141 194.021 88.2764C194.123 88.4118 194.111 88.6036 193.976 88.7052C192.193 90.1608 189.891 90.9507 187.589 90.9507L187.6 90.962Z" fill="black"/>
<path d="M211.941 46.0736C211.941 46.0736 211.862 53.4761 209.526 62.5711C207.54 70.3121 200.081 75.4238 192.171 74.2954C191.031 74.1374 189.835 73.923 188.605 73.6409C181.383 71.9934 176.903 64.749 178.596 57.5271C180.616 48.9173 183.109 38.1521 183.313 36.2451L192.915 40.2172L211.941 46.0624V46.0736Z" fill="white"/>
<path d="M194.371 74.7693C193.626 74.7693 192.881 74.7129 192.125 74.6113C190.929 74.4421 189.722 74.2164 188.537 73.9456C184.982 73.1331 181.947 70.9778 180.017 67.8634C178.065 64.7377 177.456 61.0477 178.302 57.4594C180.333 48.8157 182.804 38.107 183.008 36.2225C183.008 36.121 183.075 36.042 183.154 35.9968C183.233 35.9517 183.335 35.9404 183.425 35.9743L193.028 39.9463L212.03 45.7802C212.155 45.8254 212.245 45.9382 212.245 46.0736C212.245 46.1526 212.132 53.6227 209.83 62.6501C207.979 69.872 201.559 74.7693 194.371 74.7693ZM183.56 36.6852C183.132 39.3934 180.818 49.4137 178.9 57.5948C178.099 61.0139 178.674 64.5458 180.536 67.5361C182.387 70.5039 185.276 72.5689 188.672 73.3362C189.846 73.607 191.031 73.8214 192.215 73.9907C199.956 75.0965 207.269 70.1428 209.232 62.4921C211.297 54.4239 211.59 47.6083 211.624 46.288L192.825 40.5105L183.56 36.6739V36.6852Z" fill="black"/>
<path d="M205.373 58.2941L207.517 58.9261C208.544 59.2307 209.627 58.644 209.932 57.6058L213.001 47.1567L207.122 45.4302L204.053 55.8793C203.748 56.9062 204.335 57.9895 205.373 58.2941Z" fill="white"/>
<path d="M208.07 59.3097C207.855 59.3097 207.652 59.2758 207.438 59.2194L205.294 58.5875C204.718 58.4182 204.244 58.0346 203.951 57.5042C203.658 56.9738 203.601 56.3645 203.77 55.789L206.84 45.3399C206.862 45.2609 206.919 45.1932 206.986 45.1593C207.054 45.1255 207.144 45.1142 207.223 45.1367L213.102 46.8632C213.26 46.9084 213.362 47.0776 213.306 47.2469L210.236 57.696C209.943 58.6778 209.051 59.3097 208.07 59.3097ZM207.325 45.8138L204.346 55.9696C204.222 56.3871 204.267 56.8272 204.481 57.2221C204.696 57.6058 205.034 57.8879 205.463 58.012L207.607 58.6439C208.476 58.8922 209.39 58.3957 209.638 57.5381L212.617 47.3823L207.325 45.8251V45.8138Z" fill="black"/>
<path d="M206.569 44.3469C205.959 46.4119 207.144 48.5785 209.209 49.1878C211.274 49.7972 213.441 48.6123 214.05 46.5473C214.659 44.4823 213.475 42.3157 211.41 41.7064C209.345 41.097 207.178 42.2819 206.569 44.3469Z" fill="white"/>
<path d="M210.304 49.6507C209.909 49.6507 209.514 49.5943 209.119 49.4815C208.047 49.1655 207.155 48.4433 206.614 47.4616C206.072 46.4799 205.948 45.3402 206.264 44.2682C206.918 42.0452 209.254 40.7701 211.477 41.4245C213.7 42.079 214.975 44.4149 214.321 46.6378C213.779 48.4659 212.109 49.662 210.281 49.662L210.304 49.6507ZM210.304 41.8533C209.706 41.8533 209.119 42 208.589 42.2934C207.742 42.7561 207.133 43.5121 206.862 44.4374C206.591 45.3627 206.693 46.3332 207.155 47.1682C207.618 48.0145 208.374 48.6239 209.299 48.8947C210.225 49.1655 211.195 49.0639 212.03 48.6013C212.876 48.1386 213.486 47.3826 213.757 46.4573C214.027 45.532 213.926 44.5616 213.463 43.7265C213.001 42.8802 212.245 42.2709 211.319 42C210.981 41.8985 210.642 41.8533 210.304 41.8533Z" fill="black"/>
<path d="M199.426 56.5483L197.282 55.9189C196.253 55.617 195.664 54.5386 195.966 53.51L199.033 43.0616L204.913 44.7875L201.846 55.2358C201.544 56.2644 200.465 56.8534 199.437 56.5515L199.426 56.5483Z" fill="white"/>
<path d="M199.968 56.9294C199.753 56.9294 199.55 56.8956 199.336 56.8391L197.192 56.2072C196.616 56.038 196.142 55.6543 195.849 55.1239C195.556 54.5936 195.499 53.9842 195.668 53.4087L198.738 42.9596C198.783 42.8016 198.952 42.7 199.121 42.7565L205 44.4829C205.079 44.5055 205.147 44.5619 205.181 44.6296C205.215 44.6973 205.226 44.7876 205.204 44.8666L202.134 55.3158C201.841 56.2975 200.949 56.9294 199.968 56.9294ZM199.234 43.4335L196.255 53.5893C196.131 54.0068 196.176 54.4469 196.391 54.8418C196.605 55.2368 196.943 55.5076 197.372 55.6317L199.516 56.2636C200.385 56.5232 201.299 56.0154 201.547 55.1578L204.526 45.002L199.234 43.4448V43.4335Z" fill="black"/>
<path d="M198.478 41.9778C197.869 44.0428 199.054 46.2093 201.119 46.8187C203.184 47.428 205.35 46.2432 205.96 44.1782C206.569 42.1132 205.384 39.9466 203.319 39.3373C201.254 38.7279 199.088 39.9127 198.478 41.9778Z" fill="white"/>
<path d="M202.225 47.2699C201.83 47.2699 201.423 47.2134 201.04 47.1006C199.968 46.7846 199.076 46.0625 198.535 45.0807C197.993 44.099 197.869 42.9593 198.185 41.8873C198.839 39.6643 201.175 38.3892 203.398 39.0437C204.47 39.3596 205.362 40.0818 205.903 41.0636C206.445 42.0453 206.569 43.185 206.253 44.257C205.937 45.329 205.215 46.2204 204.233 46.7621C203.601 47.1006 202.924 47.2811 202.225 47.2811V47.2699ZM198.772 42.0566C198.501 42.9819 198.602 43.9523 199.065 44.7873C199.528 45.6337 200.284 46.243 201.209 46.5138C202.134 46.7846 203.105 46.6831 203.94 46.2204C204.786 45.7578 205.395 45.0017 205.666 44.0764C205.937 43.1511 205.836 42.1807 205.373 41.3457C204.91 40.4994 204.154 39.89 203.229 39.6192C201.333 39.0663 199.336 40.1495 198.772 42.0566Z" fill="black"/>
<path d="M191.967 19.5557L191.358 19.3526C189.925 18.8787 188.368 19.6573 187.894 21.1017L183.064 37.5202L188.887 39.4385L193.716 23.02C194.19 21.5869 193.412 20.0297 191.967 19.5557Z" fill="white"/>
<path d="M188.886 39.7432C188.886 39.7432 188.819 39.7432 188.785 39.7319L182.962 37.8136C182.804 37.7572 182.714 37.5992 182.759 37.4412L187.589 21.0228C188.119 19.4204 189.846 18.5515 191.437 19.0706L192.046 19.2737C193.637 19.8041 194.517 21.5305 193.987 23.1216L189.169 39.5288C189.146 39.6078 189.09 39.6755 189.022 39.7094C188.977 39.7319 188.932 39.7432 188.875 39.7432H188.886ZM183.448 37.3171L188.683 39.0436L193.423 22.9298C193.84 21.6434 193.152 20.2667 191.877 19.8492L191.267 19.6461C189.992 19.2286 188.616 19.9169 188.198 21.192L183.459 37.3171H183.448Z" fill="black"/>
<path d="M191.33 54.1713L189.186 53.542C188.157 53.24 187.568 52.1616 187.87 51.133L190.937 40.6847L196.817 42.4106L193.749 52.8589C193.447 53.8875 192.369 54.4765 191.34 54.1745L191.33 54.1713Z" fill="white"/>
<path d="M191.877 54.5475C191.662 54.5475 191.459 54.5136 191.245 54.4572L189.101 53.8253C187.905 53.4755 187.228 52.2229 187.577 51.0268L190.647 40.5776C190.669 40.4987 190.726 40.431 190.793 40.3971C190.861 40.3633 190.951 40.352 191.03 40.3745L196.909 42.101C197.067 42.1462 197.169 42.3154 197.113 42.4847L194.043 52.9338C193.75 53.9156 192.858 54.5475 191.877 54.5475ZM191.143 41.0629L188.164 51.2186C188.04 51.6362 188.085 52.0762 188.3 52.4712C188.514 52.8548 188.853 53.1369 189.281 53.2611L191.425 53.893C192.294 54.1525 193.208 53.6447 193.456 52.7871L196.435 42.6314L191.143 41.0742V41.0629Z" fill="black"/>
<path d="M190.387 39.5964C189.778 41.6614 190.963 43.828 193.028 44.4373C195.093 45.0467 197.259 43.8618 197.868 41.7968C198.478 39.7318 197.293 37.5652 195.228 36.9559C193.163 36.3466 190.996 37.5314 190.387 39.5964Z" fill="white"/>
<path d="M194.134 44.8998C193.739 44.8998 193.332 44.8433 192.949 44.7305C190.726 44.076 189.451 41.7402 190.105 39.5172C190.421 38.4452 191.143 37.5537 192.125 37.0121C193.107 36.4705 194.247 36.3576 195.319 36.6623C197.541 37.3168 198.817 39.6526 198.162 41.8756C197.846 42.9476 197.124 43.839 196.142 44.3807C195.51 44.7192 194.833 44.8998 194.134 44.8998ZM194.122 37.1024C193.524 37.1024 192.938 37.2491 192.407 37.5425C191.561 38.0051 190.952 38.7612 190.681 39.6865C190.41 40.6118 190.511 41.5822 190.974 42.4172C191.437 43.2635 192.193 43.8729 193.118 44.1437C194.043 44.4145 195.014 44.313 195.849 43.8503C196.695 43.3877 197.305 42.6316 197.575 41.7063C198.128 39.8106 197.045 37.8133 195.138 37.2491C194.799 37.1475 194.461 37.1024 194.122 37.1024Z" fill="black"/>
<path d="M182.24 37.3737C181.63 39.4387 182.815 41.6053 184.88 42.2147C186.945 42.824 189.112 41.6392 189.721 39.5742C190.33 37.5092 189.146 35.3426 187.081 34.7332C185.015 34.1239 182.849 35.3087 182.24 37.3737Z" fill="white"/>
<path d="M185.986 42.6771C185.591 42.6771 185.185 42.6207 184.801 42.5078C183.729 42.1919 182.838 41.4697 182.296 40.488C181.755 39.5062 181.642 38.3665 181.958 37.2945C182.274 36.2225 182.996 35.3311 183.978 34.7894C184.959 34.2478 186.099 34.135 187.171 34.4396C189.394 35.0941 190.669 37.4299 190.015 39.6529C189.699 40.7249 188.977 41.6164 187.995 42.158C187.363 42.4965 186.686 42.6771 185.986 42.6771ZM185.975 34.8797C185.377 34.8797 184.79 35.0264 184.26 35.3198C183.413 35.7825 182.804 36.5385 182.533 37.4638C182.262 38.3891 182.364 39.3483 182.827 40.1946C183.289 41.0409 184.045 41.6502 184.971 41.9211C185.896 42.1919 186.866 42.0903 187.701 41.6277C188.548 41.165 189.157 40.409 189.428 39.4837C189.981 37.5879 188.898 35.5906 186.991 35.0264C186.652 34.9249 186.314 34.8797 185.975 34.8797Z" fill="black"/>
<path d="M182.703 49.4137C182.534 49.4137 182.398 49.2783 182.398 49.109C182.398 48.9398 182.534 48.8044 182.703 48.8044L188.21 48.7705C188.379 48.7705 188.514 48.9059 188.514 49.0752C188.514 49.2444 188.379 49.3799 188.21 49.3799L182.703 49.4137Z" fill="black"/>
<path d="M194.766 49.165C195.477 49.3117 196.199 49.4471 196.91 49.5938L194.766 49.165Z" fill="white"/>
<path d="M196.91 49.8986C196.91 49.8986 196.865 49.8986 196.853 49.8986L194.709 49.4698C194.54 49.4359 194.438 49.278 194.472 49.1087C194.506 48.9394 194.664 48.8379 194.833 48.8717L196.977 49.3005C197.147 49.3344 197.248 49.4923 197.214 49.6616C197.181 49.8083 197.056 49.9099 196.91 49.9099V49.8986Z" fill="black"/>
<path d="M183.572 60.3365C183.459 60.3365 183.346 60.2688 183.301 60.1673C183.222 60.0093 183.301 59.8287 183.448 59.761C185.739 58.6552 187.792 57.1657 189.553 55.3264C189.643 55.2361 189.767 55.2135 189.88 55.2474C191.076 55.71 192.317 56.184 193.592 56.3532C194.574 56.4886 195.996 56.4886 197.215 55.7439C197.361 55.6536 197.542 55.6987 197.632 55.8454C197.722 55.9921 197.677 56.1727 197.531 56.2629C196.165 57.1093 194.585 57.1093 193.502 56.9626C192.227 56.782 191.008 56.3419 189.846 55.8906C188.063 57.7073 186.009 59.1968 183.707 60.3027C183.662 60.3252 183.617 60.3365 183.572 60.3365Z" fill="black"/>
<path d="M70.741 76.2251H88.8296C90.2505 76.2251 91.4023 75.0732 91.4023 73.6523V67.9876C91.4023 66.5667 90.2505 65.4149 88.8296 65.4149H70.741C69.3201 65.4149 68.1682 66.5667 68.1682 67.9876V73.6523C68.1682 75.0732 69.3201 76.2251 70.741 76.2251Z" fill="white"/>
<path d="M88.8293 76.5407H70.7295C69.1384 76.5407 67.8521 75.2543 67.8521 73.6633V67.9873C67.8521 66.3963 69.1384 65.1099 70.7295 65.1099H88.8293C90.4204 65.1099 91.7068 66.3963 91.7068 67.9873V73.6633C91.7068 75.2543 90.4204 76.5407 88.8293 76.5407ZM70.7295 65.7305C69.477 65.7305 68.4614 66.7461 68.4614 67.9986V73.6746C68.4614 74.9271 69.477 75.9427 70.7295 75.9427H88.8293C90.0819 75.9427 91.0975 74.9271 91.0975 73.6746V67.9986C91.0975 66.7461 90.0819 65.7305 88.8293 65.7305H70.7295Z" fill="black"/>
<path d="M52.0203 79.1021H112.075C118.992 79.1021 124.408 85.0714 123.72 91.966L117.818 151.479C117.198 157.685 111.984 162.402 105.756 162.402H58.3394C52.1105 162.402 46.886 157.674 46.2766 151.479L40.375 91.966C39.6866 85.0827 45.1031 79.1021 52.0203 79.1021Z" fill="white"/>
<path d="M105.756 162.707H58.3394C51.9187 162.707 46.6038 157.889 45.9719 151.502L40.0703 91.9891C39.7317 88.6151 40.8489 85.2525 43.117 82.7361C45.3851 80.231 48.635 78.7866 52.0202 78.7866H112.075C115.46 78.7866 118.71 80.231 120.978 82.7361C123.246 85.2412 124.363 88.6151 124.025 91.9891L118.123 151.502C117.491 157.889 112.176 162.707 105.756 162.707ZM52.0202 79.4073C48.8042 79.4073 45.7237 80.7726 43.5684 83.1536C41.4131 85.5346 40.3524 88.7393 40.6683 91.9327L46.57 151.445C47.168 157.516 52.2233 162.098 58.3281 162.098H105.744C111.849 162.098 116.904 157.516 117.502 151.445L123.404 91.9327C123.72 88.7393 122.671 85.5346 120.504 83.1536C118.337 80.7726 115.268 79.4073 112.052 79.4073H51.9977H52.0202Z" fill="black"/>
<path d="M18.625 143.375C19.2556 138.254 15.6151 133.591 10.4936 132.96C5.3721 132.329 0.709077 135.97 0.0784229 141.091C-0.552231 146.213 3.0883 150.876 8.20979 151.507C13.3313 152.137 17.9943 148.497 18.625 143.375Z" fill="#FFC136"/>
<path d="M75.7402 140.725C75.7402 140.725 38.4798 135.297 16.2161 137.532C12.4359 137.915 9.31021 140.624 8.40748 144.325C8.04638 145.814 7.71914 147.529 7.53859 149.369C6.99695 154.796 10.5289 159.818 15.8438 161.082C28.4143 164.083 53.8263 168.157 73.3254 158.419L75.7628 140.725H75.7402Z" fill="white"/>
<path d="M43.6592 164.851C32.7925 164.851 22.6593 163.011 15.7534 161.364C10.3257 160.066 6.65837 154.887 7.21129 149.324C7.38056 147.654 7.67395 145.938 8.09146 144.235C9.01676 140.421 12.2666 137.599 16.1709 137.216C38.2202 135.004 75.4016 140.353 75.774 140.409C75.9433 140.432 76.0561 140.59 76.0335 140.759L73.5962 158.453C73.5849 158.554 73.5172 158.644 73.4269 158.69C64.1626 163.316 53.5893 164.851 43.6479 164.851H43.6592ZM28.5723 137.295C24.194 137.295 19.9963 137.453 16.2386 137.825C12.5938 138.186 9.5584 140.827 8.68952 144.381C8.28329 146.063 7.9899 147.744 7.82064 149.38C7.29028 154.65 10.7658 159.536 15.8888 160.766C28.9898 163.892 53.815 167.706 73.0094 158.204L75.3791 140.973C72.4339 140.556 48.5791 137.295 28.561 137.295H28.5723Z" fill="black"/>
<path d="M52.0205 185.704H119.139L140.432 114.309H73.3025L52.0205 185.704Z" fill="#492AB1"/>
<path d="M82.9502 147.801L83.1194 147.056C83.4467 145.611 82.5327 144.167 81.0883 143.851L65.8321 140.455L64.4893 146.435L79.7455 149.832C81.1898 150.159 82.6342 149.245 82.9502 147.801Z" fill="white"/>
<path d="M63.4395 147.055C65.5384 147.529 67.626 146.209 68.0886 144.099C68.5625 142 67.2423 139.913 65.1322 139.45C63.0333 138.976 60.9457 140.296 60.4831 142.406C60.0091 144.505 61.3294 146.593 63.4395 147.055Z" fill="white"/>
<path d="M64.2976 147.462C63.993 147.462 63.677 147.428 63.3723 147.36C61.1155 146.852 59.6824 144.607 60.1902 142.339C60.698 140.082 62.9548 138.649 65.2116 139.156C66.3062 139.405 67.2428 140.059 67.8409 141.007C68.4389 141.955 68.642 143.083 68.3938 144.178C68.1455 145.273 67.4911 146.209 66.5432 146.807C65.8661 147.236 65.0875 147.462 64.2976 147.462ZM63.5077 146.762C64.4443 146.976 65.4035 146.807 66.2159 146.288C67.0284 145.769 67.5813 144.979 67.7957 144.043C68.0101 143.106 67.8409 142.147 67.3218 141.334C66.8027 140.522 66.0128 139.969 65.0762 139.755C63.1466 139.326 61.217 140.544 60.7882 142.474C60.3594 144.404 61.5781 146.333 63.5077 146.762Z" fill="black"/>
<path d="M78.4816 155.452L78.6509 154.707C78.9781 153.262 78.0641 151.818 76.6197 151.502L63.9927 148.692L62.6499 154.673L75.2769 157.483C76.7213 157.81 78.1657 156.896 78.4816 155.452Z" fill="white"/>
<path d="M61.6007 155.282C63.6995 155.756 65.7871 154.436 66.2497 152.326C66.7237 150.227 65.4034 148.14 63.2933 147.677C61.1944 147.203 59.1068 148.523 58.6442 150.633C58.1703 152.732 59.4905 154.82 61.6007 155.282Z" fill="white"/>
<path d="M62.4581 155.689C62.1534 155.689 61.8487 155.655 61.544 155.587C60.4495 155.339 59.5129 154.684 58.9148 153.736C58.3168 152.789 58.1137 151.66 58.3619 150.566C58.6102 149.471 59.2646 148.534 60.2125 147.936C61.1604 147.338 62.2888 147.135 63.3834 147.383C65.6402 147.891 67.0733 150.137 66.5655 152.405C66.1254 154.357 64.3877 155.689 62.4694 155.689H62.4581ZM61.6682 154.989C63.5978 155.418 65.5274 154.199 65.9562 152.269C66.385 150.34 65.1663 148.41 63.2367 147.981C62.3001 147.778 61.3409 147.936 60.5285 148.455C59.716 148.974 59.1631 149.764 58.9487 150.701C58.7343 151.638 58.9035 152.597 59.4226 153.409C59.9417 154.222 60.7316 154.775 61.6682 154.989Z" fill="black"/>
<path d="M82.1154 138.977L82.2847 138.232C82.6119 136.787 81.6979 135.343 80.2535 135.027L67.6265 132.217L66.2837 138.198L78.9107 141.008C80.3551 141.335 81.7994 140.421 82.1154 138.977Z" fill="white"/>
<path d="M65.2344 138.818C67.3333 139.292 69.4209 137.972 69.8835 135.862C70.3575 133.763 69.0372 131.675 66.9271 131.213C64.8282 130.739 62.7406 132.059 62.278 134.169C61.8041 136.268 63.1243 138.355 65.2344 138.818Z" fill="white"/>
<path d="M66.0919 139.213C65.7872 139.213 65.4825 139.18 65.1778 139.112C64.0833 138.864 63.1467 138.209 62.5486 137.261C61.9506 136.313 61.7474 135.185 61.9957 134.09C62.244 132.996 62.8984 132.059 63.8463 131.461C64.7942 130.863 65.9226 130.66 67.0172 130.908C68.1117 131.157 69.0483 131.811 69.6464 132.759C70.2444 133.707 70.4476 134.835 70.1993 135.93C69.7592 137.882 68.0215 139.213 66.1031 139.213H66.0919ZM66.0806 131.427C65.4035 131.427 64.749 131.619 64.1623 131.992C63.3498 132.511 62.7969 133.301 62.5825 134.237C62.3681 135.174 62.5373 136.133 63.0564 136.945C63.5755 137.758 64.3654 138.311 65.302 138.525C67.2316 138.954 69.1612 137.735 69.59 135.806C69.8044 134.869 69.6351 133.91 69.116 133.097C68.5969 132.285 67.8071 131.732 66.8705 131.518C66.6109 131.461 66.3401 131.427 66.0806 131.427Z" fill="black"/>
<path d="M74.2325 161.611L73.7447 163.791C73.5107 164.837 72.4731 165.495 71.427 165.261L60.8004 162.884L62.1381 156.905L72.7646 159.282C73.8108 159.516 74.469 160.553 74.235 161.6L74.2325 161.611Z" fill="white"/>
<path d="M59.7613 163.519C61.8602 163.993 63.9477 162.673 64.4104 160.563C64.8843 158.464 63.5641 156.376 61.4539 155.914C59.3551 155.44 57.2675 156.76 56.8048 158.87C56.3309 160.969 57.6512 163.057 59.7613 163.519Z" fill="white"/>
<path d="M60.6189 163.926C60.3142 163.926 59.9983 163.892 59.6936 163.824C57.4368 163.317 56.0037 161.071 56.5115 158.803C57.0193 156.546 59.2648 155.113 61.5329 155.621C62.6275 155.869 63.5641 156.524 64.1621 157.471C64.7602 158.419 64.9633 159.548 64.7151 160.642C64.4668 161.737 63.8123 162.673 62.8645 163.272C62.1874 163.7 61.4088 163.926 60.6189 163.926ZM59.829 163.215C60.7656 163.429 61.7248 163.26 62.5372 162.741C63.3497 162.222 63.9026 161.432 64.117 160.496C64.3314 159.559 64.1621 158.6 63.6431 157.787C63.124 156.975 62.3341 156.422 61.3975 156.208C59.4679 155.779 57.5383 156.998 57.1095 158.927C56.6807 160.857 57.8994 162.786 59.829 163.215Z" fill="black"/>
<path d="M358.104 85.4438H161.488C161.319 85.4438 161.184 85.3084 161.184 85.1391V4.62645C161.184 4.45719 161.319 4.32178 161.488 4.32178H358.104C358.273 4.32178 358.409 4.45719 358.409 4.62645V85.1278C358.409 85.2971 358.273 85.4325 358.104 85.4325V85.4438ZM161.793 84.8231H357.799V4.93112H161.793V84.8231Z" fill="#492AB1"/>
<path d="M343.705 21.5981H200.159C199.99 21.5981 199.854 21.4627 199.854 21.2934C199.854 21.1242 199.99 20.9888 200.159 20.9888H343.705C343.875 20.9888 344.01 21.1242 344.01 21.2934C344.01 21.4627 343.875 21.5981 343.705 21.5981Z" fill="#492AB1"/>
<path d="M203.813 23.5928C205.086 19.7734 203.022 15.6453 199.202 14.3726C195.383 13.0998 191.255 15.1643 189.982 18.9837C188.709 22.8031 190.774 26.9312 194.593 28.204C198.412 29.4768 202.54 27.4123 203.813 23.5928Z" fill="white"/>
<path d="M196.909 28.8877C192.723 28.8877 189.315 25.4799 189.315 21.2935C189.315 17.107 192.723 13.6992 196.909 13.6992C201.096 13.6992 204.503 17.107 204.503 21.2935C204.503 25.4799 201.096 28.8877 196.909 28.8877ZM196.909 14.3086C193.061 14.3086 189.924 17.4456 189.924 21.2935C189.924 25.1414 193.061 28.2784 196.909 28.2784C200.757 28.2784 203.894 25.1414 203.894 21.2935C203.894 17.4456 200.757 14.3086 196.909 14.3086Z" fill="#492AB1"/>
<path d="M200.184 22.3833C200.789 20.5682 199.808 18.6064 197.993 18.0016C196.178 17.3967 194.216 18.3778 193.611 20.1929C193.006 22.008 193.988 23.9698 195.803 24.5747C197.618 25.1796 199.58 24.1985 200.184 22.3833Z" fill="#492AB1"/>
<path d="M343.706 36.5605H224.387C224.217 36.5605 224.082 36.4251 224.082 36.2558C224.082 36.0866 224.217 35.9512 224.387 35.9512H343.706C343.875 35.9512 344.01 36.0866 344.01 36.2558C344.01 36.4251 343.875 36.5605 343.706 36.5605Z" fill="#492AB1"/>
<path d="M343.706 51.5239H224.387C224.217 51.5239 224.082 51.3885 224.082 51.2192C224.082 51.05 224.217 50.9146 224.387 50.9146H343.706C343.875 50.9146 344.01 51.05 344.01 51.2192C344.01 51.3885 343.875 51.5239 343.706 51.5239Z" fill="#492AB1"/>
<path d="M343.706 66.4863H224.387C224.217 66.4863 224.082 66.3509 224.082 66.1816C224.082 66.0124 224.217 65.877 224.387 65.877H343.706C343.875 65.877 344.01 66.0124 344.01 66.1816C344.01 66.3509 343.875 66.4863 343.706 66.4863Z" fill="#492AB1"/>
<path d="M203.813 23.5928C205.086 19.7734 203.022 15.6453 199.202 14.3726C195.383 13.0998 191.255 15.1643 189.982 18.9837C188.709 22.8031 190.774 26.9312 194.593 28.204C198.412 29.4768 202.54 27.4123 203.813 23.5928Z" fill="white"/>
<path d="M196.909 28.8877C192.723 28.8877 189.315 25.4799 189.315 21.2935C189.315 17.107 192.723 13.6992 196.909 13.6992C201.096 13.6992 204.503 17.107 204.503 21.2935C204.503 25.4799 201.096 28.8877 196.909 28.8877ZM196.909 14.3086C193.061 14.3086 189.924 17.4456 189.924 21.2935C189.924 25.1414 193.061 28.2784 196.909 28.2784C200.757 28.2784 203.894 25.1414 203.894 21.2935C203.894 17.4456 200.757 14.3086 196.909 14.3086Z" fill="#492AB1"/>
<path d="M200.184 22.3833C200.789 20.5682 199.808 18.6064 197.993 18.0016C196.178 17.3967 194.216 18.3778 193.611 20.1929C193.006 22.008 193.988 23.9698 195.803 24.5747C197.618 25.1796 199.58 24.1985 200.184 22.3833Z" fill="#492AB1"/>
<path d="M381.586 27.5898H337.815V44.9111H381.586V27.5898Z" fill="#492AB1"/>
<path d="M341.392 41.1427L331.62 36.2567L341.392 31.3706V41.1427Z" fill="#492AB1"/>
<path d="M362.46 57.5156H318.688V74.8368H362.46V57.5156Z" fill="#492AB1"/>
<path d="M322.265 71.068L312.493 66.182L322.265 61.2959V71.068Z" fill="#492AB1"/>
<path d="M294.811 42.5527H251.04V59.874H294.811V42.5527Z" fill="#492AB1"/>
<path d="M254.617 56.1051L244.845 51.2191L254.617 46.333V56.1051Z" fill="#492AB1"/>
<path d="M241.598 52.3403C242.243 48.3663 239.544 44.6219 235.57 43.9769C231.597 43.3318 227.852 46.0304 227.207 50.0043C226.562 53.9782 229.261 57.7226 233.234 58.3677C237.208 59.0127 240.953 56.3142 241.598 52.3403Z" fill="white"/>
<path d="M234.395 58.7574C230.209 58.7574 226.801 55.3495 226.801 51.1631C226.801 46.9767 230.209 43.5688 234.395 43.5688C238.581 43.5688 241.989 46.9767 241.989 51.1631C241.989 55.3495 238.581 58.7574 234.395 58.7574ZM234.395 44.1782C230.547 44.1782 227.41 47.3152 227.41 51.1631C227.41 55.011 230.547 58.148 234.395 58.148C238.243 58.148 241.38 55.011 241.38 51.1631C241.38 47.3152 238.243 44.1782 234.395 44.1782Z" fill="#492AB1"/>
<path d="M234.395 54.6272C236.309 54.6272 237.86 53.0762 237.86 51.163C237.86 49.2497 236.309 47.6987 234.395 47.6987C232.482 47.6987 230.931 49.2497 230.931 51.163C230.931 53.0762 232.482 54.6272 234.395 54.6272Z" fill="#492AB1"/>
<path d="M321.453 43.5455C325.479 43.5455 328.742 40.2818 328.742 36.2559C328.742 32.23 325.479 28.9663 321.453 28.9663C317.427 28.9663 314.163 32.23 314.163 36.2559C314.163 40.2818 317.427 43.5455 321.453 43.5455Z" fill="white"/>
<path d="M321.453 43.8501C317.266 43.8501 313.858 40.4423 313.858 36.2559C313.858 32.0694 317.266 28.6616 321.453 28.6616C325.639 28.6616 329.047 32.0694 329.047 36.2559C329.047 40.4423 325.639 43.8501 321.453 43.8501ZM321.453 29.271C317.605 29.271 314.468 32.408 314.468 36.2559C314.468 40.1038 317.605 43.2408 321.453 43.2408C325.301 43.2408 328.438 40.1038 328.438 36.2559C328.438 32.408 325.301 29.271 321.453 29.271Z" fill="#492AB1"/>
<path d="M321.453 39.7205C323.366 39.7205 324.917 38.1695 324.917 36.2562C324.917 34.343 323.366 32.792 321.453 32.792C319.54 32.792 317.989 34.343 317.989 36.2562C317.989 38.1695 319.54 39.7205 321.453 39.7205Z" fill="#492AB1"/>
<path d="M302.326 73.4713C306.352 73.4713 309.616 70.2076 309.616 66.1817C309.616 62.1558 306.352 58.8921 302.326 58.8921C298.3 58.8921 295.037 62.1558 295.037 66.1817C295.037 70.2076 298.3 73.4713 302.326 73.4713Z" fill="white"/>
<path d="M302.326 73.7759C298.14 73.7759 294.732 70.3681 294.732 66.1817C294.732 61.9952 298.14 58.5874 302.326 58.5874C306.513 58.5874 309.92 61.9952 309.92 66.1817C309.92 70.3681 306.513 73.7759 302.326 73.7759ZM302.326 59.1967C298.478 59.1967 295.341 62.3338 295.341 66.1817C295.341 70.0296 298.478 73.1666 302.326 73.1666C306.174 73.1666 309.311 70.0296 309.311 66.1817C309.311 62.3338 306.174 59.1967 302.326 59.1967Z" fill="#492AB1"/>
<path d="M302.327 69.6463C304.24 69.6463 305.791 68.0953 305.791 66.182C305.791 64.2688 304.24 62.7178 302.327 62.7178C300.413 62.7178 298.862 64.2688 298.862 66.182C298.862 68.0953 300.413 69.6463 302.327 69.6463Z" fill="#492AB1"/>
<path d="M258.216 12.627H214.445V29.9482H258.216V12.627Z" fill="#492AB1"/>
<path d="M218.022 26.1793L208.25 21.2933L218.022 16.4072V26.1793Z" fill="#492AB1"/>
</g>
<defs>
<clipPath id="clip0_1517_8613">
<rect width="381.891" height="255" fill="white" transform="translate(0.000488281)"/>
</clipPath>
</defs>
</svg>
