<svg width="494" height="412" viewBox="0 0 494 412" fill="none" xmlns="http://www.w3.org/2000/svg">
<path d="M493.624 262.708C494.695 258.466 492.118 254.167 487.876 253.11C487.558 253.023 487.239 252.979 486.935 252.936C486.935 249.664 486.458 246.45 485.531 243.41C485.82 243.279 486.11 243.135 486.385 242.975C490.135 240.731 491.365 235.881 489.121 232.132C486.877 228.382 482.013 227.152 478.263 229.396C477.988 229.569 477.728 229.743 477.467 229.946C475.223 227.687 472.632 225.733 469.736 224.198C469.852 223.909 469.953 223.605 470.026 223.286C471.097 219.044 468.52 214.744 464.278 213.688C460.036 212.616 455.736 215.193 454.665 219.421C454.593 219.739 454.535 220.058 454.491 220.362C451.219 220.362 448.005 220.839 444.965 221.766C444.835 221.476 444.69 221.187 444.531 220.912C442.287 217.162 437.422 215.932 433.673 218.176C429.923 220.42 428.692 225.269 430.936 229.019C431.11 229.294 431.284 229.555 431.487 229.815C429.228 232.059 427.274 234.651 425.739 237.546C425.449 237.431 425.145 237.329 424.827 237.257C420.585 236.186 416.285 238.762 415.214 242.99C414.142 247.232 416.719 251.532 420.961 252.588C421.28 252.675 421.598 252.719 421.902 252.762C421.902 256.034 422.38 259.248 423.307 262.288C423.017 262.419 422.728 262.563 422.453 262.723C418.703 264.967 417.472 269.817 419.716 273.566C421.96 277.316 426.825 278.547 430.574 276.303C430.85 276.129 431.11 275.955 431.371 275.752C433.615 278.011 436.206 279.965 439.102 281.5C438.986 281.79 438.885 282.094 438.812 282.412C437.741 286.654 440.318 290.954 444.56 292.011C448.802 293.082 453.101 290.505 454.173 286.278C454.245 285.959 454.303 285.641 454.346 285.337C457.618 285.337 460.832 284.859 463.873 283.932C464.003 284.222 464.148 284.511 464.307 284.786C466.551 288.536 471.415 289.767 475.165 287.523C478.915 285.279 480.145 280.429 477.901 276.679C477.728 276.404 477.554 276.143 477.351 275.883C479.61 273.639 481.564 271.047 483.099 268.152C483.388 268.268 483.692 268.369 484.011 268.441C488.253 269.513 492.553 266.936 493.624 262.708ZM468.679 256.425C466.696 264.301 458.704 269.064 450.843 267.08C442.967 265.097 438.19 257.105 440.173 249.244C442.156 241.368 450.148 236.605 458.009 238.589C465.885 240.572 470.663 248.564 468.679 256.425Z" fill="#492AB1"/>
<path d="M430.328 309.76C430.979 307.198 429.416 304.592 426.853 303.955C426.665 303.911 426.477 303.868 426.274 303.853C426.274 301.87 425.985 299.93 425.42 298.091C425.594 298.019 425.768 297.932 425.941 297.831C428.214 296.47 428.953 293.531 427.592 291.273C426.231 289 423.292 288.261 421.033 289.622C420.86 289.723 420.7 289.839 420.556 289.955C419.195 288.58 417.631 287.407 415.88 286.48C415.952 286.307 416.01 286.119 416.053 285.93C416.705 283.368 415.141 280.762 412.579 280.125C410.016 279.473 407.41 281.037 406.773 283.599C406.73 283.788 406.686 283.976 406.672 284.179C404.688 284.179 402.748 284.468 400.91 285.033C400.837 284.859 400.751 284.685 400.649 284.512C399.288 282.239 396.349 281.5 394.091 282.861C391.818 284.222 391.08 287.161 392.44 289.419C392.542 289.593 392.658 289.752 392.773 289.897C391.398 291.258 390.225 292.822 389.299 294.573C389.125 294.501 388.937 294.443 388.749 294.4C386.186 293.748 383.58 295.312 382.943 297.874C382.292 300.437 383.855 303.043 386.418 303.68C386.606 303.723 386.794 303.767 386.997 303.781C386.997 305.764 387.286 307.704 387.851 309.543C387.677 309.615 387.504 309.702 387.33 309.804C385.057 311.165 384.319 314.104 385.679 316.362C387.04 318.635 389.979 319.373 392.238 318.012C392.411 317.911 392.571 317.795 392.716 317.679C394.076 319.055 395.64 320.227 397.392 321.154C397.319 321.328 397.261 321.516 397.218 321.704C396.567 324.267 398.13 326.873 400.693 327.51C403.255 328.161 405.861 326.598 406.498 324.035C406.542 323.847 406.585 323.659 406.599 323.456C408.583 323.456 410.523 323.166 412.361 322.616C412.434 322.79 412.521 322.964 412.622 323.137C413.983 325.41 416.922 326.149 419.18 324.788C421.453 323.427 422.192 320.488 420.831 318.23C420.729 318.056 420.614 317.897 420.498 317.752C421.873 316.391 423.046 314.827 423.972 313.076C424.146 313.148 424.334 313.206 424.523 313.249C427.085 313.901 429.691 312.337 430.328 309.775V309.76ZM415.242 305.953C414.041 310.716 409.22 313.597 404.457 312.395C399.694 311.194 396.813 306.373 398 301.609C399.201 296.846 404.022 293.965 408.786 295.167C413.549 296.369 416.43 301.19 415.242 305.953Z" fill="#492AB1"/>
<path d="M465.986 321.574C463.076 321.574 460.716 319.214 460.716 316.304C460.716 313.394 463.076 311.034 465.986 311.034C468.896 311.034 471.256 313.394 471.256 316.304C471.256 319.214 468.896 321.574 465.986 321.574ZM465.986 311.83C463.525 311.83 461.513 313.843 461.513 316.304C461.513 318.765 463.525 320.778 465.986 320.778C468.447 320.778 470.46 318.765 470.46 316.304C470.46 313.843 468.447 311.83 465.986 311.83Z" fill="#3D3D3D"/>
<path d="M465.986 335.776C463.076 335.776 460.716 333.417 460.716 330.507C460.716 327.597 463.076 325.237 465.986 325.237C468.896 325.237 471.256 327.597 471.256 330.507C471.256 333.417 468.896 335.776 465.986 335.776ZM465.986 326.048C463.525 326.048 461.513 328.06 461.513 330.521C461.513 332.982 463.525 334.995 465.986 334.995C468.447 334.995 470.46 332.982 470.46 330.521C470.46 328.06 468.447 326.048 465.986 326.048Z" fill="#3D3D3D"/>
<path d="M465.986 349.588C468.673 349.588 470.85 347.41 470.85 344.723C470.85 342.037 468.673 339.859 465.986 339.859C463.299 339.859 461.122 342.037 461.122 344.723C461.122 347.41 463.299 349.588 465.986 349.588Z" fill="#492AB1" stroke="#492AB1" stroke-width="5.79099" stroke-miterlimit="10"/>
<path d="M465.987 306.561C465.769 306.561 465.596 306.387 465.596 306.17V292.272C465.596 292.054 465.769 291.881 465.987 291.881C466.204 291.881 466.377 292.054 466.377 292.272V306.17C466.377 306.387 466.204 306.561 465.987 306.561Z" fill="#3D3D3D"/>
<path d="M466.551 397.349H423.495C423.278 397.349 423.104 397.175 423.104 396.958C423.104 396.741 423.278 396.567 423.495 396.567H466.146V352.947C466.146 352.729 466.319 352.556 466.536 352.556C466.754 352.556 466.927 352.729 466.927 352.947V396.958C466.927 397.175 466.754 397.349 466.536 397.349H466.551Z" fill="#3D3D3D"/>
<path d="M325.497 250.735C325.439 250.909 325.381 251.068 325.308 251.213C325.511 251.98 325.714 252.747 325.945 253.5C326.438 255.151 325.685 256.41 324.527 257.033C324.787 258.321 324.092 259.624 323.021 260.348C323.253 262.114 317.578 224.241 317.447 223.749C317.216 222.822 331.027 157.934 331.027 157.934L325.497 250.706V250.735Z" fill="#F4EAE2"/>
<path d="M331.026 157.949C331.026 149.61 324.265 142.849 315.941 142.849H15.8082C7.48364 142.849 0.722656 149.61 0.722656 157.949V388.068H315.941C324.265 388.068 331.026 381.307 331.026 372.968V157.949Z" fill="url(#paint0_linear_1531_18044)" stroke="#492AB1" stroke-width="1.44775" stroke-miterlimit="10"/>
<path d="M315.941 388.459H0.722923C0.505761 388.459 0.332031 388.285 0.332031 388.068V157.949C0.332031 149.407 7.28122 142.443 15.8085 142.443H315.941C324.483 142.443 331.417 149.393 331.417 157.949C331.417 158.166 331.244 158.34 331.027 158.34C330.809 158.34 330.636 158.166 330.636 157.949C330.636 149.841 324.048 143.24 315.941 143.24H15.8085C7.71555 143.24 1.11381 149.841 1.11381 157.949V387.663H315.941C324.034 387.663 330.636 381.061 330.636 372.954C330.636 372.737 330.809 372.563 331.027 372.563C331.244 372.563 331.417 372.737 331.417 372.954C331.417 381.495 324.468 388.459 315.941 388.459Z" fill="#3D3D3D"/>
<path d="M315.941 382.335H17.01C11.19 382.335 6.44141 377.587 6.44141 371.752V157.949C6.44141 152.78 10.6399 148.582 15.7939 148.582H315.926C321.08 148.582 325.279 152.78 325.279 157.949V185.774C325.279 185.992 325.105 186.165 324.888 186.165C324.671 186.165 324.497 185.992 324.497 185.774V157.949C324.497 153.215 320.661 149.378 315.926 149.378H15.8083C11.0887 149.378 7.23767 153.229 7.23767 157.949V371.752C7.23767 377.152 11.6243 381.539 17.01 381.539H315.941C320.661 381.539 324.512 377.688 324.512 372.968V263.417C324.512 263.2 324.685 263.026 324.902 263.026C325.12 263.026 325.293 263.2 325.293 263.417V372.968C325.293 378.137 321.095 382.335 315.941 382.335Z" fill="#3D3D3D"/>
<path d="M24.9869 412H390.152C403.558 412 414.417 401.141 414.417 387.735H0.722656C0.722656 401.141 11.5808 412 24.9869 412Z" fill="#492AB1"/>
<path d="M357.956 0H84.7081C81.4458 0 78.8013 2.64457 78.8013 5.90681V356.986C78.8013 360.248 81.4458 362.892 84.7081 362.892H357.956C361.218 362.892 363.863 360.248 363.863 356.986V5.90681C363.863 2.64457 361.218 0 357.956 0Z" fill="#FFF5DD"/>
<path d="M343.971 129.023H280.661C280.371 129.023 280.14 128.791 280.14 128.502C280.14 128.212 280.371 127.981 280.661 127.981H343.971C344.26 127.981 344.492 128.212 344.492 128.502C344.492 128.791 344.26 129.023 343.971 129.023Z" fill="#3D3D3D"/>
<path d="M268.659 129.023H177.799C177.509 129.023 177.277 128.791 177.277 128.502C177.277 128.212 177.509 127.981 177.799 127.981H268.659C268.949 127.981 269.18 128.212 269.18 128.502C269.18 128.791 268.949 129.023 268.659 129.023Z" fill="#3D3D3D"/>
<path d="M165.912 129.023H107.163C106.873 129.023 106.642 128.791 106.642 128.502C106.642 128.212 106.873 127.981 107.163 127.981H165.912C166.202 127.981 166.434 128.212 166.434 128.502C166.434 128.791 166.202 129.023 165.912 129.023Z" fill="#3D3D3D"/>
<path d="M343.971 146.512H232.625C232.335 146.512 232.104 146.28 232.104 145.991C232.104 145.701 232.335 145.47 232.625 145.47H343.971C344.261 145.47 344.492 145.701 344.492 145.991C344.492 146.28 344.261 146.512 343.971 146.512Z" fill="#3D3D3D"/>
<path d="M222.042 146.512H107.163C106.873 146.512 106.642 146.28 106.642 145.991C106.642 145.701 106.873 145.47 107.163 145.47H222.042C222.331 145.47 222.563 145.701 222.563 145.991C222.563 146.28 222.331 146.512 222.042 146.512Z" fill="#3D3D3D"/>
<path d="M285.178 164.015H200.123C199.833 164.015 199.602 163.783 199.602 163.494C199.602 163.204 199.833 162.973 200.123 162.973H285.178C285.467 162.973 285.699 163.204 285.699 163.494C285.699 163.783 285.467 164.015 285.178 164.015Z" fill="#3D3D3D"/>
<path d="M186.659 164.015H107.163C106.873 164.015 106.642 163.783 106.642 163.494C106.642 163.204 106.873 162.973 107.163 162.973H186.659C186.948 162.973 187.18 163.204 187.18 163.494C187.18 163.783 186.948 164.015 186.659 164.015Z" fill="#3D3D3D"/>
<path d="M192.672 276.197C210.953 257.909 210.966 228.283 192.701 210.024C174.436 191.766 144.81 191.789 126.528 210.077C108.247 228.364 108.234 257.991 126.499 276.25C144.764 294.508 174.39 294.485 192.672 276.197Z" fill="#FED8BA"/>
<path d="M107.163 230.293C112.765 206.593 134.047 188.945 159.47 188.873V242.946C159.47 242.946 115.878 232.305 107.163 230.308V230.293Z" fill="#492AB1"/>
<path d="M190.408 202.844C201.295 210.995 208.23 223.112 210.04 236.2C197.792 237.836 160.063 242.816 160.063 242.816C160.063 242.816 185.443 209.547 190.408 202.844Z" fill="#FED8BA"/>
<path d="M160.049 243.337C159.86 243.337 159.687 243.236 159.6 243.077C159.498 242.888 159.513 242.671 159.643 242.497C159.846 242.222 180.216 215.526 187.889 205.334C188.062 205.102 188.381 205.059 188.613 205.232C188.844 205.406 188.888 205.725 188.714 205.956C181.881 215.034 165 237.17 161.221 242.135C167.171 241.354 193.028 237.937 206.116 236.185C206.405 236.156 206.666 236.344 206.695 236.634C206.738 236.924 206.536 237.184 206.246 237.213C191.407 239.182 160.121 243.323 160.121 243.323C160.092 243.323 160.077 243.323 160.049 243.323V243.337Z" fill="#3D3D3D"/>
<path d="M208.172 328.407C211.138 328.407 213.543 326.002 213.543 323.036C213.543 320.07 211.138 317.665 208.172 317.665C205.206 317.665 202.801 320.07 202.801 323.036C202.801 326.002 205.206 328.407 208.172 328.407Z" fill="#FED8BA"/>
<path d="M192.493 328.407C195.459 328.407 197.864 326.002 197.864 323.036C197.864 320.07 195.459 317.665 192.493 317.665C189.526 317.665 187.122 320.07 187.122 323.036C187.122 326.002 189.526 328.407 192.493 328.407Z" fill="#FED8BA"/>
<path d="M176.814 328.407C179.78 328.407 182.185 326.002 182.185 323.036C182.185 320.07 179.78 317.665 176.814 317.665C173.847 317.665 171.442 320.07 171.442 323.036C171.442 326.002 173.847 328.407 176.814 328.407Z" fill="#FED8BA"/>
<path d="M163.48 323.542H116.993C116.805 323.542 116.631 323.441 116.544 323.282C116.457 323.122 116.457 322.92 116.544 322.76L146.469 272.176C146.614 271.93 146.932 271.843 147.178 271.988C147.425 272.133 147.511 272.451 147.367 272.697L117.905 322.485H163.48C163.77 322.485 164.001 322.717 164.001 323.007C164.001 323.296 163.77 323.528 163.48 323.528V323.542Z" fill="#3D3D3D"/>
<path d="M271.265 203.771V296.397C271.265 300.003 274.188 302.927 277.794 302.927H280.125C283.731 302.927 286.654 300.003 286.654 296.397V203.771C286.654 200.164 283.731 197.241 280.125 197.241H277.794C274.188 197.241 271.265 200.164 271.265 203.771Z" fill="#492AB1"/>
<path d="M298.902 203.785V296.412C298.902 300.018 301.826 302.941 305.432 302.941H307.763C311.369 302.941 314.292 300.018 314.292 296.412V203.785C314.292 200.179 311.369 197.256 307.763 197.256H305.432C301.826 197.256 298.902 200.179 298.902 203.785Z" fill="#492AB1"/>
<path d="M326.713 203.785V296.412C326.713 300.018 329.637 302.941 333.243 302.941H335.574C339.18 302.941 342.103 300.018 342.103 296.412V203.785C342.103 200.179 339.18 197.256 335.574 197.256H333.243C329.637 197.256 326.713 200.179 326.713 203.785Z" fill="#492AB1"/>
<path d="M243.859 203.785V296.412C243.859 300.018 246.782 302.941 250.388 302.941H252.719C256.325 302.941 259.248 300.018 259.248 296.412V203.785C259.248 200.179 256.325 197.256 252.719 197.256H250.388C246.782 197.256 243.859 200.179 243.859 203.785Z" fill="#492AB1"/>
<path d="M271.265 215.599V296.412C271.265 300.018 274.188 302.941 277.794 302.941H280.125C283.731 302.941 286.654 300.018 286.654 296.412V215.599C286.654 211.992 283.731 209.069 280.125 209.069H277.794C274.188 209.069 271.265 211.992 271.265 215.599Z" fill="#FED8BA"/>
<path d="M298.902 265.662V296.412C298.902 300.018 301.826 302.941 305.432 302.941H307.763C311.369 302.941 314.292 300.018 314.292 296.412V265.662C314.292 262.056 311.369 259.132 307.763 259.132H305.432C301.826 259.132 298.902 262.056 298.902 265.662Z" fill="#FED8BA"/>
<path d="M326.713 253.848V296.412C326.713 300.018 329.637 302.941 333.243 302.941H335.574C339.18 302.941 342.103 300.018 342.103 296.412V253.848C342.103 250.242 339.18 247.319 335.574 247.319H333.243C329.637 247.319 326.713 250.242 326.713 253.848Z" fill="#FED8BA"/>
<path d="M243.859 229.092V296.412C243.859 300.018 246.782 302.941 250.388 302.941H252.719C256.325 302.941 259.248 300.018 259.248 296.412V229.092C259.248 225.486 256.325 222.562 252.719 222.562H250.388C246.782 222.562 243.859 225.486 243.859 229.092Z" fill="#FED8BA"/>
<path d="M283.918 49.5708H192.508C189.277 49.5708 186.659 52.1894 186.659 55.4197V57.5189C186.659 60.7492 189.277 63.3678 192.508 63.3678H283.918C287.149 63.3678 289.767 60.7492 289.767 57.5189V55.4197C289.767 52.1894 287.149 49.5708 283.918 49.5708Z" fill="#492AB1"/>
<path d="M328.552 74.53H192.508C189.277 74.53 186.659 77.1487 186.659 80.3789V82.4782C186.659 85.7084 189.277 88.3271 192.508 88.3271H328.552C331.783 88.3271 334.401 85.7084 334.401 82.4782V80.3789C334.401 77.1487 331.783 74.53 328.552 74.53Z" fill="#492AB1"/>
<defs>
<linearGradient id="paint0_linear_1531_18044" x1="0.722656" y1="265.459" x2="331.026" y2="265.459" gradientUnits="userSpaceOnUse">
<stop stop-color="white"/>
<stop offset="0.38" stop-color="#FAF8FF"/>
<stop offset="0.88" stop-color="#ECE7FF"/>
<stop offset="1" stop-color="#E9E3FF"/>
</linearGradient>
</defs>
</svg>
