<svg width="374" height="249" viewBox="0 0 374 249" fill="none" xmlns="http://www.w3.org/2000/svg">
<path d="M265.029 126.431C266.243 119.019 267.719 111.65 269.446 104.325C269.884 102.477 270.332 100.629 270.802 98.7923C271.13 97.4913 272.442 94.8236 272.092 93.5444C271.797 92.462 270.233 91.4343 269.785 90.2098C269.26 88.7994 269.184 87.2469 269.523 85.7927C270.179 82.9938 272.201 80.6104 274.629 78.8939C280.543 74.7174 288.47 74.2036 295.839 74.5425C303.547 74.8924 311.747 76.2262 317.377 81.2227C322.647 85.9021 324.703 92.9431 325.687 99.7216C327.239 110.392 326.692 121.205 325.905 131.975C325.73 134.402 323.708 136.282 321.28 136.293C304.05 136.37 286.743 136.228 269.774 133.461C268.397 133.232 266.932 132.948 265.959 131.996C264.526 130.597 264.734 128.356 265.051 126.431H265.029Z" fill="black"/>
<path d="M215.666 241.787H278.192L273.732 205.478L239.489 198.82L215.666 241.787Z" fill="white"/>
<path d="M278.192 242.094H215.676C215.567 242.094 215.469 242.039 215.414 241.951C215.359 241.864 215.359 241.744 215.414 241.656L239.237 198.689C239.303 198.579 239.423 198.514 239.555 198.536L273.797 205.194C273.928 205.216 274.016 205.325 274.038 205.445L278.499 241.755C278.499 241.842 278.488 241.93 278.422 241.984C278.367 242.05 278.28 242.083 278.203 242.083L278.192 242.094ZM216.179 241.492H277.854L273.458 205.73L239.642 199.148L216.179 241.481V241.492Z" fill="black"/>
<path d="M260.787 210.256L229.091 209.589C229.091 209.589 243.272 180.518 252.182 163.331C256.424 155.142 263.935 149.118 272.857 146.778C287.606 142.908 312.271 138.545 337.516 143.378C343.004 144.427 347.869 147.543 351.095 152.113C359.645 164.238 364.116 188.991 369.539 206.976L334.553 207.621L342.884 236.736L275.328 236.343L260.798 210.256H260.787Z" fill="#492AB1"/>
<path d="M241.457 247.604H351.303C365.396 247.604 375.837 234.506 372.688 220.763L369.529 206.965C369.529 206.965 345.213 201.203 329.338 207.61L332.651 220.916H281.145C271.359 220.916 261.76 223.999 254.041 230.023C248.804 234.101 243.863 239.808 241.446 247.615L241.457 247.604Z" fill="white"/>
<path d="M351.303 247.899H241.457C241.358 247.899 241.271 247.855 241.216 247.779C241.162 247.702 241.14 247.604 241.173 247.517C243.294 240.661 247.569 234.692 253.866 229.783C257.693 226.798 262.022 224.491 266.734 222.928C266.887 222.873 267.062 222.961 267.117 223.114C267.172 223.267 267.084 223.442 266.931 223.496C262.285 225.038 258.021 227.312 254.249 230.253C248.17 234.998 244.004 240.738 241.883 247.309H351.325C357.95 247.309 364.116 244.335 368.249 239.153C372.382 233.97 373.902 227.29 372.415 220.829L369.255 207.031C369.222 206.867 369.321 206.714 369.485 206.67C369.649 206.637 369.802 206.736 369.845 206.9L373.005 220.697C374.525 227.334 372.961 234.2 368.719 239.524C364.477 244.849 358.136 247.899 351.325 247.899H351.303Z" fill="black"/>
<path d="M255.331 243.449C255.331 243.449 255.255 243.449 255.222 243.427C255.069 243.362 254.992 243.187 255.058 243.034C257.387 237.294 262.547 232.691 268.506 231.018C268.67 230.974 268.834 231.062 268.877 231.226C268.921 231.39 268.834 231.554 268.67 231.597C262.886 233.227 257.879 237.698 255.615 243.263C255.572 243.383 255.451 243.449 255.342 243.449H255.331Z" fill="black"/>
<path d="M266.975 243.701C266.975 243.701 266.898 243.701 266.855 243.679C266.702 243.613 266.636 243.438 266.702 243.285C268.845 238.475 273.108 234.604 278.094 232.931C278.247 232.877 278.422 232.964 278.477 233.117C278.531 233.27 278.444 233.445 278.291 233.5C273.458 235.118 269.326 238.868 267.248 243.526C267.194 243.635 267.084 243.701 266.975 243.701Z" fill="black"/>
<path d="M327.381 207.359C327.25 207.359 327.129 207.271 327.096 207.151L319.902 183.623C319.542 182.431 319.159 181.196 318.383 180.223C317.705 179.37 316.491 178.637 315.31 178.911C315.146 178.943 314.993 178.845 314.95 178.692C314.917 178.528 315.015 178.375 315.168 178.331C316.426 178.036 317.869 178.626 318.842 179.851C319.695 180.911 320.099 182.267 320.471 183.448L327.665 206.976C327.709 207.129 327.621 207.304 327.468 207.348C327.435 207.348 327.413 207.359 327.381 207.359Z" fill="black"/>
<path d="M289.989 190.456C289.322 190.456 288.677 190.368 288.054 190.193C284.621 189.209 282.226 185.645 281.1 179.873C278.848 168.229 279.974 155.732 284.282 144.679C284.337 144.526 284.511 144.449 284.665 144.504C284.818 144.558 284.894 144.733 284.839 144.886C280.575 155.83 279.46 168.218 281.691 179.752C282.434 183.612 284.183 188.455 288.218 189.614C290.219 190.183 292.569 189.734 294.668 188.368C296.702 187.045 298.211 185.11 299.413 183.404C308.094 171.104 310.904 155.448 313.386 141.639C313.419 141.475 313.572 141.366 313.736 141.399C313.9 141.431 314.009 141.584 313.976 141.748C311.484 155.623 308.663 171.345 299.905 183.743C298.659 185.503 297.106 187.482 294.996 188.871C293.4 189.92 291.651 190.456 289.989 190.456Z" fill="black"/>
<path d="M271.217 213.022C267.937 213.022 264.515 211.459 262.208 208.78C259.672 205.828 258.381 201.608 258.666 197.202C258.906 193.506 260.207 189.603 262.536 185.613C262.624 185.471 262.798 185.427 262.941 185.503C263.083 185.591 263.126 185.766 263.05 185.908C260.765 189.811 259.497 193.627 259.256 197.224C258.983 201.477 260.218 205.544 262.656 208.376C265.346 211.502 269.61 213.022 273.283 212.169C273.447 212.137 273.6 212.235 273.644 212.388C273.677 212.552 273.579 212.705 273.425 212.749C272.704 212.913 271.971 213 271.217 213V213.022Z" fill="black"/>
<path d="M288.437 143.433L290.788 164.555L313.168 141.235C309.932 140.24 307.406 137.671 306.488 134.413L300.398 112.874L283.462 121.38L288.437 143.422V143.433Z" fill="white"/>
<path d="M288.437 143.739C288.306 143.739 288.175 143.64 288.142 143.509L283.167 121.468C283.134 121.336 283.2 121.194 283.32 121.14L300.256 112.634C300.332 112.59 300.431 112.59 300.507 112.634C300.584 112.666 300.649 112.743 300.671 112.83L306.761 134.369C307.657 137.55 310.085 140.021 313.244 140.983C313.397 141.027 313.496 141.202 313.441 141.355C313.397 141.508 313.222 141.607 313.069 141.552C309.713 140.524 307.144 137.9 306.192 134.522L300.201 113.333L283.79 121.566L288.71 143.389C288.743 143.553 288.645 143.706 288.481 143.749C288.459 143.749 288.437 143.749 288.415 143.749L288.437 143.739Z" fill="black"/>
<path d="M299.37 107.659C299.37 107.659 303.47 100.727 307.975 102.127C314.83 104.259 314.382 116.504 303.088 115.913C303.088 115.913 289.727 132.98 276.914 128.246C264.1 123.512 273.503 94.6593 275.984 89.7066C275.984 89.7066 293.007 87.4434 294.276 97.6988C295.019 103.668 293.576 107.659 299.37 107.659Z" fill="white"/>
<path d="M281.571 129.361C279.92 129.361 278.334 129.088 276.815 128.52C274.289 127.59 272.441 125.677 271.326 122.845C267.325 112.688 273.732 93.5444 275.721 89.5647C275.765 89.4772 275.853 89.4116 275.951 89.4007C276.366 89.346 286.195 88.0887 291.465 92.1668C293.258 93.5444 294.308 95.403 294.581 97.6662C294.745 98.9891 294.8 100.225 294.854 101.307C295.04 105.166 295.139 107.309 299.206 107.364C299.851 106.325 303.721 100.487 308.062 101.843C311.331 102.859 313.31 106.325 312.665 109.922C312.085 113.148 309.308 116.482 303.229 116.22C302.639 116.941 299.446 120.779 294.986 124.092C290.295 127.579 285.736 129.361 281.56 129.361H281.571ZM276.181 89.9801C274.136 94.2004 267.992 112.776 271.873 122.627C272.923 125.294 274.65 127.087 277.011 127.962C289.475 132.565 302.715 115.903 302.847 115.728C302.901 115.651 303 115.608 303.098 115.618C308.893 115.914 311.528 112.82 312.063 109.813C312.566 107.014 311.265 103.472 307.876 102.411C303.656 101.099 299.665 107.747 299.621 107.812C299.567 107.9 299.468 107.954 299.359 107.954C294.559 107.954 294.428 105.177 294.242 101.329C294.188 100.246 294.133 99.0328 293.969 97.7318C293.706 95.6326 292.733 93.9161 291.072 92.6369C286.348 88.9852 277.46 89.8271 276.159 89.9801H276.181Z" fill="black"/>
<path d="M301.753 111.956C301.677 111.956 301.6 111.923 301.535 111.857C301.425 111.737 301.425 111.551 301.546 111.431C303.284 109.78 305.821 109.047 308.171 109.517C308.335 109.55 308.434 109.703 308.401 109.867C308.368 110.031 308.215 110.13 308.051 110.097C305.886 109.671 303.557 110.337 301.961 111.857C301.907 111.912 301.83 111.945 301.753 111.945V111.956Z" fill="black"/>
<path d="M282.73 111.989C282.402 111.989 282.085 111.956 281.757 111.879C280.445 111.573 279.362 110.687 278.696 109.365C278.04 108.064 277.876 106.511 278.225 104.969C278.958 101.788 281.746 99.6996 284.425 100.312C287.103 100.935 288.688 104.029 287.956 107.211C287.606 108.741 286.764 110.075 285.605 110.95C284.72 111.628 283.714 111.978 282.719 111.978L282.73 111.989ZM283.473 100.804C281.385 100.804 279.395 102.575 278.816 105.101C278.488 106.5 278.641 107.91 279.231 109.091C279.811 110.25 280.762 111.026 281.899 111.289C283.036 111.551 284.228 111.267 285.255 110.48C286.305 109.682 287.059 108.479 287.387 107.08C288.054 104.215 286.666 101.438 284.304 100.891C284.031 100.826 283.758 100.793 283.484 100.793L283.473 100.804Z" fill="black"/>
<path d="M266.035 102.149C265.335 105.177 266.811 108.107 269.336 108.698C271.862 109.277 274.475 107.298 275.186 104.27C275.885 101.241 274.409 98.3113 271.884 97.7209C269.358 97.1414 266.745 99.1203 266.035 102.149Z" fill="white"/>
<path d="M270.244 109.102C269.916 109.102 269.599 109.07 269.271 108.993C266.593 108.37 265.007 105.276 265.74 102.094C266.472 98.9126 269.26 96.8244 271.939 97.4367C273.251 97.7428 274.333 98.6284 275 99.9513C275.656 101.252 275.82 102.805 275.47 104.346C275.12 105.877 274.279 107.211 273.12 108.086C272.234 108.763 271.228 109.113 270.233 109.113L270.244 109.102ZM270.988 97.9177C268.9 97.9177 266.91 99.6889 266.33 102.214C265.663 105.079 267.052 107.856 269.413 108.403C270.55 108.665 271.742 108.381 272.77 107.594C273.819 106.795 274.574 105.593 274.902 104.193C275.23 102.794 275.077 101.384 274.486 100.203C273.907 99.0438 272.956 98.2676 271.819 98.0052C271.545 97.9396 271.272 97.9068 270.999 97.9068L270.988 97.9177Z" fill="black"/>
<path d="M278.521 105.341C278.433 105.341 278.346 105.308 278.291 105.232C278.237 105.166 276.903 103.603 275.339 104.532C275.197 104.62 275.011 104.565 274.935 104.423C274.847 104.281 274.902 104.095 275.044 104.018C276.651 103.067 278.182 104.149 278.761 104.86C278.871 104.991 278.849 105.177 278.718 105.276C278.663 105.319 278.597 105.341 278.532 105.341H278.521Z" fill="black"/>
<path d="M287.672 107.451C287.519 107.451 287.388 107.331 287.377 107.167C287.377 107.003 287.497 106.861 287.661 106.85L299.491 106.118C299.655 106.107 299.797 106.238 299.808 106.402C299.808 106.566 299.688 106.708 299.524 106.719L287.694 107.451C287.694 107.451 287.683 107.451 287.672 107.451Z" fill="black"/>
<path d="M166.226 248.194H289.607C291.312 248.194 292.69 246.817 292.69 245.111V244.39C292.69 241.044 289.979 238.322 286.622 238.322H157.326L158.365 242.181C159.316 245.734 162.541 248.205 166.215 248.205L166.226 248.194Z" fill="black"/>
<path d="M162.629 243.722H238.932C242.19 243.722 244.584 240.661 243.797 237.502L229.376 179.326C228.818 177.085 226.818 175.521 224.511 175.521H148.208C144.95 175.521 142.555 178.583 143.343 181.742L157.764 239.918C158.321 242.159 160.322 243.722 162.629 243.722Z" fill="black"/>
<path d="M238.921 243.876H162.618C160.234 243.876 158.179 242.257 157.599 239.951L143.179 181.775C142.796 180.223 143.135 178.604 144.119 177.347C145.103 176.09 146.59 175.368 148.186 175.368H224.489C226.872 175.368 228.928 176.986 229.507 179.293L243.928 237.469C244.311 239.021 243.972 240.639 242.988 241.897C242.004 243.154 240.517 243.876 238.921 243.876ZM148.208 175.663C146.699 175.663 145.3 176.341 144.381 177.533C143.452 178.725 143.124 180.244 143.496 181.698L157.916 239.874C158.452 242.05 160.398 243.569 162.64 243.569H238.942C240.451 243.569 241.851 242.892 242.78 241.7C243.709 240.508 244.037 238.988 243.666 237.534L229.245 179.359C228.709 177.183 226.763 175.663 224.521 175.663H148.219H148.208Z" fill="black"/>
<path d="M186.004 197.967C186.004 199.356 187.13 200.482 188.519 200.482C189.907 200.482 191.033 199.356 191.033 197.967C191.033 196.579 189.907 195.453 188.519 195.453C187.13 195.453 186.004 196.579 186.004 197.967Z" fill="#492AB1"/>
<path d="M9.87026 37.7415L119.825 37.7415C124.59 37.7415 128.452 33.8793 128.452 29.1152V8.9325C128.452 4.16833 124.59 0.30621 119.825 0.30621L9.87026 0.30621C5.10609 0.30621 1.24397 4.16833 1.24397 8.9325V29.1152C1.24397 33.8793 5.10609 37.7415 9.87026 37.7415Z" fill="white"/>
<path d="M119.825 38.0366H9.86975C4.94981 38.0366 0.948264 34.035 0.948264 29.1151V8.92148C0.937331 4.00155 4.94981 0 9.86975 0H119.825C124.745 0 128.746 4.00155 128.746 8.92148V29.1042C128.746 34.0241 124.745 38.0256 119.825 38.0256V38.0366ZM9.86975 0.601326C5.27781 0.601326 1.53866 4.34048 1.53866 8.93242V29.1151C1.53866 33.707 5.27781 37.4462 9.86975 37.4462H119.825C124.417 37.4462 128.156 33.707 128.156 29.1151V8.92148C128.156 4.32954 124.417 0.590392 119.825 0.590392H9.86975V0.601326Z" fill="black"/>
<path d="M114.736 19.8988C115.22 16.7475 113.058 13.8007 109.906 13.3168C106.755 12.8329 103.808 14.9952 103.324 18.1465C102.841 21.2977 105.003 24.2446 108.154 24.7285C111.305 25.2124 114.252 23.0501 114.736 19.8988Z" fill="#492AB1"/>
<path d="M20.6609 24.7964H88.7419C91.9344 24.7964 94.5146 22.2162 94.5146 19.0237C94.5146 15.8312 91.9344 13.251 88.7419 13.251H20.6609C17.4684 13.251 14.8882 15.8312 14.8882 19.0237C14.8882 22.2162 17.4684 24.7964 20.6609 24.7964Z" fill="#492AB1"/>
<path d="M9.87026 80.2825L119.825 80.2825C124.59 80.2825 128.452 76.4203 128.452 71.6562V51.4735C128.452 46.7093 124.59 42.8472 119.825 42.8472L9.87026 42.8472C5.10609 42.8472 1.24397 46.7093 1.24397 51.4735V71.6562C1.24397 76.4203 5.10609 80.2825 9.87026 80.2825Z" fill="white"/>
<path d="M119.825 80.5776H9.86973C4.94979 80.5776 0.948242 76.5761 0.948242 71.6562V51.4735C0.948242 46.5536 4.94979 42.552 9.86973 42.552H119.825C124.745 42.552 128.746 46.5536 128.746 51.4735V71.6562C128.746 76.5761 124.745 80.5776 119.825 80.5776ZM9.86973 43.1424C5.27779 43.1424 1.53863 46.8816 1.53863 51.4735V71.6562C1.53863 76.2481 5.27779 79.9873 9.86973 79.9873H119.825C124.417 79.9873 128.156 76.2481 128.156 71.6562V51.4735C128.156 46.8816 124.417 43.1424 119.825 43.1424H9.86973Z" fill="black"/>
<path d="M109.61 67.2968C112.783 66.9823 115.1 64.1555 114.786 60.9829C114.471 57.8102 111.644 55.4932 108.472 55.8076C105.299 56.1221 102.982 58.9489 103.296 62.1215C103.611 65.2942 106.438 67.6112 109.61 67.2968Z" fill="white"/>
<path d="M109.034 67.6328C105.689 67.6328 102.956 64.9104 102.956 61.5539C102.956 58.1975 105.678 55.4751 109.034 55.4751C112.391 55.4751 115.113 58.1975 115.113 61.5539C115.113 64.9104 112.391 67.6328 109.034 67.6328ZM109.034 56.0874C106.017 56.0874 103.557 58.5473 103.557 61.5649C103.557 64.5824 106.017 67.0424 109.034 67.0424C112.052 67.0424 114.512 64.5824 114.512 61.5649C114.512 58.5473 112.052 56.0874 109.034 56.0874Z" fill="black"/>
<path d="M20.6609 67.3374H88.7419C91.9344 67.3374 94.5146 64.7572 94.5146 61.5647C94.5146 58.3722 91.9344 55.792 88.7419 55.792H20.6609C17.4684 55.792 14.8882 58.3722 14.8882 61.5647C14.8882 64.7572 17.4684 67.3374 20.6609 67.3374Z" fill="white"/>
<path d="M88.7424 67.6328H20.6614C17.3158 67.6328 14.5825 64.9104 14.5825 61.5539C14.5825 58.1975 17.3049 55.4751 20.6614 55.4751H88.7424C92.0879 55.4751 94.8212 58.1975 94.8212 61.5539C94.8212 64.9104 92.0989 67.6328 88.7424 67.6328ZM20.6614 56.0874C17.6438 56.0874 15.1838 58.5473 15.1838 61.5649C15.1838 64.5824 17.6438 67.0424 20.6614 67.0424H88.7424C91.7599 67.0424 94.2199 64.5824 94.2199 61.5649C94.2199 58.5473 91.7599 56.0874 88.7424 56.0874H20.6614Z" fill="black"/>
<path d="M9.87026 122.834L119.825 122.834C124.59 122.834 128.452 118.972 128.452 114.208V94.0255C128.452 89.2613 124.59 85.3992 119.825 85.3992L9.87026 85.3992C5.10609 85.3992 1.24397 89.2613 1.24397 94.0255V114.208C1.24397 118.972 5.10609 122.834 9.87026 122.834Z" fill="white"/>
<path d="M119.825 123.13H9.86973C4.94979 123.13 0.948242 119.128 0.948242 114.208V94.0255C0.948242 89.1056 4.94979 85.104 9.86973 85.104H119.825C124.745 85.104 128.746 89.1056 128.746 94.0255V114.208C128.746 119.128 124.745 123.13 119.825 123.13ZM9.86973 85.6835C5.27779 85.6835 1.53863 89.4226 1.53863 94.0146V114.197C1.53863 118.789 5.27779 122.528 9.86973 122.528H119.825C124.417 122.528 128.156 118.789 128.156 114.197V94.0146C128.156 89.4226 124.417 85.6835 119.825 85.6835H9.86973Z" fill="black"/>
<path d="M109.034 109.879C112.222 109.879 114.807 107.294 114.807 104.106C114.807 100.918 112.222 98.3333 109.034 98.3333C105.846 98.3333 103.261 100.918 103.261 104.106C103.261 107.294 105.846 109.879 109.034 109.879Z" fill="white"/>
<path d="M109.034 110.185C105.689 110.185 102.956 107.462 102.956 104.106C102.956 100.749 105.678 98.0271 109.034 98.0271C112.391 98.0271 115.113 100.749 115.113 104.106C115.113 107.462 112.391 110.185 109.034 110.185ZM109.034 98.6284C106.017 98.6284 103.557 101.088 103.557 104.106C103.557 107.124 106.017 109.583 109.034 109.583C112.052 109.583 114.512 107.124 114.512 104.106C114.512 101.088 112.052 98.6284 109.034 98.6284Z" fill="black"/>
<path d="M20.6609 109.879H88.7419C91.9344 109.879 94.5146 107.298 94.5146 104.106C94.5146 100.913 91.9344 98.3333 88.7419 98.3333H20.6609C17.4684 98.3333 14.8882 100.913 14.8882 104.106C14.8882 107.298 17.4684 109.879 20.6609 109.879Z" fill="white"/>
<path d="M88.7424 110.185H20.6614C17.3158 110.185 14.5825 107.462 14.5825 104.106C14.5825 100.749 17.3049 98.0271 20.6614 98.0271H88.7424C92.0879 98.0271 94.8212 100.749 94.8212 104.106C94.8212 107.462 92.0989 110.185 88.7424 110.185ZM20.6614 98.6284C17.6438 98.6284 15.1838 101.088 15.1838 104.106C15.1838 107.124 17.6438 109.583 20.6614 109.583H88.7424C91.7599 109.583 94.2199 107.124 94.2199 104.106C94.2199 101.088 91.7599 98.6284 88.7424 98.6284H20.6614Z" fill="black"/>
<path d="M9.87026 165.375L119.825 165.375C124.59 165.375 128.452 161.513 128.452 156.749V136.567C128.452 131.802 124.59 127.94 119.825 127.94L9.87026 127.94C5.10609 127.94 1.24397 131.802 1.24397 136.567V156.749C1.24397 161.513 5.10609 165.375 9.87026 165.375Z" fill="white"/>
<path d="M119.825 165.671H9.86973C4.94979 165.671 0.948242 161.669 0.948242 156.749V136.567C0.948242 131.647 4.94979 127.645 9.86973 127.645H119.825C124.745 127.645 128.746 131.647 128.746 136.567V156.749C128.746 161.669 124.745 165.671 119.825 165.671ZM9.86973 128.235C5.27779 128.235 1.53863 131.975 1.53863 136.567V156.749C1.53863 161.341 5.27779 165.08 9.86973 165.08H119.825C124.417 165.08 128.156 161.341 128.156 156.749V136.567C128.156 131.975 124.417 128.235 119.825 128.235H9.86973Z" fill="black"/>
<path d="M114.69 147.819C115.331 144.696 113.319 141.644 110.196 141.003C107.073 140.362 104.021 142.374 103.38 145.497C102.739 148.62 104.751 151.672 107.874 152.313C110.997 152.954 114.049 150.942 114.69 147.819Z" fill="white"/>
<path d="M109.034 152.726C105.689 152.726 102.956 150.003 102.956 146.647C102.956 143.29 105.678 140.568 109.034 140.568C112.391 140.568 115.113 143.29 115.113 146.647C115.113 150.003 112.391 152.726 109.034 152.726ZM109.034 141.18C106.017 141.18 103.557 143.64 103.557 146.658C103.557 149.675 106.017 152.135 109.034 152.135C112.052 152.135 114.512 149.675 114.512 146.658C114.512 143.64 112.052 141.18 109.034 141.18Z" fill="black"/>
<path d="M20.6609 152.431H88.7419C91.9344 152.431 94.5146 149.85 94.5146 146.658C94.5146 143.465 91.9344 140.885 88.7419 140.885H20.6609C17.4684 140.885 14.8882 143.465 14.8882 146.658C14.8882 149.85 17.4684 152.431 20.6609 152.431Z" fill="white"/>
<path d="M88.7424 152.726H20.6614C17.3158 152.726 14.5825 150.003 14.5825 146.647C14.5825 143.29 17.3049 140.568 20.6614 140.568H88.7424C92.0879 140.568 94.8212 143.29 94.8212 146.647C94.8212 150.003 92.0989 152.726 88.7424 152.726ZM20.6614 141.18C17.6438 141.18 15.1838 143.64 15.1838 146.658C15.1838 149.675 17.6438 152.135 20.6614 152.135H88.7424C91.7599 152.135 94.2199 149.675 94.2199 146.658C94.2199 143.64 91.7599 141.18 88.7424 141.18H20.6614Z" fill="black"/>
<path d="M186.004 165.671H119.825C119.661 165.671 119.53 165.54 119.53 165.376C119.53 165.212 119.661 165.08 119.825 165.08H186.004C186.168 165.08 186.299 165.212 186.299 165.376C186.299 165.54 186.168 165.671 186.004 165.671Z" fill="black"/>
<path d="M292.876 247.899H59.4085C59.2445 247.899 59.1133 247.768 59.1133 247.604C59.1133 247.44 59.2445 247.309 59.4085 247.309H292.876C293.04 247.309 293.171 247.44 293.171 247.604C293.171 247.768 293.04 247.899 292.876 247.899Z" fill="black"/>
<path d="M231.299 49.2651H142.861V104.073H231.299V49.2651Z" fill="white"/>
<path d="M231.376 104.521H142.872C142.621 104.521 142.424 104.325 142.424 104.073V49.3306C142.424 49.0791 142.621 48.8823 142.872 48.8823H231.376C231.628 48.8823 231.825 49.0791 231.825 49.3306V104.073C231.825 104.325 231.628 104.521 231.376 104.521ZM143.32 103.625H230.928V49.7788H143.32V103.625Z" fill="#FEC432"/>
<path d="M231.376 95.4029H142.872C142.621 95.4029 142.424 95.2061 142.424 94.9546C142.424 94.7031 142.621 94.5063 142.872 94.5063H231.376C231.628 94.5063 231.825 94.7031 231.825 94.9546C231.825 95.2061 231.628 95.4029 231.376 95.4029Z" fill="#FEC432"/>
<path d="M231.376 86.2737H142.872C142.621 86.2737 142.424 86.0769 142.424 85.8255C142.424 85.574 142.621 85.3772 142.872 85.3772H231.376C231.628 85.3772 231.825 85.574 231.825 85.8255C231.825 86.0769 231.628 86.2737 231.376 86.2737Z" fill="#FEC432"/>
<path d="M231.376 77.1556H142.872C142.621 77.1556 142.424 76.9588 142.424 76.7073C142.424 76.4558 142.621 76.259 142.872 76.259H231.376C231.628 76.259 231.825 76.4558 231.825 76.7073C231.825 76.9588 231.628 77.1556 231.376 77.1556Z" fill="#FEC432"/>
<path d="M231.376 68.0262H142.872C142.621 68.0262 142.424 67.8294 142.424 67.5779C142.424 67.3264 142.621 67.1296 142.872 67.1296H231.376C231.628 67.1296 231.825 67.3264 231.825 67.5779C231.825 67.8294 231.628 68.0262 231.376 68.0262Z" fill="#FEC432"/>
<path d="M231.376 58.908H142.872C142.621 58.908 142.424 58.7112 142.424 58.4597C142.424 58.2083 142.621 58.0115 142.872 58.0115H231.376C231.628 58.0115 231.825 58.2083 231.825 58.4597C231.825 58.7112 231.628 58.908 231.376 58.908Z" fill="#FEC432"/>
<path d="M157.621 104.521C157.37 104.521 157.173 104.325 157.173 104.073V49.3306C157.173 49.0791 157.37 48.8823 157.621 48.8823C157.873 48.8823 158.069 49.0791 158.069 49.3306V104.073C158.069 104.325 157.873 104.521 157.621 104.521Z" fill="#FEC432"/>
<path d="M172.381 104.521C172.129 104.521 171.933 104.325 171.933 104.073V49.3306C171.933 49.0791 172.129 48.8823 172.381 48.8823C172.632 48.8823 172.829 49.0791 172.829 49.3306V104.073C172.829 104.325 172.632 104.521 172.381 104.521Z" fill="#FEC432"/>
<path d="M187.129 104.521C186.878 104.521 186.681 104.325 186.681 104.073V49.3306C186.681 49.0791 186.878 48.8823 187.129 48.8823C187.381 48.8823 187.578 49.0791 187.578 49.3306V104.073C187.578 104.325 187.381 104.521 187.129 104.521Z" fill="#FEC432"/>
<path d="M201.879 104.521C201.627 104.521 201.431 104.325 201.431 104.073V49.3306C201.431 49.0791 201.627 48.8823 201.879 48.8823C202.13 48.8823 202.327 49.0791 202.327 49.3306V104.073C202.327 104.325 202.13 104.521 201.879 104.521Z" fill="#FEC432"/>
<path d="M216.627 104.521C216.376 104.521 216.179 104.325 216.179 104.073V49.3306C216.179 49.0791 216.376 48.8823 216.627 48.8823C216.879 48.8823 217.076 49.0791 217.076 49.3306V104.073C217.076 104.325 216.879 104.521 216.627 104.521Z" fill="#FEC432"/>
<path d="M144.479 102.586C144.479 102.586 144.392 102.586 144.348 102.553C144.206 102.477 144.14 102.302 144.217 102.149L157.446 76.4556C157.512 76.3244 157.665 76.2588 157.807 76.3134L186.769 85.8691L217.152 66.9984L229.627 50.7188C229.725 50.5876 229.911 50.5658 230.042 50.6642C230.174 50.7626 230.196 50.9484 230.097 51.0796L217.59 67.4029C217.59 67.4029 217.546 67.4576 217.513 67.4794L186.966 86.4485C186.889 86.4922 186.802 86.5032 186.714 86.4813L157.862 76.9585L144.753 102.422C144.698 102.52 144.6 102.586 144.49 102.586H144.479Z" fill="black"/>
<path d="M157.741 80.3589C159.891 80.3589 161.634 78.6163 161.634 76.4667C161.634 74.3171 159.891 72.5745 157.741 72.5745C155.592 72.5745 153.849 74.3171 153.849 76.4667C153.849 78.6163 155.592 80.3589 157.741 80.3589Z" fill="white"/>
<path d="M157.742 80.6541C155.435 80.6541 153.554 78.7736 153.554 76.4667C153.554 74.1598 155.435 72.2793 157.742 72.2793C160.049 72.2793 161.929 74.1598 161.929 76.4667C161.929 78.7736 160.049 80.6541 157.742 80.6541ZM157.742 72.8806C155.763 72.8806 154.145 74.4878 154.145 76.4667C154.145 78.4456 155.752 80.0528 157.742 80.0528C159.731 80.0528 161.339 78.4456 161.339 76.4667C161.339 74.4878 159.731 72.8806 157.742 72.8806Z" fill="black"/>
<path d="M186.823 89.8052C188.973 89.8052 190.716 88.0626 190.716 85.913C190.716 83.7634 188.973 82.0208 186.823 82.0208C184.674 82.0208 182.931 83.7634 182.931 85.913C182.931 88.0626 184.674 89.8052 186.823 89.8052Z" fill="white"/>
<path d="M186.823 90.1004C184.516 90.1004 182.636 88.2199 182.636 85.913C182.636 83.6061 184.516 81.7256 186.823 81.7256C189.13 81.7256 191.011 83.6061 191.011 85.913C191.011 88.2199 189.13 90.1004 186.823 90.1004ZM186.823 82.3269C184.844 82.3269 183.226 83.9341 183.226 85.913C183.226 87.8919 184.833 89.4991 186.823 89.4991C188.813 89.4991 190.42 87.8919 190.42 85.913C190.42 83.9341 188.813 82.3269 186.823 82.3269Z" fill="black"/>
<path d="M217.021 71.4812C219.171 71.4812 220.913 69.7386 220.913 67.589C220.913 65.4394 219.171 63.6968 217.021 63.6968C214.872 63.6968 213.129 65.4394 213.129 67.589C213.129 69.7386 214.872 71.4812 217.021 71.4812Z" fill="white"/>
<path d="M217.021 71.7764C214.714 71.7764 212.833 69.8959 212.833 67.589C212.833 65.2821 214.714 63.4016 217.021 63.4016C219.328 63.4016 221.208 65.2821 221.208 67.589C221.208 69.8959 219.328 71.7764 217.021 71.7764ZM217.021 64.0029C215.042 64.0029 213.424 65.6101 213.424 67.589C213.424 69.5679 215.031 71.1751 217.021 71.1751C219.011 71.1751 220.618 69.5679 220.618 67.589C220.618 65.6101 219.011 64.0029 217.021 64.0029Z" fill="black"/>
<path d="M230.927 121.183C240.057 121.183 247.458 113.792 247.458 104.674C247.458 95.5564 240.057 88.165 230.927 88.165C221.798 88.165 214.396 95.5564 214.396 104.674C214.396 113.792 221.798 121.183 230.927 121.183Z" fill="white"/>
<path d="M230.928 121.478C221.646 121.478 214.091 113.935 214.091 104.674C214.091 95.4138 221.646 87.8699 230.928 87.8699C240.21 87.8699 247.765 95.4138 247.765 104.674C247.765 113.935 240.21 121.478 230.928 121.478ZM230.928 88.4603C221.974 88.4603 214.692 95.7308 214.692 104.674C214.692 113.618 221.974 120.888 230.928 120.888C239.882 120.888 247.164 113.618 247.164 104.674C247.164 95.7308 239.882 88.4603 230.928 88.4603Z" fill="black"/>
<path d="M249.449 100.137C247.47 91.7733 239.948 85.5413 230.972 85.5085V104.598C230.972 104.598 246.366 100.848 249.449 100.137Z" fill="#FEC432"/>
<path d="M220.159 90.4065C216.277 93.3147 213.795 97.6443 213.15 102.313C217.524 102.892 230.993 104.674 230.993 104.674C230.993 104.674 221.93 92.8009 220.159 90.4065Z" fill="white"/>
<path d="M230.993 104.97C230.993 104.97 230.972 104.97 230.95 104.97C230.95 104.97 217.48 103.188 213.107 102.608C213.03 102.608 212.954 102.553 212.91 102.488C212.866 102.422 212.844 102.346 212.855 102.269C213.522 97.4695 216.113 93.0634 219.984 90.1661C220.049 90.1224 220.126 90.1005 220.202 90.1114C220.279 90.1224 220.356 90.1661 220.399 90.2317C222.159 92.5933 231.147 104.379 231.234 104.489C231.311 104.587 231.311 104.718 231.256 104.817C231.201 104.915 231.103 104.97 230.993 104.97ZM213.489 102.05C217.491 102.586 227.55 103.909 230.316 104.281C228.544 101.963 221.93 93.2821 220.093 90.833C216.562 93.5663 214.178 97.6335 213.479 102.061L213.489 102.05Z" fill="black"/>
<path d="M213.085 165.671H142.861C142.697 165.671 142.566 165.539 142.566 165.375V121.654C142.566 121.49 142.697 121.358 142.861 121.358C143.025 121.358 143.156 121.49 143.156 121.654V165.08H213.085C213.249 165.08 213.38 165.211 213.38 165.375C213.38 165.539 213.249 165.671 213.085 165.671Z" fill="black"/>
<path d="M151.99 133.472H145.78V162.85H151.99V133.472Z" fill="white"/>
<path d="M151.99 163.145H145.78C145.616 163.145 145.485 163.014 145.485 162.85V133.472C145.485 133.308 145.616 133.177 145.78 133.177H151.99C152.154 133.177 152.285 133.308 152.285 133.472V162.85C152.285 163.014 152.154 163.145 151.99 163.145ZM146.086 162.544H151.706V133.757H146.086V162.544Z" fill="black"/>
<path d="M161.775 147.062H155.565V162.85H161.775V147.062Z" fill="white"/>
<path d="M161.776 163.145H155.566C155.402 163.145 155.271 163.014 155.271 162.85V147.062C155.271 146.898 155.402 146.767 155.566 146.767H161.776C161.94 146.767 162.071 146.898 162.071 147.062V162.85C162.071 163.014 161.94 163.145 161.776 163.145ZM155.861 162.544H161.481V147.357H155.861V162.544Z" fill="black"/>
<path d="M171.55 140.918H165.34V162.85H171.55V140.918Z" fill="white"/>
<path d="M171.55 163.145H165.34C165.176 163.145 165.044 163.014 165.044 162.85V140.918C165.044 140.754 165.176 140.623 165.34 140.623H171.55C171.714 140.623 171.845 140.754 171.845 140.918V162.85C171.845 163.014 171.714 163.145 171.55 163.145ZM165.635 162.544H171.254V141.213H165.635V162.544Z" fill="black"/>
<path d="M181.335 131.308H175.125V162.85H181.335V131.308Z" fill="white"/>
<path d="M181.335 163.145H175.125C174.961 163.145 174.83 163.014 174.83 162.85V131.308C174.83 131.144 174.961 131.012 175.125 131.012H181.335C181.499 131.012 181.63 131.144 181.63 131.308V162.85C181.63 163.014 181.499 163.145 181.335 163.145ZM175.42 162.544H181.04V131.603H175.42V162.544Z" fill="black"/>
<path d="M190.956 124.715H185.052V162.85H190.956V124.715Z" fill="white"/>
<path d="M190.956 163.145H185.052C184.888 163.145 184.757 163.014 184.757 162.85V124.715C184.757 124.551 184.888 124.42 185.052 124.42H190.956C191.12 124.42 191.251 124.551 191.251 124.715V162.85C191.251 163.014 191.12 163.145 190.956 163.145ZM185.358 162.544H190.661V125.01H185.358V162.544Z" fill="black"/>
<path d="M200.894 122.692H194.684V162.85H200.894V122.692Z" fill="white"/>
<path d="M200.894 163.145H194.684C194.52 163.145 194.389 163.014 194.389 162.85V122.692C194.389 122.528 194.52 122.397 194.684 122.397H200.894C201.058 122.397 201.19 122.528 201.19 122.692V162.85C201.19 163.014 201.058 163.145 200.894 163.145ZM194.98 162.544H200.599V122.987H194.98V162.544Z" fill="black"/>
<path d="M210.669 127.689H204.458V162.85H210.669V127.689Z" fill="white"/>
<path d="M210.668 163.145H204.458C204.294 163.145 204.163 163.014 204.163 162.85V127.689C204.163 127.525 204.294 127.394 204.458 127.394H210.668C210.832 127.394 210.964 127.525 210.964 127.689V162.85C210.964 163.014 210.832 163.145 210.668 163.145ZM204.753 162.544H210.373V127.984H204.753V162.544Z" fill="black"/>
<path d="M237.16 8.88873H145.78C145.616 8.88873 145.485 8.75753 145.485 8.59354C145.485 8.42954 145.616 8.29834 145.78 8.29834H237.16C237.324 8.29834 237.455 8.42954 237.455 8.59354C237.455 8.75753 237.324 8.88873 237.16 8.88873Z" fill="black"/>
<path d="M162.814 16.4544H145.78C145.616 16.4544 145.485 16.3232 145.485 16.1592C145.485 15.9952 145.616 15.864 145.78 15.864H162.814C162.978 15.864 163.109 15.9952 163.109 16.1592C163.109 16.3232 162.978 16.4544 162.814 16.4544Z" fill="black"/>
<path d="M206.175 16.4544H172.774C172.61 16.4544 172.479 16.3232 172.479 16.1592C172.479 15.9952 172.61 15.864 172.774 15.864H206.175C206.339 15.864 206.47 15.9952 206.47 16.1592C206.47 16.3232 206.339 16.4544 206.175 16.4544Z" fill="black"/>
<path d="M175.529 24.0091H145.78C145.616 24.0091 145.485 23.8779 145.485 23.7139C145.485 23.5499 145.616 23.4187 145.78 23.4187H175.529C175.693 23.4187 175.824 23.5499 175.824 23.7139C175.824 23.8779 175.693 24.0091 175.529 24.0091Z" fill="black"/>
<path d="M206.176 24.0091H192.509C192.345 24.0091 192.214 23.8779 192.214 23.7139C192.214 23.5499 192.345 23.4187 192.509 23.4187H206.176C206.34 23.4187 206.471 23.5499 206.471 23.7139C206.471 23.8779 206.34 24.0091 206.176 24.0091Z" fill="black"/>
<path d="M161.305 31.5753H145.78C145.616 31.5753 145.485 31.4441 145.485 31.2801C145.485 31.1161 145.616 30.9849 145.78 30.9849H161.305C161.469 30.9849 161.6 31.1161 161.6 31.2801C161.6 31.4441 161.469 31.5753 161.305 31.5753Z" fill="black"/>
<path d="M206.175 31.5753H169.789C169.625 31.5753 169.494 31.4441 169.494 31.2801C169.494 31.1161 169.625 30.9849 169.789 30.9849H206.175C206.339 30.9849 206.47 31.1161 206.47 31.2801C206.47 31.4441 206.339 31.5753 206.175 31.5753Z" fill="black"/>
<path d="M246.179 12.2015C248.172 12.2015 249.787 10.5862 249.787 8.59355C249.787 6.60093 248.172 4.9856 246.179 4.9856C244.187 4.9856 242.571 6.60093 242.571 8.59355C242.571 10.5862 244.187 12.2015 246.179 12.2015Z" fill="#FEC432"/>
<path d="M312.752 35.3798C315.017 35.3798 316.852 33.5442 316.852 31.2799C316.852 29.0155 315.017 27.1799 312.752 27.1799C310.488 27.1799 308.652 29.0155 308.652 31.2799C308.652 33.5442 310.488 35.3798 312.752 35.3798Z" fill="#FEC432"/>
<path d="M300.769 35.3798C303.034 35.3798 304.869 33.5442 304.869 31.2799C304.869 29.0155 303.034 27.1799 300.769 27.1799C298.505 27.1799 296.669 29.0155 296.669 31.2799C296.669 33.5442 298.505 35.3798 300.769 35.3798Z" fill="#FEC432"/>
<path d="M288.797 35.3798C291.062 35.3798 292.897 33.5442 292.897 31.2799C292.897 29.0155 291.062 27.1799 288.797 27.1799C286.533 27.1799 284.697 29.0155 284.697 31.2799C284.697 33.5442 286.533 35.3798 288.797 35.3798Z" fill="#FEC432"/>
<path d="M231.376 44.061C231.212 44.061 231.081 43.9298 231.081 43.7658V31.2801C231.081 31.1161 231.212 30.9849 231.376 30.9849H280.401C280.565 30.9849 280.696 31.1161 280.696 31.2801C280.696 31.4441 280.565 31.5753 280.401 31.5753H231.671V43.7658C231.671 43.9298 231.54 44.061 231.376 44.061Z" fill="black"/>
</svg>
