<svg width="332" height="222" viewBox="0 0 332 222" fill="none" xmlns="http://www.w3.org/2000/svg">
<path d="M91.36 174.28H50.29V221.41H91.36V174.28Z" fill="#FFC136"/>
<path d="M163.56 135.62H122.49V221.41H163.56V135.62Z" fill="#FFC136"/>
<path d="M235.76 104.03H194.69V221.41H235.76V104.03Z" fill="#FFC136"/>
<path d="M307.24 73.8899H266.17V221.41H307.24V73.8899Z" fill="#FFC136"/>
<path d="M225.86 89.22L108.73 169.72L70.1296 194.87L61.1796 150.86L28.8096 146.3L225.86 89.22Z" fill="white"/>
<path d="M70.1298 195.14C70.1298 195.14 70.0598 195.14 70.0298 195.12C69.9498 195.09 69.8898 195.01 69.8698 194.93L60.9598 151.1L28.7798 146.57C28.6598 146.55 28.5598 146.45 28.5498 146.32C28.5498 146.19 28.6198 146.08 28.7398 146.04L225.79 88.9599C225.92 88.9199 226.05 88.9799 226.11 89.0999C226.17 89.2199 226.13 89.3599 226.02 89.4299L108.89 169.93L70.2898 195.09C70.2898 195.09 70.1998 195.13 70.1398 195.13L70.1298 195.14ZM30.0898 146.21L61.2198 150.59C61.3298 150.61 61.4198 150.69 61.4398 150.8L70.3098 194.43L108.58 169.49L224.35 89.9299L30.0898 146.21Z" fill="black"/>
<path d="M65.0996 150.14C64.9896 150.14 64.8896 150.07 64.8496 149.97C64.7996 149.83 64.8696 149.68 65.0096 149.63L225.77 88.98C225.91 88.93 226.06 89 226.11 89.14C226.16 89.28 226.09 89.43 225.95 89.48L65.1896 150.13C65.1896 150.13 65.1296 150.15 65.0996 150.15V150.14Z" fill="black"/>
<path d="M86.9098 162.68L76.9798 155.01L75.3198 164.82L86.9098 162.68Z" fill="white"/>
<path d="M76.8999 154.75L117.26 185.94L225.86 89.2197L76.8999 154.75Z" fill="white"/>
<path d="M117.26 186.2C117.2 186.2 117.15 186.18 117.1 186.14L76.7397 154.96C76.6697 154.9 76.6297 154.81 76.6397 154.72C76.6497 154.63 76.7097 154.55 76.7997 154.51L225.76 88.9798C225.88 88.9298 226.02 88.9698 226.09 89.0798C226.16 89.1898 226.14 89.3398 226.04 89.4198L117.44 186.13C117.39 186.17 117.33 186.2 117.26 186.2ZM77.4197 154.82L117.25 185.59L224.42 90.1498L77.4197 154.82Z" fill="black"/>
<path d="M71.0699 189.57C71.0699 189.57 71.0399 189.57 71.0299 189.57C70.8799 189.55 70.7899 189.41 70.8099 189.26L76.6399 154.71C76.6599 154.56 76.7999 154.47 76.9499 154.49C77.0999 154.51 77.1899 154.65 77.1699 154.8L71.3399 189.35C71.3199 189.48 71.2099 189.57 71.0799 189.57H71.0699Z" fill="black"/>
<path d="M162.64 43.99C162.55 43.99 162.47 43.95 162.42 43.87C162.34 43.75 162.37 43.58 162.49 43.5L180.69 31.24C180.81 31.16 180.98 31.19 181.06 31.31C181.14 31.43 181.11 31.6 180.99 31.68L162.79 43.94C162.79 43.94 162.69 43.99 162.64 43.99Z" fill="black"/>
<path d="M208.41 81.8098C208.32 81.8098 208.24 81.7698 208.19 81.6898C208.11 81.5698 208.14 81.3998 208.27 81.3198L260 47.5998C260.12 47.5198 260.29 47.5498 260.37 47.6798C260.45 47.7998 260.42 47.9698 260.29 48.0498L208.56 81.7698C208.56 81.7698 208.46 81.8098 208.41 81.8098Z" fill="black"/>
<path d="M259.16 51.0899C259.16 51.0899 259.1 51.0899 259.07 51.0699C258.93 51.0199 258.86 50.8699 258.91 50.7299L259.93 47.9199L256.94 47.7399C256.79 47.7399 256.68 47.5999 256.69 47.4599C256.69 47.3099 256.82 47.1999 256.97 47.2099L260.32 47.4199C260.4 47.4199 260.48 47.4699 260.53 47.5399C260.58 47.6099 260.59 47.6999 260.56 47.7799L259.42 50.9299C259.38 51.0399 259.28 51.1099 259.17 51.1099L259.16 51.0899Z" fill="black"/>
<path d="M161.83 31.2399C161.74 31.2399 161.66 31.1999 161.61 31.1199C161.53 30.9999 161.56 30.8299 161.68 30.7499L199.24 5.45993C199.36 5.37993 199.53 5.40993 199.61 5.52993C199.69 5.64993 199.66 5.81993 199.54 5.89993L161.98 31.1899C161.98 31.1899 161.88 31.2399 161.83 31.2399Z" fill="black"/>
<path d="M198.72 8.80983C198.72 8.80983 198.66 8.80983 198.63 8.78983C198.49 8.73983 198.42 8.58983 198.47 8.44983L199.49 5.63983L196.5 5.45983C196.35 5.45983 196.24 5.31983 196.25 5.17983C196.25 5.02983 196.38 4.91983 196.53 4.92983L199.88 5.13983C199.96 5.13983 200.04 5.18983 200.09 5.25983C200.14 5.32983 200.15 5.41983 200.12 5.49983L198.98 8.64983C198.94 8.75983 198.84 8.82983 198.73 8.82983L198.72 8.80983Z" fill="black"/>
<path d="M99.6099 37.86C99.5199 37.86 99.4399 37.82 99.3899 37.74C99.3099 37.62 99.3399 37.45 99.4599 37.37L124.44 20.56C124.56 20.48 124.73 20.51 124.81 20.63C124.89 20.75 124.86 20.92 124.74 21L99.7599 37.81C99.7599 37.81 99.6599 37.86 99.6099 37.86Z" fill="black"/>
<path d="M123.95 23.7599C123.95 23.7599 123.89 23.7599 123.86 23.7399C123.72 23.6899 123.65 23.5399 123.7 23.3999L124.67 20.7399L121.84 20.5699C121.69 20.5699 121.58 20.4299 121.59 20.2899C121.59 20.1399 121.73 20.0299 121.87 20.0399L125.05 20.2399C125.13 20.2399 125.21 20.2899 125.26 20.3599C125.31 20.4299 125.32 20.5199 125.29 20.5999L124.2 23.5899C124.16 23.6999 124.06 23.7699 123.95 23.7699V23.7599Z" fill="black"/>
<path d="M224.13 20.6098C224.04 20.6098 223.96 20.5698 223.91 20.4898C223.83 20.3698 223.86 20.1998 223.98 20.1198L252.98 0.599825C253.1 0.519825 253.27 0.549825 253.35 0.669825C253.43 0.789825 253.4 0.959825 253.28 1.03982L224.28 20.5598C224.28 20.5598 224.18 20.6098 224.13 20.6098Z" fill="black"/>
<path d="M252.39 4.2399C252.39 4.2399 252.33 4.2399 252.3 4.2199C252.16 4.1699 252.09 4.0199 252.14 3.8799L253.28 0.739899L249.94 0.529898C249.79 0.529898 249.68 0.389898 249.69 0.249898C249.69 0.0998985 249.82 -0.0101015 249.97 -0.000101511L253.67 0.229898C253.75 0.229898 253.83 0.279898 253.88 0.349898C253.93 0.419898 253.94 0.509898 253.91 0.589898L252.65 4.0599C252.61 4.1699 252.51 4.2399 252.4 4.2399H252.39Z" fill="black"/>
<path d="M331.151 110.701C331.157 108.701 329.541 107.076 327.542 107.07C325.543 107.064 323.917 108.68 323.911 110.679C323.905 112.678 325.521 114.304 327.52 114.31C329.52 114.316 331.145 112.7 331.151 110.701Z" fill="#492AB1"/>
<path d="M331.151 121.272C331.157 119.273 329.541 117.647 327.542 117.641C325.543 117.635 323.917 119.251 323.911 121.25C323.905 123.25 325.521 124.875 327.52 124.881C329.52 124.887 331.145 123.271 331.151 121.272Z" fill="white"/>
<path d="M327.51 125.14C325.37 125.14 323.62 123.4 323.62 121.25C323.62 119.1 325.36 117.36 327.51 117.36C329.66 117.36 331.4 119.1 331.4 121.25C331.4 123.4 329.66 125.14 327.51 125.14ZM327.51 117.89C325.66 117.89 324.16 119.4 324.16 121.25C324.16 123.1 325.66 124.61 327.51 124.61C329.36 124.61 330.86 123.1 330.86 121.25C330.86 119.4 329.36 117.89 327.51 117.89Z" fill="black"/>
<path d="M331.151 131.833C331.157 129.834 329.541 128.208 327.542 128.202C325.543 128.196 323.917 129.812 323.911 131.812C323.905 133.811 325.521 135.436 327.52 135.442C329.52 135.448 331.145 133.832 331.151 131.833Z" fill="white"/>
<path d="M327.51 135.71C325.37 135.71 323.62 133.97 323.62 131.82C323.62 129.67 325.36 127.93 327.51 127.93C329.66 127.93 331.4 129.67 331.4 131.82C331.4 133.97 329.66 135.71 327.51 135.71ZM327.51 128.46C325.66 128.46 324.16 129.97 324.16 131.82C324.16 133.67 325.66 135.18 327.51 135.18C329.36 135.18 330.86 133.67 330.86 131.82C330.86 129.97 329.36 128.46 327.51 128.46Z" fill="black"/>
<path d="M327.5 196.42H313.97C313.82 196.42 313.7 196.3 313.7 196.15C313.7 196 313.82 195.88 313.97 195.88H327.23V140.8C327.23 140.65 327.35 140.53 327.5 140.53C327.65 140.53 327.77 140.65 327.77 140.8V196.15C327.77 196.3 327.65 196.42 327.5 196.42Z" fill="black"/>
<path d="M32.3901 124.55C33.4201 122.95 32.9601 120.81 31.3601 119.78C31.2401 119.7 31.1201 119.64 30.9901 119.58C31.4501 118.23 31.7001 116.84 31.7401 115.45C31.8801 115.44 32.0201 115.42 32.1601 115.39C34.0201 114.99 35.2101 113.15 34.8101 111.29C34.4101 109.43 32.5701 108.24 30.7101 108.65C30.5701 108.68 30.4401 108.72 30.3101 108.77C29.7001 107.52 28.9001 106.36 27.9201 105.32C28.0101 105.21 28.0901 105.1 28.1701 104.98C29.2001 103.38 28.7401 101.24 27.1401 100.21C25.5401 99.1799 23.4001 99.6399 22.3701 101.24C22.2901 101.36 22.2301 101.48 22.1701 101.61C20.8201 101.15 19.4301 100.9 18.0401 100.86C18.0301 100.72 18.0101 100.58 17.9801 100.45C17.5801 98.5899 15.7401 97.3999 13.8801 97.8099C12.0201 98.2099 10.8301 100.05 11.2301 101.91C11.2601 102.05 11.3001 102.18 11.3501 102.31C10.1001 102.92 8.93013 103.72 7.89013 104.7C7.78013 104.61 7.67013 104.53 7.55013 104.45C5.95013 103.42 3.81013 103.88 2.78013 105.48C1.75013 107.08 2.21013 109.22 3.81013 110.25C3.93013 110.33 4.05013 110.39 4.18013 110.45C3.72013 111.8 3.47013 113.19 3.43013 114.58C3.29013 114.59 3.15013 114.61 3.01013 114.64C1.15013 115.04 -0.0398746 116.88 0.360125 118.74C0.760125 120.6 2.60013 121.79 4.46013 121.38C4.60013 121.35 4.73013 121.31 4.86013 121.26C5.47013 122.51 6.27013 123.67 7.25013 124.71C7.16013 124.82 7.08013 124.93 7.00013 125.05C5.97013 126.65 6.43013 128.79 8.03013 129.82C9.63013 130.85 11.7701 130.39 12.8001 128.79C12.8801 128.67 12.9401 128.55 13.0001 128.42C14.3501 128.88 15.7401 129.13 17.1301 129.17C17.1401 129.31 17.1601 129.45 17.1901 129.58C17.5901 131.44 19.4301 132.63 21.2901 132.22C23.1501 131.82 24.3401 129.98 23.9401 128.12C23.9101 127.98 23.8701 127.85 23.8201 127.72C25.0701 127.11 26.2401 126.31 27.2801 125.33C27.3901 125.42 27.5001 125.5 27.6201 125.58C29.2201 126.61 31.3601 126.15 32.3901 124.55ZM22.9601 118.47C21.0401 121.44 17.0701 122.3 14.1001 120.38C11.1201 118.46 10.2701 114.5 12.1901 111.52C14.1101 108.55 18.0801 107.69 21.0501 109.61C24.0301 111.53 24.8801 115.49 22.9601 118.47Z" fill="white"/>
<path d="M20.56 132.56C18.85 132.56 17.3 131.37 16.93 129.63C16.92 129.56 16.9 129.49 16.89 129.42C15.61 129.36 14.35 129.13 13.13 128.73C13.09 128.8 13.06 128.86 13.02 128.92C11.91 130.64 9.60003 131.14 7.88003 130.03C7.05003 129.49 6.47003 128.66 6.26003 127.69C6.05003 126.72 6.23003 125.73 6.77003 124.89C6.81003 124.83 6.85003 124.77 6.89003 124.71C6.03003 123.76 5.30003 122.71 4.71003 121.57C4.64003 121.59 4.57003 121.61 4.50003 121.62C2.50003 122.05 0.510031 120.77 0.0800314 118.77C-0.129969 117.8 0.0500313 116.81 0.590031 115.97C1.13003 115.14 1.96003 114.56 2.93003 114.35C3.00003 114.34 3.07003 114.32 3.14003 114.31C3.20003 113.03 3.43003 111.77 3.83003 110.55C3.76003 110.51 3.70003 110.48 3.64003 110.44C2.81003 109.9 2.23003 109.07 2.02003 108.1C1.81003 107.13 1.99003 106.14 2.53003 105.3C3.64003 103.58 5.95003 103.08 7.67003 104.19C7.73003 104.23 7.79003 104.27 7.85003 104.31C8.80003 103.45 9.85003 102.72 11 102.14C10.98 102.07 10.96 102 10.95 101.93C10.74 100.96 10.92 99.9699 11.46 99.1299C12 98.2999 12.83 97.7199 13.8 97.5099C15.8 97.0799 17.79 98.3599 18.22 100.36C18.23 100.43 18.25 100.5 18.26 100.57C19.54 100.63 20.8 100.86 22.02 101.26C22.06 101.19 22.09 101.13 22.13 101.07C23.24 99.3499 25.55 98.8499 27.27 99.9599C28.1 100.5 28.68 101.33 28.89 102.3C29.1 103.27 28.92 104.26 28.38 105.1C28.34 105.16 28.3 105.22 28.26 105.28C29.12 106.23 29.85 107.28 30.44 108.42C30.51 108.4 30.58 108.38 30.65 108.37C32.65 107.94 34.64 109.22 35.07 111.22C35.28 112.19 35.1 113.18 34.56 114.02C34.02 114.85 33.19 115.43 32.22 115.64C32.15 115.65 32.08 115.67 32.01 115.68C31.95 116.96 31.72 118.22 31.32 119.44C31.39 119.48 31.45 119.51 31.51 119.55C32.34 120.09 32.92 120.92 33.13 121.89C33.34 122.86 33.16 123.85 32.62 124.69C31.51 126.41 29.2 126.91 27.48 125.8C27.42 125.76 27.36 125.72 27.3 125.68C26.35 126.54 25.3 127.27 24.15 127.85C24.17 127.92 24.19 127.99 24.2 128.06C24.41 129.03 24.23 130.02 23.69 130.86C23.15 131.69 22.32 132.27 21.35 132.48C21.09 132.54 20.82 132.56 20.57 132.56H20.56ZM13 128.14C13 128.14 13.06 128.14 13.09 128.15C14.4 128.6 15.76 128.85 17.15 128.89C17.28 128.89 17.4 129 17.41 129.13C17.42 129.27 17.44 129.4 17.47 129.51C17.84 131.23 19.54 132.32 21.26 131.95C22.09 131.77 22.8 131.28 23.26 130.56C23.72 129.85 23.88 128.99 23.7 128.16C23.68 128.05 23.64 127.92 23.59 127.79C23.55 127.66 23.6 127.52 23.72 127.46C24.96 126.85 26.1 126.06 27.11 125.12C27.21 125.03 27.36 125.02 27.46 125.11C27.57 125.2 27.67 125.28 27.77 125.34C29.25 126.29 31.22 125.87 32.17 124.39C32.63 123.68 32.79 122.82 32.61 121.99C32.43 121.16 31.94 120.45 31.22 119.99C31.12 119.93 31.01 119.87 30.88 119.8C30.76 119.74 30.7 119.6 30.74 119.47C31.19 118.16 31.44 116.8 31.48 115.42C31.48 115.29 31.59 115.17 31.72 115.16C31.87 115.15 31.99 115.13 32.1 115.1C32.93 114.92 33.64 114.43 34.1 113.71C34.56 113 34.72 112.14 34.54 111.31C34.17 109.59 32.47 108.5 30.75 108.87C30.64 108.89 30.51 108.93 30.38 108.98C30.25 109.02 30.11 108.97 30.05 108.85C29.44 107.61 28.65 106.47 27.7 105.46C27.61 105.36 27.6 105.21 27.69 105.11C27.78 105 27.86 104.9 27.92 104.8C28.38 104.09 28.54 103.23 28.36 102.4C28.18 101.57 27.69 100.86 26.97 100.4C25.49 99.4499 23.52 99.8699 22.57 101.35C22.51 101.45 22.45 101.56 22.38 101.69C22.32 101.81 22.18 101.87 22.05 101.83C20.74 101.38 19.38 101.13 17.99 101.09C17.86 101.09 17.74 100.98 17.73 100.85C17.72 100.7 17.7 100.58 17.67 100.47C17.3 98.7499 15.6 97.6599 13.88 98.0299C13.05 98.2099 12.34 98.6999 11.88 99.4199C11.42 100.13 11.26 100.99 11.44 101.82C11.46 101.93 11.5 102.06 11.55 102.19C11.59 102.32 11.54 102.46 11.42 102.52C10.18 103.13 9.04003 103.92 8.03003 104.86C7.93003 104.95 7.78003 104.96 7.68003 104.87C7.57003 104.78 7.47003 104.7 7.37003 104.64C5.89003 103.69 3.92003 104.11 2.97003 105.59C2.51003 106.3 2.35003 107.16 2.53003 107.99C2.71003 108.82 3.20003 109.53 3.92003 109.99C4.02003 110.05 4.13003 110.11 4.26003 110.18C4.38003 110.24 4.44003 110.38 4.40003 110.51C3.95003 111.82 3.70003 113.18 3.66003 114.56C3.66003 114.69 3.55003 114.81 3.42003 114.82C3.28003 114.83 3.15003 114.85 3.04003 114.88C2.21003 115.06 1.50003 115.55 1.04003 116.27C0.580031 116.98 0.420031 117.84 0.600031 118.67C0.970031 120.39 2.67003 121.48 4.39003 121.11C4.50003 121.09 4.63003 121.05 4.76003 121C4.89003 120.96 5.03003 121.01 5.09003 121.13C5.70003 122.37 6.49003 123.51 7.44003 124.52C7.53003 124.62 7.54003 124.77 7.45003 124.87C7.36003 124.98 7.28003 125.08 7.22003 125.18C6.76003 125.89 6.60003 126.75 6.78003 127.58C6.96003 128.41 7.45003 129.12 8.17003 129.58C9.65003 130.53 11.62 130.11 12.57 128.63C12.63 128.53 12.69 128.42 12.76 128.29C12.81 128.2 12.9 128.14 13 128.14ZM17.57 121.67C16.33 121.67 15.08 121.33 13.96 120.61C12.46 119.64 11.43 118.15 11.05 116.41C10.67 114.67 11 112.88 11.97 111.39C13.97 108.3 18.11 107.41 21.2 109.4C22.7 110.37 23.73 111.86 24.11 113.6C24.49 115.34 24.16 117.13 23.19 118.62C21.91 120.6 19.76 121.67 17.57 121.67ZM17.59 108.86C15.57 108.86 13.59 109.85 12.42 111.67C11.53 113.05 11.23 114.69 11.58 116.29C11.93 117.89 12.88 119.27 14.26 120.15C17.11 121.99 20.92 121.16 22.75 118.32C23.64 116.94 23.94 115.3 23.59 113.7C23.24 112.1 22.29 110.72 20.91 109.84C19.88 109.18 18.73 108.86 17.59 108.86Z" fill="black"/>
<path d="M48.5903 98.24C48.8603 97.28 48.2903 96.28 47.3303 96.02C47.2603 96 47.1903 95.99 47.1103 95.98C47.1303 95.23 47.0403 94.5 46.8403 93.8C46.9103 93.77 46.9703 93.74 47.0403 93.7C47.9103 93.21 48.2103 92.11 47.7203 91.24C47.2303 90.37 46.1203 90.07 45.2603 90.56C45.2003 90.6 45.1303 90.64 45.0803 90.68C44.5803 90.15 44.0003 89.69 43.3403 89.33C43.3703 89.26 43.3903 89.19 43.4103 89.12C43.6803 88.16 43.1103 87.16 42.1503 86.9C41.1903 86.64 40.1903 87.2 39.9303 88.16C39.9103 88.23 39.9003 88.3 39.8903 88.38C39.1403 88.36 38.4103 88.45 37.7103 88.65C37.6803 88.58 37.6503 88.52 37.6103 88.45C37.1203 87.58 36.0103 87.28 35.1503 87.77C34.2903 88.26 33.9803 89.36 34.4703 90.23C34.5103 90.29 34.5503 90.36 34.5903 90.41C34.0603 90.91 33.6003 91.49 33.2403 92.14C33.1703 92.11 33.1003 92.09 33.0303 92.07C32.0703 91.8 31.0703 92.37 30.8103 93.33C30.5403 94.29 31.1103 95.29 32.0703 95.55C32.1403 95.57 32.2103 95.58 32.2903 95.59C32.2703 96.34 32.3603 97.07 32.5603 97.77C32.4903 97.8 32.4303 97.83 32.3603 97.87C31.4903 98.36 31.1903 99.46 31.6803 100.33C32.1703 101.2 33.2803 101.5 34.1403 101.01C34.2003 100.97 34.2703 100.93 34.3203 100.89C34.8203 101.42 35.4003 101.88 36.0603 102.24C36.0303 102.31 36.0103 102.38 35.9903 102.45C35.7203 103.41 36.2903 104.41 37.2503 104.67C38.2103 104.94 39.2103 104.37 39.4703 103.41C39.4903 103.34 39.5003 103.27 39.5103 103.19C40.2603 103.21 40.9903 103.12 41.6903 102.92C41.7203 102.99 41.7503 103.05 41.7903 103.12C42.2803 103.99 43.3903 104.29 44.2503 103.8C45.1203 103.31 45.4203 102.21 44.9303 101.34C44.8903 101.28 44.8503 101.21 44.8103 101.16C45.3403 100.66 45.8003 100.08 46.1603 99.43C46.2303 99.46 46.3003 99.48 46.3703 99.5C47.3303 99.77 48.3303 99.2 48.5903 98.24ZM42.9303 96.67C42.4403 98.46 40.5903 99.5 38.8003 99.01C37.0103 98.52 35.9603 96.67 36.4603 94.88C36.9503 93.09 38.8003 92.05 40.5903 92.54C42.3803 93.03 43.4303 94.88 42.9303 96.67Z" fill="white"/>
<path d="M37.7201 105.01C37.5401 105.01 37.3501 104.99 37.1701 104.93C36.6401 104.78 36.1901 104.44 35.9201 103.95C35.6501 103.47 35.5801 102.91 35.7201 102.37C35.7201 102.37 35.7201 102.36 35.7201 102.35C35.1901 102.03 34.7101 101.66 34.2701 101.22C34.2701 101.22 34.2601 101.22 34.2501 101.22C33.2501 101.78 31.9901 101.43 31.4201 100.44C31.1501 99.96 31.0801 99.4 31.2201 98.86C31.3701 98.33 31.7101 97.88 32.2001 97.61C32.2001 97.61 32.2101 97.61 32.2201 97.61C32.0701 97.01 32.0001 96.4 31.9901 95.79C31.9901 95.79 31.9801 95.79 31.9701 95.79C31.4401 95.64 30.9901 95.3 30.7201 94.81C30.4501 94.33 30.3801 93.77 30.5201 93.23C30.8201 92.13 31.9701 91.48 33.0701 91.78C33.0701 91.78 33.0801 91.78 33.0901 91.78C33.4101 91.25 33.7901 90.77 34.2201 90.33C34.2201 90.33 34.2201 90.32 34.2201 90.31C33.9501 89.83 33.8801 89.27 34.0201 88.74C34.1701 88.21 34.5101 87.76 35.0001 87.49C35.9901 86.93 37.2601 87.28 37.8301 88.27C37.8301 88.27 37.8301 88.28 37.8301 88.29C38.4301 88.14 39.0401 88.07 39.6501 88.06C39.6501 88.06 39.6501 88.05 39.6501 88.04C39.9501 86.94 41.1001 86.29 42.2001 86.59C42.7301 86.74 43.1801 87.08 43.4501 87.57C43.7201 88.05 43.7901 88.61 43.6501 89.15C43.6501 89.15 43.6501 89.16 43.6501 89.17C44.1801 89.49 44.6601 89.86 45.1001 90.3C45.1001 90.3 45.1101 90.3 45.1201 90.3C46.1101 89.74 47.3801 90.09 47.9501 91.08C48.2201 91.56 48.2901 92.12 48.1501 92.66C48.0001 93.19 47.6601 93.64 47.1701 93.91C47.1701 93.91 47.1601 93.91 47.1501 93.91C47.3001 94.51 47.3701 95.12 47.3801 95.73C47.3801 95.73 47.3901 95.73 47.4001 95.73C47.9301 95.88 48.3801 96.22 48.6501 96.71C48.9201 97.19 48.9901 97.75 48.8501 98.29C48.5501 99.39 47.4001 100.04 46.3001 99.74C46.3001 99.74 46.2901 99.74 46.2801 99.74C45.9601 100.27 45.5801 100.75 45.1501 101.19C45.1501 101.19 45.1501 101.2 45.1501 101.21C45.4201 101.69 45.4901 102.25 45.3501 102.79C45.2001 103.32 44.8601 103.77 44.3701 104.04C43.3801 104.6 42.1101 104.25 41.5401 103.26C41.5401 103.26 41.5401 103.25 41.5401 103.24C40.9401 103.39 40.3301 103.46 39.7201 103.47C39.7201 103.47 39.7201 103.48 39.7201 103.49C39.4701 104.41 38.6301 105.01 37.7201 105.01ZM34.3101 100.62C34.3801 100.62 34.4501 100.65 34.5001 100.7C34.9901 101.22 35.5501 101.65 36.1701 102C36.2901 102.07 36.3401 102.21 36.2901 102.33C36.2701 102.39 36.2401 102.45 36.2301 102.51C36.1201 102.91 36.1701 103.32 36.3701 103.68C36.5701 104.04 36.9001 104.3 37.3001 104.4C38.1201 104.63 38.9701 104.14 39.2001 103.33C39.2201 103.27 39.2301 103.21 39.2401 103.15C39.2601 103.02 39.3701 102.92 39.5101 102.92C40.2201 102.94 40.9301 102.85 41.6101 102.66C41.7401 102.62 41.8801 102.69 41.9301 102.81C41.9501 102.87 41.9801 102.92 42.0101 102.98C42.4301 103.72 43.3701 103.98 44.1101 103.56C44.4701 103.36 44.7301 103.03 44.8401 102.63C44.9501 102.23 44.9001 101.82 44.7001 101.46C44.6701 101.4 44.6301 101.35 44.6001 101.3C44.5201 101.19 44.5301 101.04 44.6301 100.95C45.1501 100.46 45.5801 99.9 45.9301 99.28C46.0001 99.16 46.1401 99.11 46.2601 99.16C46.3201 99.18 46.3801 99.21 46.4401 99.22C47.2601 99.45 48.1101 98.96 48.3401 98.15C48.4501 97.75 48.4001 97.34 48.1901 96.98C47.9901 96.62 47.6601 96.36 47.2601 96.26C47.2001 96.24 47.1401 96.23 47.0801 96.22C46.9501 96.2 46.8501 96.08 46.8501 95.95C46.8701 95.24 46.7801 94.53 46.5901 93.85C46.5501 93.72 46.6201 93.58 46.7401 93.53C46.8001 93.51 46.8501 93.48 46.9101 93.45C47.2701 93.25 47.5301 92.92 47.6401 92.52C47.7501 92.12 47.7001 91.71 47.5001 91.35C47.0801 90.61 46.1401 90.35 45.4001 90.77C45.3401 90.8 45.2901 90.84 45.2401 90.87C45.1301 90.95 44.9801 90.94 44.8901 90.84C44.4001 90.32 43.8401 89.89 43.2201 89.54C43.1001 89.47 43.0501 89.33 43.1001 89.21C43.1201 89.15 43.1501 89.09 43.1601 89.03C43.2701 88.63 43.2201 88.22 43.0201 87.86C42.8201 87.5 42.4901 87.24 42.0901 87.14C41.2701 86.91 40.4201 87.4 40.1901 88.21C40.1701 88.27 40.1601 88.33 40.1501 88.39C40.1301 88.52 40.0201 88.62 39.8801 88.62C39.1701 88.6 38.4601 88.69 37.7801 88.88C37.6501 88.92 37.5101 88.85 37.4601 88.73C37.4401 88.67 37.4101 88.62 37.3801 88.56C36.9601 87.82 36.0201 87.56 35.2801 87.98C34.9201 88.18 34.6601 88.51 34.5501 88.91C34.4401 89.31 34.4901 89.72 34.7001 90.08C34.7301 90.14 34.7701 90.19 34.8001 90.24C34.8801 90.35 34.8701 90.5 34.7701 90.59C34.2501 91.08 33.8201 91.64 33.4701 92.26C33.4001 92.38 33.2601 92.43 33.1401 92.38C33.0801 92.36 33.0201 92.33 32.9601 92.32C32.1401 92.09 31.2901 92.58 31.0601 93.39C30.9501 93.79 31.0001 94.2 31.2001 94.56C31.4001 94.92 31.7301 95.18 32.1301 95.28C32.1901 95.3 32.2501 95.31 32.3101 95.32C32.4401 95.34 32.5401 95.46 32.5401 95.59C32.5201 96.3 32.6101 97.01 32.8001 97.69C32.8401 97.82 32.7701 97.96 32.6501 98.01C32.5901 98.03 32.5401 98.06 32.4801 98.09C32.1201 98.29 31.8601 98.62 31.7501 99.02C31.6401 99.42 31.6901 99.83 31.8901 100.19C32.3101 100.93 33.2501 101.19 33.9901 100.77C34.0501 100.74 34.1001 100.7 34.1501 100.67C34.2001 100.64 34.2501 100.62 34.3101 100.62ZM39.6901 99.4C39.3701 99.4 39.0501 99.36 38.7301 99.27C37.8001 99.01 37.0201 98.41 36.5401 97.57C36.0601 96.73 35.9401 95.75 36.2001 94.82C36.7301 92.9 38.7301 91.76 40.6601 92.29C41.5901 92.55 42.3701 93.15 42.8501 93.99C43.3301 94.83 43.4501 95.81 43.1901 96.74C42.7501 98.34 41.2801 99.4 39.7001 99.4H39.6901ZM39.6901 92.69C38.3301 92.69 37.0901 93.59 36.7101 94.96C36.4901 95.76 36.5901 96.59 37.0001 97.31C37.4101 98.03 38.0701 98.54 38.8701 98.76C40.5101 99.21 42.2201 98.25 42.6701 96.61C42.8901 95.81 42.7901 94.98 42.3801 94.26C41.9701 93.54 41.3101 93.03 40.5101 92.81C40.2401 92.73 39.9601 92.7 39.6901 92.7V92.69Z" fill="black"/>
<path d="M14.48 185.22C14.41 185.22 14.34 185.19 14.29 185.14C14.24 185.09 14.21 185.02 14.21 184.95V136.96C14.21 136.81 14.33 136.69 14.48 136.69C14.63 136.69 14.75 136.81 14.75 136.96V184.68L42.4 184.56C42.55 184.56 42.67 184.68 42.67 184.83C42.67 184.98 42.55 185.1 42.4 185.1L14.48 185.22Z" fill="black"/>
<path d="M284.97 70.8898C284.82 70.8898 284.7 70.7698 284.7 70.6198V3.80979C284.7 3.65979 284.82 3.53979 284.97 3.53979C285.12 3.53979 285.24 3.65979 285.24 3.80979V70.6198C285.24 70.7698 285.12 70.8898 284.97 70.8898Z" fill="black"/>
<path d="M286.39 3.11986V21.8199C286.39 21.8199 292.13 16.4699 303.05 21.3599C313.51 26.0499 324.81 22.5599 331.06 15.2599C331.06 15.2599 323.3 14.1999 319 11.8999C319 11.8999 328.7 6.78987 329.98 3.65987C329.98 3.65987 317.45 5.67986 310.07 2.92987C304.25 0.759865 296.92 -2.18014 286.38 3.11986H286.39Z" fill="#492AB1"/>
</svg>
